<svg xmlns="http://www.w3.org/2000/svg" xmlns:xlink="http://www.w3.org/1999/xlink" width="400" zoomAndPan="magnify" viewBox="0 0 300 299.999988" height="400" preserveAspectRatio="xMidYMid meet" version="1.0"><defs><clipPath id="8de421a749"><path d="M 5 5.769531 L 147 5.769531 L 147 147 L 5 147 Z M 5 5.769531 " clip-rule="nonzero"/></clipPath><clipPath id="dac49b9a71"><path d="M 146 5.769531 L 148 5.769531 L 148 147 L 146 147 Z M 146 5.769531 " clip-rule="nonzero"/></clipPath><clipPath id="24e7782fdc"><path d="M 5 5.769531 L 147 5.769531 L 147 147 L 5 147 Z M 5 5.769531 " clip-rule="nonzero"/></clipPath><clipPath id="ae5119c619"><path d="M 23 247 L 44 247 L 44 294.519531 L 23 294.519531 Z M 23 247 " clip-rule="nonzero"/></clipPath><clipPath id="06a33fccc7"><path d="M 18 294 L 284 294 L 284 294.519531 L 18 294.519531 Z M 18 294 " clip-rule="nonzero"/></clipPath></defs><path fill="#f4f4f4" d="M 204.460938 10.078125 L 255.910156 10.078125 L 255.910156 77.113281 L 204.460938 77.113281 Z M 204.460938 10.078125 " fill-opacity="1" fill-rule="nonzero"/><path fill="#f4f4f4" d="M 257.578125 77.113281 L 255.910156 77.113281 L 255.910156 10.078125 L 257.578125 10.078125 Z M 257.578125 77.113281 " fill-opacity="1" fill-rule="nonzero"/><path fill="#292a2e" d="M 257.578125 77.113281 L 255.910156 77.113281 L 255.910156 10.078125 L 257.578125 10.078125 Z M 257.578125 77.113281 " fill-opacity="0.05" fill-rule="nonzero"/><path fill="#292a2e" d="M 213.832031 22.289062 L 246.539062 22.289062 L 246.539062 64.902344 L 213.832031 64.902344 Z M 213.832031 22.289062 " fill-opacity="0.05" fill-rule="nonzero"/><path fill="#292a2e" d="M 244.832031 22.289062 L 246.539062 22.289062 L 246.539062 64.902344 L 244.832031 64.902344 Z M 244.832031 22.289062 " fill-opacity="0.03" fill-rule="nonzero"/><path fill="#f4f4f4" d="M 255.910156 93.597656 L 297.988281 93.597656 L 297.988281 136.105469 L 255.910156 136.105469 Z M 255.910156 93.597656 " fill-opacity="1" fill-rule="nonzero"/><path fill="#292a2e" d="M 263.574219 101.339844 L 290.324219 101.339844 L 290.324219 128.363281 L 263.574219 128.363281 Z M 263.574219 101.339844 " fill-opacity="0.05" fill-rule="nonzero"/><path fill="#f4f4f4" d="M 299.65625 136.105469 L 297.988281 136.105469 L 297.988281 93.597656 L 299.65625 93.597656 Z M 299.65625 136.105469 " fill-opacity="1" fill-rule="nonzero"/><path fill="#292a2e" d="M 299.65625 136.105469 L 297.988281 136.105469 L 297.988281 93.597656 L 299.65625 93.597656 Z M 299.65625 136.105469 " fill-opacity="0.05" fill-rule="nonzero"/><path fill="#292a2e" d="M 288.617188 101.339844 L 290.324219 101.339844 L 290.324219 128.363281 L 288.617188 128.363281 Z M 288.617188 101.339844 " fill-opacity="0.03" fill-rule="nonzero"/><g clip-path="url(#8de421a749)"><path fill="#f4f4f4" d="M 5.925781 5.769531 L 146.09375 5.769531 L 146.09375 146.078125 L 5.925781 146.078125 Z M 5.925781 5.769531 " fill-opacity="1" fill-rule="nonzero"/></g><g clip-path="url(#dac49b9a71)"><path fill="#f4f4f4" d="M 146.09375 5.769531 L 147.703125 5.769531 L 147.703125 146.078125 L 146.09375 146.078125 Z M 146.09375 5.769531 " fill-opacity="1" fill-rule="nonzero"/><path fill="#292a2e" d="M 146.09375 5.769531 L 147.703125 5.769531 L 147.703125 146.078125 L 146.09375 146.078125 Z M 146.09375 5.769531 " fill-opacity="0.05" fill-rule="nonzero"/></g><path fill="#292a2e" d="M 112.136719 102.453125 L 112.136719 65.746094 L 82.097656 65.746094 L 82.097656 87.070312 L 35.566406 87.070312 L 35.566406 124.835938 L 15.789062 124.835938 L 15.789062 146.078125 L 139.351562 146.078125 L 139.351562 102.453125 Z M 112.136719 102.453125 " fill-opacity="0.05" fill-rule="nonzero"/><path fill="#fffffa" d="M 85.953125 69.730469 L 107.832031 69.730469 L 107.832031 73.714844 L 85.953125 73.714844 Z M 85.953125 69.730469 " fill-opacity="0.34" fill-rule="nonzero"/><path fill="#fffffa" d="M 85.953125 77.988281 L 107.832031 77.988281 L 107.832031 81.976562 L 85.953125 81.976562 Z M 85.953125 77.988281 " fill-opacity="0.34" fill-rule="nonzero"/><path fill="#fffffa" d="M 85.953125 86.25 L 107.832031 86.25 L 107.832031 90.234375 L 85.953125 90.234375 Z M 85.953125 86.25 " fill-opacity="0.34" fill-rule="nonzero"/><path fill="#fffffa" d="M 131.441406 106.324219 L 135.472656 106.324219 L 135.472656 110.308594 L 131.441406 110.308594 Z M 131.441406 106.324219 " fill-opacity="0.34" fill-rule="nonzero"/><path fill="#fffffa" d="M 131.441406 114.582031 L 135.472656 114.582031 L 135.472656 118.570312 L 131.441406 118.570312 Z M 131.441406 114.582031 " fill-opacity="0.34" fill-rule="nonzero"/><path fill="#fffffa" d="M 131.441406 122.84375 L 135.472656 122.84375 L 135.472656 126.828125 L 131.441406 126.828125 Z M 131.441406 122.84375 " fill-opacity="0.34" fill-rule="nonzero"/><path fill="#fffffa" d="M 123.980469 106.324219 L 128.015625 106.324219 L 128.015625 110.308594 L 123.980469 110.308594 Z M 123.980469 106.324219 " fill-opacity="0.34" fill-rule="nonzero"/><path fill="#fffffa" d="M 123.980469 114.582031 L 128.015625 114.582031 L 128.015625 118.570312 L 123.980469 118.570312 Z M 123.980469 114.582031 " fill-opacity="0.34" fill-rule="nonzero"/><path fill="#fffffa" d="M 123.980469 122.84375 L 128.015625 122.84375 L 128.015625 126.828125 L 123.980469 126.828125 Z M 123.980469 122.84375 " fill-opacity="0.34" fill-rule="nonzero"/><path fill="#fffffa" d="M 116.726562 106.324219 L 120.757812 106.324219 L 120.757812 110.308594 L 116.726562 110.308594 Z M 116.726562 106.324219 " fill-opacity="0.34" fill-rule="nonzero"/><path fill="#fffffa" d="M 116.726562 114.582031 L 120.757812 114.582031 L 120.757812 118.570312 L 116.726562 118.570312 Z M 116.726562 114.582031 " fill-opacity="0.34" fill-rule="nonzero"/><path fill="#fffffa" d="M 116.726562 122.84375 L 120.757812 122.84375 L 120.757812 126.828125 L 116.726562 126.828125 Z M 116.726562 122.84375 " fill-opacity="0.34" fill-rule="nonzero"/><g clip-path="url(#24e7782fdc)"><path fill="#ffffff" d="M 146.09375 75.136719 L 117.890625 75.136719 L 117.890625 5.769531 L 115.558594 5.769531 L 115.558594 75.136719 L 39.375 75.136719 L 39.375 5.769531 L 37.042969 5.769531 L 37.042969 75.136719 L 5.925781 75.136719 L 5.925781 77.472656 L 37.042969 77.472656 L 37.042969 146.078125 L 39.375 146.078125 L 39.375 77.472656 L 115.558594 77.472656 L 115.558594 146.078125 L 117.890625 146.078125 L 117.890625 77.472656 L 146.09375 77.472656 Z M 146.09375 75.136719 " fill-opacity="1" fill-rule="nonzero"/></g><path fill="#f4f4f4" d="M 0.34375 145.910156 L 151.679688 145.910156 L 151.679688 150.574219 L 0.34375 150.574219 Z M 0.34375 145.910156 " fill-opacity="1" fill-rule="nonzero"/><path fill="#292a2e" d="M 0.34375 145.910156 L 151.679688 145.910156 L 151.679688 150.574219 L 0.34375 150.574219 Z M 0.34375 145.910156 " fill-opacity="0.1" fill-rule="nonzero"/><path fill="#292a2e" d="M 151.679688 145.910156 L 153.863281 145.910156 L 153.863281 150.574219 L 151.679688 150.574219 Z M 151.679688 145.910156 " fill-opacity="0.1" fill-rule="nonzero"/><path fill="#292a2e" d="M 151.679688 145.910156 L 153.863281 145.910156 L 153.863281 150.574219 L 151.679688 150.574219 Z M 151.679688 145.910156 " fill-opacity="0.1" fill-rule="nonzero"/><path fill="#292a2e" d="M 217.882812 288.585938 L 225.667969 288.585938 L 225.667969 293.789062 L 217.882812 293.789062 Z M 217.882812 288.585938 " fill-opacity="0.05" fill-rule="nonzero"/><path fill="#292a2e" d="M 266.761719 288.585938 L 274.546875 288.585938 L 274.546875 293.789062 L 266.761719 293.789062 Z M 266.761719 288.585938 " fill-opacity="0.05" fill-rule="nonzero"/><path fill="#f4f4f4" d="M 210.746094 209.28125 L 281.683594 209.28125 L 281.683594 288.585938 L 210.746094 288.585938 Z M 210.746094 209.28125 " fill-opacity="1" fill-rule="nonzero"/><path fill="#292a2e" d="M 210.746094 209.28125 L 281.683594 209.28125 L 281.683594 288.585938 L 210.746094 288.585938 Z M 210.746094 209.28125 " fill-opacity="0.03" fill-rule="nonzero"/><path fill="#f4f4f4" d="M 191.90625 209.28125 L 262.84375 209.28125 L 262.84375 288.585938 L 191.90625 288.585938 Z M 191.90625 209.28125 " fill-opacity="1" fill-rule="nonzero"/><path fill="#292a2e" d="M 199.042969 288.585938 L 206.828125 288.585938 L 206.828125 293.789062 L 199.042969 293.789062 Z M 199.042969 288.585938 " fill-opacity="0.05" fill-rule="nonzero"/><path fill="#292a2e" d="M 247.921875 288.585938 L 255.707031 288.585938 L 255.707031 293.789062 L 247.921875 293.789062 Z M 247.921875 288.585938 " fill-opacity="0.05" fill-rule="nonzero"/><path fill="#ffffff" d="M 195.722656 214.183594 L 259.027344 214.183594 L 259.027344 234.296875 L 195.722656 234.296875 Z M 195.722656 214.183594 " fill-opacity="0.7" fill-rule="nonzero"/><path fill="#ffffff" d="M 195.722656 239.222656 L 259.027344 239.222656 L 259.027344 259.335938 L 195.722656 259.335938 Z M 195.722656 239.222656 " fill-opacity="0.7" fill-rule="nonzero"/><path fill="#ffffff" d="M 195.722656 264.257812 L 259.027344 264.257812 L 259.027344 284.371094 L 195.722656 284.371094 Z M 195.722656 264.257812 " fill-opacity="0.7" fill-rule="nonzero"/><path fill="#292a2e" d="M 230.1875 224.242188 C 230.1875 224.613281 230.113281 224.972656 229.972656 225.316406 C 229.828125 225.664062 229.625 225.96875 229.363281 226.230469 C 229.097656 226.496094 228.796875 226.699219 228.449219 226.839844 C 228.105469 226.984375 227.746094 227.054688 227.375 227.054688 C 227 227.054688 226.644531 226.984375 226.296875 226.839844 C 225.953125 226.699219 225.648438 226.496094 225.386719 226.230469 C 225.121094 225.96875 224.917969 225.664062 224.777344 225.316406 C 224.632812 224.972656 224.5625 224.613281 224.5625 224.242188 C 224.5625 223.867188 224.632812 223.507812 224.777344 223.164062 C 224.917969 222.820312 225.121094 222.515625 225.386719 222.25 C 225.648438 221.988281 225.953125 221.785156 226.296875 221.640625 C 226.644531 221.496094 227 221.425781 227.375 221.425781 C 227.746094 221.425781 228.105469 221.496094 228.449219 221.640625 C 228.796875 221.785156 229.097656 221.988281 229.363281 222.25 C 229.625 222.515625 229.828125 222.820312 229.972656 223.164062 C 230.113281 223.507812 230.1875 223.867188 230.1875 224.242188 Z M 230.1875 224.242188 " fill-opacity="0.05" fill-rule="nonzero"/><path fill="#292a2e" d="M 230.1875 249.277344 C 230.1875 249.652344 230.113281 250.011719 229.972656 250.355469 C 229.828125 250.699219 229.625 251.003906 229.363281 251.269531 C 229.097656 251.53125 228.796875 251.734375 228.449219 251.878906 C 228.105469 252.019531 227.746094 252.09375 227.375 252.09375 C 227 252.09375 226.644531 252.019531 226.296875 251.878906 C 225.953125 251.734375 225.648438 251.53125 225.386719 251.269531 C 225.121094 251.003906 224.917969 250.699219 224.777344 250.355469 C 224.632812 250.011719 224.5625 249.652344 224.5625 249.277344 C 224.5625 248.90625 224.632812 248.546875 224.777344 248.199219 C 224.917969 247.855469 225.121094 247.550781 225.386719 247.289062 C 225.648438 247.023438 225.953125 246.820312 226.296875 246.675781 C 226.644531 246.535156 227 246.464844 227.375 246.464844 C 227.746094 246.464844 228.105469 246.535156 228.449219 246.675781 C 228.796875 246.820312 229.097656 247.023438 229.363281 247.289062 C 229.625 247.550781 229.828125 247.855469 229.972656 248.199219 C 230.113281 248.546875 230.1875 248.90625 230.1875 249.277344 Z M 230.1875 249.277344 " fill-opacity="0.05" fill-rule="nonzero"/><path fill="#292a2e" d="M 230.1875 274.316406 C 230.1875 274.6875 230.113281 275.046875 229.972656 275.390625 C 229.828125 275.738281 229.625 276.042969 229.363281 276.304688 C 229.097656 276.570312 228.796875 276.773438 228.449219 276.914062 C 228.105469 277.058594 227.746094 277.128906 227.375 277.128906 C 227 277.128906 226.644531 277.058594 226.296875 276.914062 C 225.953125 276.773438 225.648438 276.570312 225.386719 276.304688 C 225.121094 276.042969 224.917969 275.738281 224.777344 275.390625 C 224.632812 275.046875 224.5625 274.6875 224.5625 274.316406 C 224.5625 273.941406 224.632812 273.582031 224.777344 273.238281 C 224.917969 272.894531 225.121094 272.589844 225.386719 272.324219 C 225.648438 272.0625 225.953125 271.859375 226.296875 271.714844 C 226.644531 271.570312 227 271.5 227.375 271.5 C 227.746094 271.5 228.105469 271.570312 228.449219 271.714844 C 228.796875 271.859375 229.097656 272.0625 229.363281 272.324219 C 229.625 272.589844 229.828125 272.894531 229.972656 273.238281 C 230.113281 273.582031 230.1875 273.941406 230.1875 274.316406 Z M 230.1875 274.316406 " fill-opacity="0.05" fill-rule="nonzero"/><path fill="#494949" d="M 33.683594 255.265625 C 33.605469 255.265625 33.53125 255.234375 33.472656 255.175781 C 33.050781 254.757812 32.363281 247.019531 30.515625 223.980469 C 29.757812 214.554688 29.042969 205.652344 28.519531 200.242188 C 28.484375 199.855469 28.335938 199.808594 28.285156 199.792969 C 27.570312 199.578125 25.398438 201.292969 24.1875 202.792969 C 24.082031 202.921875 23.894531 202.941406 23.765625 202.839844 C 23.636719 202.734375 23.617188 202.546875 23.722656 202.417969 C 24.523438 201.425781 27.136719 198.824219 28.457031 199.222656 C 28.722656 199.300781 29.054688 199.53125 29.117188 200.183594 C 29.636719 205.597656 30.351562 214.503906 31.109375 223.933594 C 32.234375 237.933594 33.507812 253.792969 33.925781 254.792969 C 34.011719 254.910156 34 255.074219 33.894531 255.175781 C 33.835938 255.234375 33.761719 255.265625 33.683594 255.265625 Z M 33.683594 255.265625 " fill-opacity="1" fill-rule="nonzero"/><path fill="#0cbc8b" d="M 31.425781 196.328125 C 31.773438 196.765625 32.0625 197.242188 32.289062 197.761719 C 32.515625 198.28125 32.679688 198.832031 32.773438 199.414062 C 32.871094 200 32.902344 200.601562 32.863281 201.226562 C 32.824219 201.855469 32.722656 202.488281 32.550781 203.128906 C 32.378906 203.773438 32.144531 204.410156 31.847656 205.046875 C 31.554688 205.683594 31.199219 206.300781 30.785156 206.90625 C 30.375 207.511719 29.914062 208.085938 29.402344 208.636719 C 28.894531 209.183594 28.34375 209.695312 27.753906 210.171875 C 27.164062 210.644531 26.546875 211.070312 25.898438 211.449219 C 25.25 211.828125 24.589844 212.152344 23.910156 212.425781 C 23.230469 212.695312 22.550781 212.90625 21.867188 213.058594 C 21.183594 213.210938 20.507812 213.296875 19.84375 213.324219 C 19.179688 213.351562 18.539062 213.316406 17.921875 213.214844 C 17.304688 213.117188 16.722656 212.957031 16.175781 212.734375 C 15.625 212.515625 15.125 212.238281 14.667969 211.902344 C 14.210938 211.566406 13.808594 211.183594 13.457031 210.746094 C 13.109375 210.3125 12.820312 209.832031 12.59375 209.3125 C 12.367188 208.792969 12.207031 208.242188 12.109375 207.660156 C 12.011719 207.078125 11.984375 206.472656 12.019531 205.847656 C 12.058594 205.222656 12.164062 204.589844 12.332031 203.945312 C 12.503906 203.300781 12.738281 202.664062 13.035156 202.027344 C 13.332031 201.394531 13.6875 200.773438 14.097656 200.167969 C 14.507812 199.566406 14.96875 198.988281 15.480469 198.4375 C 15.992188 197.890625 16.542969 197.378906 17.132812 196.90625 C 17.722656 196.433594 18.339844 196.003906 18.984375 195.625 C 19.632812 195.246094 20.296875 194.921875 20.972656 194.652344 C 21.652344 194.378906 22.332031 194.167969 23.019531 194.019531 C 23.703125 193.867188 24.375 193.777344 25.039062 193.75 C 25.703125 193.722656 26.34375 193.761719 26.960938 193.859375 C 27.578125 193.957031 28.164062 194.117188 28.710938 194.339844 C 29.257812 194.5625 29.761719 194.839844 30.21875 195.171875 C 30.675781 195.507812 31.078125 195.894531 31.425781 196.328125 Z M 31.425781 196.328125 " fill-opacity="1" fill-rule="nonzero"/><path fill="#ffffff" d="M 31.425781 196.328125 C 31.773438 196.765625 32.0625 197.242188 32.289062 197.761719 C 32.515625 198.28125 32.679688 198.832031 32.773438 199.414062 C 32.871094 200 32.902344 200.601562 32.863281 201.226562 C 32.824219 201.855469 32.722656 202.488281 32.550781 203.128906 C 32.378906 203.773438 32.144531 204.410156 31.847656 205.046875 C 31.554688 205.683594 31.199219 206.300781 30.785156 206.90625 C 30.375 207.511719 29.914062 208.085938 29.402344 208.636719 C 28.894531 209.183594 28.34375 209.695312 27.753906 210.171875 C 27.164062 210.644531 26.546875 211.070312 25.898438 211.449219 C 25.25 211.828125 24.589844 212.152344 23.910156 212.425781 C 23.230469 212.695312 22.550781 212.90625 21.867188 213.058594 C 21.183594 213.210938 20.507812 213.296875 19.84375 213.324219 C 19.179688 213.351562 18.539062 213.316406 17.921875 213.214844 C 17.304688 213.117188 16.722656 212.957031 16.175781 212.734375 C 15.625 212.515625 15.125 212.238281 14.667969 211.902344 C 14.210938 211.566406 13.808594 211.183594 13.457031 210.746094 C 13.109375 210.3125 12.820312 209.832031 12.59375 209.3125 C 12.367188 208.792969 12.207031 208.242188 12.109375 207.660156 C 12.011719 207.078125 11.984375 206.472656 12.019531 205.847656 C 12.058594 205.222656 12.164062 204.589844 12.332031 203.945312 C 12.503906 203.300781 12.738281 202.664062 13.035156 202.027344 C 13.332031 201.394531 13.6875 200.773438 14.097656 200.167969 C 14.507812 199.566406 14.96875 198.988281 15.480469 198.4375 C 15.992188 197.890625 16.542969 197.378906 17.132812 196.90625 C 17.722656 196.433594 18.339844 196.003906 18.984375 195.625 C 19.632812 195.246094 20.296875 194.921875 20.972656 194.652344 C 21.652344 194.378906 22.332031 194.167969 23.019531 194.019531 C 23.703125 193.867188 24.375 193.777344 25.039062 193.75 C 25.703125 193.722656 26.34375 193.761719 26.960938 193.859375 C 27.578125 193.957031 28.164062 194.117188 28.710938 194.339844 C 29.257812 194.5625 29.761719 194.839844 30.21875 195.171875 C 30.675781 195.507812 31.078125 195.894531 31.425781 196.328125 Z M 31.425781 196.328125 " fill-opacity="0.2" fill-rule="nonzero"/><path fill="#ffffff" d="M 14.847656 211.675781 C 14.816406 211.675781 14.78125 211.667969 14.753906 211.644531 C 14.691406 211.589844 14.679688 211.496094 14.734375 211.433594 L 28.875 194.363281 C 28.925781 194.300781 29.019531 194.289062 29.085938 194.34375 C 29.148438 194.394531 29.15625 194.488281 29.105469 194.554688 L 14.964844 211.625 C 14.933594 211.660156 14.890625 211.679688 14.847656 211.679688 Z M 14.847656 211.675781 " fill-opacity="1" fill-rule="nonzero"/><path fill="#494949" d="M 36.769531 251.605469 C 36.734375 251.605469 36.703125 251.601562 36.667969 251.589844 C 36.511719 251.535156 36.429688 251.363281 36.484375 251.207031 L 41.796875 235.917969 C 42.117188 235 42.871094 234.316406 43.8125 234.085938 C 44.757812 233.859375 45.738281 234.125 46.441406 234.796875 L 49.25 237.480469 C 49.367188 237.59375 49.371094 237.785156 49.257812 237.902344 C 49.144531 238.023438 48.953125 238.027344 48.835938 237.914062 L 46.027344 235.226562 C 45.472656 234.699219 44.699219 234.488281 43.953125 234.667969 C 43.207031 234.847656 42.613281 235.390625 42.363281 236.113281 L 37.050781 251.40625 C 37.007812 251.527344 36.890625 251.605469 36.769531 251.605469 Z M 36.769531 251.605469 " fill-opacity="1" fill-rule="nonzero"/><path fill="#0cbc8b" d="M 56.605469 231.632812 C 57.074219 232.226562 57.496094 232.847656 57.871094 233.496094 C 58.246094 234.148438 58.566406 234.8125 58.832031 235.492188 C 59.101562 236.171875 59.304688 236.855469 59.453125 237.542969 C 59.601562 238.230469 59.6875 238.902344 59.707031 239.566406 C 59.730469 240.234375 59.691406 240.875 59.589844 241.492188 C 59.484375 242.109375 59.320312 242.691406 59.097656 243.238281 C 58.875 243.785156 58.59375 244.289062 58.253906 244.742188 C 57.917969 245.199219 57.53125 245.597656 57.09375 245.945312 C 56.65625 246.292969 56.179688 246.578125 55.65625 246.800781 C 55.136719 247.023438 54.585938 247.183594 54 247.277344 C 53.417969 247.371094 52.816406 247.394531 52.191406 247.355469 C 51.566406 247.3125 50.933594 247.203125 50.292969 247.027344 C 49.652344 246.855469 49.015625 246.617188 48.382812 246.316406 C 47.75 246.015625 47.132812 245.65625 46.53125 245.242188 C 45.929688 244.824219 45.355469 244.359375 44.8125 243.84375 C 44.265625 243.332031 43.757812 242.777344 43.289062 242.183594 C 42.820312 241.589844 42.398438 240.96875 42.023438 240.320312 C 41.648438 239.667969 41.328125 239.003906 41.0625 238.324219 C 40.796875 237.644531 40.589844 236.960938 40.441406 236.273438 C 40.292969 235.589844 40.207031 234.914062 40.1875 234.25 C 40.164062 233.582031 40.203125 232.941406 40.304688 232.324219 C 40.410156 231.707031 40.574219 231.125 40.796875 230.578125 C 41.023438 230.03125 41.300781 229.527344 41.640625 229.074219 C 41.976562 228.617188 42.363281 228.21875 42.800781 227.871094 C 43.238281 227.523438 43.71875 227.238281 44.238281 227.015625 C 44.757812 226.792969 45.308594 226.632812 45.894531 226.539062 C 46.476562 226.445312 47.082031 226.421875 47.703125 226.464844 C 48.328125 226.503906 48.960938 226.613281 49.601562 226.789062 C 50.242188 226.960938 50.878906 227.199219 51.511719 227.5 C 52.144531 227.800781 52.761719 228.160156 53.363281 228.574219 C 53.964844 228.992188 54.539062 229.457031 55.082031 229.972656 C 55.628906 230.484375 56.136719 231.039062 56.605469 231.632812 Z M 56.605469 231.632812 " fill-opacity="1" fill-rule="nonzero"/><path fill="#494949" d="M 31.269531 254.289062 C 31.136719 254.289062 31.011719 254.199219 30.980469 254.058594 L 22.066406 216.75 C 21.941406 216.222656 21.550781 215.828125 21.019531 215.699219 C 20.492188 215.570312 19.964844 215.742188 19.609375 216.152344 L 16.863281 219.328125 C 16.753906 219.453125 16.566406 219.46875 16.441406 219.359375 C 16.316406 219.253906 16.300781 219.0625 16.410156 218.9375 L 19.15625 215.757812 C 19.65625 215.183594 20.421875 214.9375 21.164062 215.117188 C 21.902344 215.300781 22.472656 215.871094 22.648438 216.613281 L 31.5625 253.921875 C 31.601562 254.082031 31.5 254.242188 31.339844 254.28125 C 31.316406 254.289062 31.292969 254.289062 31.269531 254.289062 Z M 31.269531 254.289062 " fill-opacity="1" fill-rule="nonzero"/><path fill="#0cbc8b" d="M 21.578125 214.8125 C 22.125 214.910156 22.65625 215.074219 23.171875 215.316406 C 23.683594 215.554688 24.171875 215.859375 24.628906 216.234375 C 25.085938 216.605469 25.507812 217.039062 25.894531 217.53125 C 26.28125 218.027344 26.621094 218.570312 26.917969 219.164062 C 27.214844 219.757812 27.464844 220.394531 27.660156 221.066406 C 27.859375 221.738281 28.003906 222.4375 28.09375 223.164062 C 28.1875 223.890625 28.222656 224.625 28.203125 225.375 C 28.183594 226.125 28.109375 226.875 27.980469 227.621094 C 27.851562 228.367188 27.671875 229.09375 27.4375 229.808594 C 27.203125 230.519531 26.921875 231.203125 26.59375 231.855469 C 26.265625 232.507812 25.894531 233.117188 25.480469 233.6875 C 25.070312 234.253906 24.625 234.765625 24.144531 235.226562 C 23.664062 235.6875 23.160156 236.085938 22.632812 236.417969 C 22.101562 236.753906 21.558594 237.019531 21.003906 237.21875 C 20.445312 237.417969 19.886719 237.542969 19.324219 237.59375 C 18.757812 237.644531 18.203125 237.625 17.652344 237.527344 C 17.101562 237.433594 16.570312 237.265625 16.058594 237.027344 C 15.542969 236.789062 15.058594 236.484375 14.597656 236.109375 C 14.140625 235.738281 13.71875 235.304688 13.335938 234.808594 C 12.949219 234.316406 12.609375 233.773438 12.308594 233.179688 C 12.011719 232.582031 11.765625 231.949219 11.566406 231.277344 C 11.367188 230.605469 11.222656 229.90625 11.132812 229.179688 C 11.042969 228.453125 11.003906 227.714844 11.023438 226.964844 C 11.042969 226.214844 11.117188 225.46875 11.246094 224.722656 C 11.375 223.976562 11.558594 223.25 11.789062 222.535156 C 12.023438 221.824219 12.304688 221.140625 12.632812 220.488281 C 12.964844 219.835938 13.335938 219.226562 13.746094 218.65625 C 14.160156 218.089844 14.605469 217.578125 15.085938 217.117188 C 15.566406 216.65625 16.070312 216.257812 16.597656 215.921875 C 17.125 215.589844 17.667969 215.320312 18.226562 215.125 C 18.78125 214.925781 19.34375 214.800781 19.90625 214.75 C 20.46875 214.699219 21.027344 214.71875 21.578125 214.8125 Z M 21.578125 214.8125 " fill-opacity="1" fill-rule="nonzero"/><path fill="#494949" d="M 33.683594 255.265625 C 33.671875 255.265625 33.660156 255.265625 33.648438 255.261719 C 33.484375 255.242188 33.367188 255.09375 33.386719 254.929688 L 39.078125 208.667969 C 39.207031 207.625 39.910156 206.78125 40.914062 206.472656 C 41.917969 206.160156 42.972656 206.457031 43.667969 207.246094 L 50.171875 214.621094 C 50.28125 214.746094 50.269531 214.933594 50.144531 215.042969 C 50.023438 215.152344 49.832031 215.140625 49.722656 215.015625 L 43.21875 207.640625 C 42.679688 207.03125 41.867188 206.804688 41.089844 207.042969 C 40.316406 207.285156 39.769531 207.933594 39.671875 208.738281 L 33.980469 255.003906 C 33.960938 255.15625 33.832031 255.265625 33.683594 255.265625 Z M 33.683594 255.265625 " fill-opacity="1" fill-rule="nonzero"/><path fill="#0cbc8b" d="M 50.878906 205.703125 C 51.542969 206.070312 52.171875 206.480469 52.765625 206.933594 C 53.363281 207.386719 53.914062 207.878906 54.421875 208.402344 C 54.929688 208.929688 55.382812 209.480469 55.785156 210.054688 C 56.183594 210.632812 56.523438 211.222656 56.800781 211.824219 C 57.078125 212.429688 57.289062 213.039062 57.429688 213.648438 C 57.574219 214.257812 57.648438 214.855469 57.652344 215.449219 C 57.65625 216.039062 57.589844 216.609375 57.453125 217.160156 C 57.316406 217.710938 57.113281 218.230469 56.84375 218.71875 C 56.574219 219.207031 56.242188 219.65625 55.847656 220.0625 C 55.457031 220.472656 55.007812 220.832031 54.503906 221.140625 C 54.003906 221.453125 53.457031 221.710938 52.863281 221.910156 C 52.273438 222.113281 51.644531 222.257812 50.988281 222.34375 C 50.328125 222.429688 49.648438 222.457031 48.949219 222.425781 C 48.25 222.390625 47.542969 222.300781 46.828125 222.148438 C 46.113281 221.996094 45.40625 221.789062 44.703125 221.523438 C 44.003906 221.261719 43.320312 220.945312 42.660156 220.578125 C 41.996094 220.210938 41.367188 219.800781 40.773438 219.347656 C 40.175781 218.894531 39.625 218.402344 39.117188 217.878906 C 38.609375 217.351562 38.15625 216.800781 37.753906 216.226562 C 37.355469 215.648438 37.015625 215.058594 36.738281 214.457031 C 36.460938 213.851562 36.25 213.242188 36.109375 212.632812 C 35.964844 212.023438 35.890625 211.425781 35.886719 210.832031 C 35.882812 210.242188 35.949219 209.671875 36.085938 209.121094 C 36.222656 208.570312 36.425781 208.050781 36.695312 207.5625 C 36.964844 207.074219 37.296875 206.625 37.6875 206.21875 C 38.082031 205.808594 38.53125 205.449219 39.035156 205.140625 C 39.535156 204.828125 40.082031 204.570312 40.675781 204.371094 C 41.265625 204.167969 41.894531 204.023438 42.550781 203.9375 C 43.210938 203.851562 43.890625 203.824219 44.589844 203.855469 C 45.289062 203.890625 45.996094 203.980469 46.710938 204.132812 C 47.425781 204.285156 48.132812 204.492188 48.835938 204.757812 C 49.535156 205.019531 50.21875 205.335938 50.878906 205.703125 Z M 50.878906 205.703125 " fill-opacity="1" fill-rule="nonzero"/><path fill="#ffffff" d="M 56.605469 231.632812 C 57.074219 232.226562 57.496094 232.847656 57.871094 233.496094 C 58.246094 234.148438 58.566406 234.8125 58.832031 235.492188 C 59.101562 236.171875 59.304688 236.855469 59.453125 237.542969 C 59.601562 238.230469 59.6875 238.902344 59.707031 239.566406 C 59.730469 240.234375 59.691406 240.875 59.589844 241.492188 C 59.484375 242.109375 59.320312 242.691406 59.097656 243.238281 C 58.875 243.785156 58.59375 244.289062 58.253906 244.742188 C 57.917969 245.199219 57.53125 245.597656 57.09375 245.945312 C 56.65625 246.292969 56.179688 246.578125 55.65625 246.800781 C 55.136719 247.023438 54.585938 247.183594 54 247.277344 C 53.417969 247.371094 52.816406 247.394531 52.191406 247.355469 C 51.566406 247.3125 50.933594 247.203125 50.292969 247.027344 C 49.652344 246.855469 49.015625 246.617188 48.382812 246.316406 C 47.75 246.015625 47.132812 245.65625 46.53125 245.242188 C 45.929688 244.824219 45.355469 244.359375 44.8125 243.84375 C 44.265625 243.332031 43.757812 242.777344 43.289062 242.183594 C 42.820312 241.589844 42.398438 240.96875 42.023438 240.320312 C 41.648438 239.667969 41.328125 239.003906 41.0625 238.324219 C 40.796875 237.644531 40.589844 236.960938 40.441406 236.273438 C 40.292969 235.589844 40.207031 234.914062 40.1875 234.25 C 40.164062 233.582031 40.203125 232.941406 40.304688 232.324219 C 40.410156 231.707031 40.574219 231.125 40.796875 230.578125 C 41.023438 230.03125 41.300781 229.527344 41.640625 229.074219 C 41.976562 228.617188 42.363281 228.21875 42.800781 227.871094 C 43.238281 227.523438 43.71875 227.238281 44.238281 227.015625 C 44.757812 226.792969 45.308594 226.632812 45.894531 226.539062 C 46.476562 226.445312 47.082031 226.421875 47.703125 226.464844 C 48.328125 226.503906 48.960938 226.613281 49.601562 226.789062 C 50.242188 226.960938 50.878906 227.199219 51.511719 227.5 C 52.144531 227.800781 52.761719 228.160156 53.363281 228.574219 C 53.964844 228.992188 54.539062 229.457031 55.082031 229.972656 C 55.628906 230.484375 56.136719 231.039062 56.605469 231.632812 Z M 56.605469 231.632812 " fill-opacity="0.2" fill-rule="nonzero"/><path fill="#ffffff" d="M 21.578125 214.8125 C 22.125 214.910156 22.65625 215.074219 23.171875 215.316406 C 23.683594 215.554688 24.171875 215.859375 24.628906 216.234375 C 25.085938 216.605469 25.507812 217.039062 25.894531 217.53125 C 26.28125 218.027344 26.621094 218.570312 26.917969 219.164062 C 27.214844 219.757812 27.464844 220.394531 27.660156 221.066406 C 27.859375 221.738281 28.003906 222.4375 28.09375 223.164062 C 28.1875 223.890625 28.222656 224.625 28.203125 225.375 C 28.183594 226.125 28.109375 226.875 27.980469 227.621094 C 27.851562 228.367188 27.671875 229.09375 27.4375 229.808594 C 27.203125 230.519531 26.921875 231.203125 26.59375 231.855469 C 26.265625 232.507812 25.894531 233.117188 25.480469 233.6875 C 25.070312 234.253906 24.625 234.765625 24.144531 235.226562 C 23.664062 235.6875 23.160156 236.085938 22.632812 236.417969 C 22.101562 236.753906 21.558594 237.019531 21.003906 237.21875 C 20.445312 237.417969 19.886719 237.542969 19.324219 237.59375 C 18.757812 237.644531 18.203125 237.625 17.652344 237.527344 C 17.101562 237.433594 16.570312 237.265625 16.058594 237.027344 C 15.542969 236.789062 15.058594 236.484375 14.597656 236.109375 C 14.140625 235.738281 13.71875 235.304688 13.335938 234.808594 C 12.949219 234.316406 12.609375 233.773438 12.308594 233.179688 C 12.011719 232.582031 11.765625 231.949219 11.566406 231.277344 C 11.367188 230.605469 11.222656 229.90625 11.132812 229.179688 C 11.042969 228.453125 11.003906 227.714844 11.023438 226.964844 C 11.042969 226.214844 11.117188 225.46875 11.246094 224.722656 C 11.375 223.976562 11.558594 223.25 11.789062 222.535156 C 12.023438 221.824219 12.304688 221.140625 12.632812 220.488281 C 12.964844 219.835938 13.335938 219.226562 13.746094 218.65625 C 14.160156 218.089844 14.605469 217.578125 15.085938 217.117188 C 15.566406 216.65625 16.070312 216.257812 16.597656 215.921875 C 17.125 215.589844 17.667969 215.320312 18.226562 215.125 C 18.78125 214.925781 19.34375 214.800781 19.90625 214.75 C 20.46875 214.699219 21.027344 214.71875 21.578125 214.8125 Z M 21.578125 214.8125 " fill-opacity="0.5" fill-rule="nonzero"/><path fill="#ffffff" d="M 50.878906 205.703125 C 51.542969 206.070312 52.171875 206.480469 52.765625 206.933594 C 53.363281 207.386719 53.914062 207.878906 54.421875 208.402344 C 54.929688 208.929688 55.382812 209.480469 55.785156 210.054688 C 56.183594 210.632812 56.523438 211.222656 56.800781 211.824219 C 57.078125 212.429688 57.289062 213.039062 57.429688 213.648438 C 57.574219 214.257812 57.648438 214.855469 57.652344 215.449219 C 57.65625 216.039062 57.589844 216.609375 57.453125 217.160156 C 57.316406 217.710938 57.113281 218.230469 56.84375 218.71875 C 56.574219 219.207031 56.242188 219.65625 55.847656 220.0625 C 55.457031 220.472656 55.007812 220.832031 54.503906 221.140625 C 54.003906 221.453125 53.457031 221.710938 52.863281 221.910156 C 52.273438 222.113281 51.644531 222.257812 50.988281 222.34375 C 50.328125 222.429688 49.648438 222.457031 48.949219 222.425781 C 48.25 222.390625 47.542969 222.300781 46.828125 222.148438 C 46.113281 221.996094 45.40625 221.789062 44.703125 221.523438 C 44.003906 221.261719 43.320312 220.945312 42.660156 220.578125 C 41.996094 220.210938 41.367188 219.800781 40.773438 219.347656 C 40.175781 218.894531 39.625 218.402344 39.117188 217.878906 C 38.609375 217.351562 38.15625 216.800781 37.753906 216.226562 C 37.355469 215.648438 37.015625 215.058594 36.738281 214.457031 C 36.460938 213.851562 36.25 213.242188 36.109375 212.632812 C 35.964844 212.023438 35.890625 211.425781 35.886719 210.832031 C 35.882812 210.242188 35.949219 209.671875 36.085938 209.121094 C 36.222656 208.570312 36.425781 208.050781 36.695312 207.5625 C 36.964844 207.074219 37.296875 206.625 37.6875 206.21875 C 38.082031 205.808594 38.53125 205.449219 39.035156 205.140625 C 39.535156 204.828125 40.082031 204.570312 40.675781 204.371094 C 41.265625 204.167969 41.894531 204.023438 42.550781 203.9375 C 43.210938 203.851562 43.890625 203.824219 44.589844 203.855469 C 45.289062 203.890625 45.996094 203.980469 46.710938 204.132812 C 47.425781 204.285156 48.132812 204.492188 48.835938 204.757812 C 49.535156 205.019531 50.21875 205.335938 50.878906 205.703125 Z M 50.878906 205.703125 " fill-opacity="0.5" fill-rule="nonzero"/><g clip-path="url(#ae5119c619)"><path fill="#292a2e" d="M 40.964844 294.519531 L 26.402344 294.519531 L 23.988281 247.882812 L 43.378906 247.882812 Z M 40.964844 294.519531 " fill-opacity="1" fill-rule="nonzero"/><path fill="#ffffff" d="M 40.964844 294.519531 L 26.402344 294.519531 L 23.988281 247.882812 L 43.378906 247.882812 Z M 40.964844 294.519531 " fill-opacity="0.3" fill-rule="nonzero"/></g><path fill="#ffffff" d="M 57.09375 246.09375 C 57.050781 246.09375 57.007812 246.074219 56.976562 246.039062 L 42.683594 227.964844 C 42.632812 227.898438 42.644531 227.804688 42.710938 227.753906 C 42.773438 227.703125 42.867188 227.710938 42.917969 227.777344 L 57.210938 245.851562 C 57.261719 245.917969 57.253906 246.011719 57.1875 246.0625 C 57.160156 246.085938 57.128906 246.09375 57.09375 246.09375 Z M 57.09375 246.09375 " fill-opacity="1" fill-rule="nonzero"/><path fill="#ffffff" d="M 55.894531 220.167969 C 55.863281 220.167969 55.832031 220.160156 55.808594 220.140625 L 37.515625 206.769531 C 37.449219 206.722656 37.433594 206.628906 37.484375 206.5625 C 37.53125 206.496094 37.625 206.480469 37.691406 206.527344 L 55.984375 219.898438 C 56.050781 219.945312 56.066406 220.039062 56.015625 220.105469 C 55.988281 220.148438 55.941406 220.167969 55.894531 220.167969 Z M 55.894531 220.167969 " fill-opacity="1" fill-rule="nonzero"/><path fill="#ffffff" d="M 16.910156 237.332031 C 16.898438 237.332031 16.882812 237.332031 16.871094 237.328125 C 16.792969 237.308594 16.746094 237.226562 16.765625 237.144531 L 22.589844 215.308594 C 22.609375 215.230469 22.691406 215.183594 22.769531 215.203125 C 22.851562 215.222656 22.898438 215.304688 22.878906 215.386719 L 17.054688 237.222656 C 17.035156 237.289062 16.976562 237.332031 16.910156 237.332031 Z M 16.910156 237.332031 " fill-opacity="1" fill-rule="nonzero"/><path fill="#ffffff" d="M 50.421875 22.242188 L 222.265625 22.242188 C 222.851562 22.242188 223.4375 22.300781 224.015625 22.414062 C 224.589844 22.53125 225.152344 22.699219 225.695312 22.925781 C 226.242188 23.152344 226.757812 23.429688 227.246094 23.757812 C 227.738281 24.085938 228.191406 24.457031 228.605469 24.875 C 229.023438 25.289062 229.394531 25.742188 229.722656 26.234375 C 230.050781 26.722656 230.324219 27.242188 230.550781 27.785156 C 230.777344 28.332031 230.945312 28.894531 231.0625 29.472656 C 231.175781 30.050781 231.234375 30.632812 231.234375 31.222656 L 231.234375 220.984375 C 231.234375 221.574219 231.175781 222.160156 231.0625 222.738281 C 230.945312 223.316406 230.777344 223.878906 230.550781 224.421875 C 230.324219 224.96875 230.050781 225.484375 229.722656 225.976562 C 229.394531 226.464844 229.023438 226.917969 228.605469 227.335938 C 228.191406 227.753906 227.738281 228.125 227.246094 228.453125 C 226.757812 228.78125 226.242188 229.054688 225.695312 229.28125 C 225.152344 229.507812 224.589844 229.679688 224.015625 229.792969 C 223.4375 229.90625 222.851562 229.964844 222.265625 229.964844 L 50.421875 229.964844 C 49.832031 229.964844 49.25 229.90625 48.671875 229.792969 C 48.09375 229.679688 47.53125 229.507812 46.988281 229.28125 C 46.445312 229.054688 45.925781 228.78125 45.4375 228.453125 C 44.949219 228.125 44.496094 227.753906 44.078125 227.335938 C 43.660156 226.917969 43.289062 226.464844 42.960938 225.976562 C 42.636719 225.484375 42.359375 224.96875 42.132812 224.421875 C 41.90625 223.878906 41.738281 223.316406 41.621094 222.738281 C 41.507812 222.160156 41.449219 221.574219 41.449219 220.984375 L 41.449219 31.222656 C 41.449219 30.632812 41.507812 30.050781 41.621094 29.472656 C 41.738281 28.894531 41.90625 28.332031 42.132812 27.785156 C 42.359375 27.242188 42.636719 26.722656 42.960938 26.234375 C 43.289062 25.742188 43.660156 25.289062 44.078125 24.875 C 44.496094 24.457031 44.949219 24.085938 45.4375 23.757812 C 45.925781 23.429688 46.445312 23.152344 46.988281 22.925781 C 47.53125 22.699219 48.09375 22.53125 48.671875 22.414062 C 49.25 22.300781 49.832031 22.242188 50.421875 22.242188 Z M 50.421875 22.242188 " fill-opacity="1" fill-rule="nonzero"/><path fill="#292a2e" d="M 222.09375 230.011719 L 50.25 230.011719 C 45.140625 230.011719 40.980469 225.847656 40.980469 220.730469 L 40.980469 30.96875 C 40.980469 25.851562 45.140625 21.691406 50.25 21.691406 L 222.09375 21.691406 C 227.207031 21.691406 231.363281 25.851562 231.363281 30.96875 L 231.363281 220.730469 C 231.363281 225.847656 227.207031 230.011719 222.09375 230.011719 Z M 50.25 22.289062 C 45.46875 22.289062 41.578125 26.183594 41.578125 30.96875 L 41.578125 220.730469 C 41.578125 225.519531 45.46875 229.414062 50.25 229.414062 L 222.09375 229.414062 C 226.875 229.414062 230.765625 225.519531 230.765625 220.730469 L 230.765625 30.96875 C 230.765625 26.183594 226.875 22.289062 222.09375 22.289062 Z M 50.25 22.289062 " fill-opacity="1" fill-rule="nonzero"/><path fill="#292a2e" d="M 231.0625 30.96875 L 231.0625 37.910156 L 41.28125 37.910156 L 41.28125 30.96875 C 41.28125 26.007812 45.296875 21.988281 50.253906 21.988281 L 222.09375 21.988281 C 227.046875 21.988281 231.0625 26.007812 231.0625 30.96875 Z M 231.0625 30.96875 " fill-opacity="1" fill-rule="nonzero"/><path fill="#367cff" d="M 94.855469 71.078125 C 94.855469 71.796875 94.820312 72.515625 94.75 73.230469 C 94.679688 73.945312 94.574219 74.65625 94.433594 75.363281 C 94.296875 76.066406 94.121094 76.765625 93.914062 77.453125 C 93.703125 78.140625 93.460938 78.816406 93.1875 79.480469 C 92.914062 80.144531 92.605469 80.792969 92.265625 81.429688 C 91.929688 82.0625 91.558594 82.679688 91.160156 83.277344 C 90.761719 83.875 90.332031 84.453125 89.878906 85.007812 C 89.421875 85.5625 88.941406 86.09375 88.433594 86.601562 C 87.925781 87.113281 87.394531 87.59375 86.839844 88.050781 C 86.28125 88.507812 85.707031 88.933594 85.109375 89.332031 C 84.511719 89.734375 83.898438 90.101562 83.261719 90.441406 C 82.628906 90.78125 81.980469 91.085938 81.316406 91.363281 C 80.652344 91.636719 79.980469 91.878906 79.292969 92.089844 C 78.605469 92.296875 77.90625 92.472656 77.203125 92.613281 C 76.5 92.753906 75.789062 92.855469 75.074219 92.929688 C 74.359375 93 73.644531 93.035156 72.925781 93.035156 C 72.207031 93.035156 71.488281 93 70.773438 92.929688 C 70.058594 92.855469 69.351562 92.753906 68.644531 92.613281 C 67.941406 92.472656 67.246094 92.296875 66.558594 92.089844 C 65.871094 91.878906 65.195312 91.636719 64.53125 91.363281 C 63.867188 91.085938 63.21875 90.78125 62.585938 90.441406 C 61.953125 90.101562 61.335938 89.734375 60.742188 89.332031 C 60.144531 88.933594 59.566406 88.507812 59.011719 88.050781 C 58.457031 87.59375 57.925781 87.113281 57.417969 86.601562 C 56.910156 86.09375 56.425781 85.5625 55.972656 85.007812 C 55.515625 84.453125 55.089844 83.875 54.691406 83.277344 C 54.289062 82.679688 53.921875 82.0625 53.582031 81.429688 C 53.246094 80.792969 52.9375 80.144531 52.664062 79.480469 C 52.386719 78.816406 52.144531 78.140625 51.9375 77.453125 C 51.730469 76.765625 51.554688 76.066406 51.414062 75.363281 C 51.273438 74.65625 51.167969 73.945312 51.097656 73.230469 C 51.027344 72.515625 50.992188 71.796875 50.992188 71.078125 C 50.992188 70.359375 51.027344 69.644531 51.097656 68.929688 C 51.167969 68.210938 51.273438 67.5 51.414062 66.796875 C 51.554688 66.089844 51.730469 65.394531 51.9375 64.707031 C 52.144531 64.019531 52.386719 63.34375 52.664062 62.679688 C 52.9375 62.015625 53.246094 61.363281 53.582031 60.730469 C 53.921875 60.097656 54.289062 59.480469 54.691406 58.882812 C 55.089844 58.285156 55.515625 57.707031 55.972656 57.152344 C 56.425781 56.597656 56.910156 56.0625 57.417969 55.554688 C 57.925781 55.046875 58.457031 54.566406 59.011719 54.109375 C 59.566406 53.652344 60.144531 53.226562 60.742188 52.824219 C 61.335938 52.425781 61.953125 52.058594 62.585938 51.71875 C 63.21875 51.378906 63.867188 51.070312 64.53125 50.796875 C 65.195312 50.523438 65.871094 50.28125 66.558594 50.070312 C 67.246094 49.863281 67.941406 49.6875 68.644531 49.546875 C 69.351562 49.40625 70.058594 49.300781 70.773438 49.230469 C 71.488281 49.160156 72.207031 49.125 72.925781 49.125 C 73.644531 49.125 74.359375 49.160156 75.074219 49.230469 C 75.789062 49.300781 76.5 49.40625 77.203125 49.546875 C 77.90625 49.6875 78.605469 49.863281 79.292969 50.070312 C 79.980469 50.28125 80.652344 50.523438 81.316406 50.796875 C 81.980469 51.070312 82.628906 51.378906 83.261719 51.71875 C 83.898438 52.058594 84.511719 52.425781 85.109375 52.824219 C 85.707031 53.226562 86.28125 53.652344 86.839844 54.109375 C 87.394531 54.566406 87.925781 55.046875 88.433594 55.554688 C 88.941406 56.0625 89.421875 56.597656 89.878906 57.152344 C 90.332031 57.707031 90.761719 58.285156 91.160156 58.882812 C 91.558594 59.480469 91.929688 60.097656 92.265625 60.730469 C 92.605469 61.363281 92.914062 62.015625 93.1875 62.679688 C 93.460938 63.34375 93.703125 64.019531 93.914062 64.707031 C 94.121094 65.394531 94.296875 66.089844 94.433594 66.796875 C 94.574219 67.5 94.679688 68.210938 94.75 68.929688 C 94.820312 69.644531 94.855469 70.359375 94.855469 71.078125 Z M 94.855469 71.078125 " fill-opacity="0.1" fill-rule="nonzero"/><path fill="#367cff" d="M 80.542969 62.511719 C 80.542969 63.011719 80.492188 63.507812 80.394531 63.996094 C 80.296875 64.488281 80.152344 64.964844 79.960938 65.429688 C 79.769531 65.890625 79.535156 66.328125 79.257812 66.746094 C 78.980469 67.164062 78.664062 67.546875 78.3125 67.902344 C 77.957031 68.253906 77.574219 68.570312 77.15625 68.851562 C 76.742188 69.128906 76.300781 69.363281 75.839844 69.554688 C 75.378906 69.746094 74.902344 69.890625 74.410156 69.988281 C 73.921875 70.085938 73.425781 70.136719 72.925781 70.136719 C 72.425781 70.136719 71.929688 70.085938 71.4375 69.988281 C 70.949219 69.890625 70.472656 69.746094 70.011719 69.554688 C 69.546875 69.363281 69.109375 69.128906 68.691406 68.851562 C 68.277344 68.570312 67.890625 68.253906 67.539062 67.902344 C 67.183594 67.546875 66.867188 67.164062 66.589844 66.746094 C 66.3125 66.328125 66.078125 65.890625 65.886719 65.429688 C 65.695312 64.964844 65.550781 64.488281 65.453125 63.996094 C 65.355469 63.507812 65.308594 63.011719 65.308594 62.511719 C 65.308594 62.007812 65.355469 61.511719 65.453125 61.023438 C 65.550781 60.53125 65.695312 60.054688 65.886719 59.589844 C 66.078125 59.128906 66.3125 58.691406 66.589844 58.273438 C 66.867188 57.855469 67.183594 57.472656 67.539062 57.117188 C 67.890625 56.765625 68.277344 56.449219 68.691406 56.167969 C 69.109375 55.890625 69.546875 55.65625 70.011719 55.464844 C 70.472656 55.273438 70.949219 55.128906 71.4375 55.03125 C 71.929688 54.933594 72.425781 54.882812 72.925781 54.882812 C 73.425781 54.882812 73.921875 54.933594 74.410156 55.03125 C 74.902344 55.128906 75.378906 55.273438 75.839844 55.464844 C 76.300781 55.65625 76.742188 55.890625 77.15625 56.167969 C 77.574219 56.449219 77.957031 56.765625 78.3125 57.117188 C 78.664062 57.472656 78.980469 57.855469 79.257812 58.273438 C 79.535156 58.691406 79.769531 59.128906 79.960938 59.589844 C 80.152344 60.054688 80.296875 60.53125 80.394531 61.023438 C 80.492188 61.511719 80.542969 62.007812 80.542969 62.511719 Z M 80.542969 62.511719 " fill-opacity="0.2" fill-rule="nonzero"/><path fill="#367cff" d="M 89.414062 85.554688 C 85.394531 90.140625 79.496094 93.035156 72.925781 93.035156 C 66.351562 93.035156 60.453125 90.140625 56.4375 85.554688 C 58.542969 78.429688 65.125 73.234375 72.925781 73.234375 C 80.722656 73.234375 87.308594 78.433594 89.414062 85.554688 Z M 89.414062 85.554688 " fill-opacity="0.2" fill-rule="nonzero"/><path fill="#367cff" d="M 53.558594 108.011719 L 83.285156 108.011719 C 83.542969 108.011719 83.789062 108.058594 84.027344 108.15625 C 84.265625 108.257812 84.476562 108.398438 84.65625 108.578125 C 84.839844 108.761719 84.980469 108.972656 85.078125 109.210938 C 85.175781 109.449219 85.226562 109.695312 85.226562 109.953125 C 85.226562 110.210938 85.175781 110.460938 85.078125 110.699219 C 84.980469 110.9375 84.839844 111.148438 84.65625 111.328125 C 84.476562 111.511719 84.265625 111.652344 84.027344 111.75 C 83.789062 111.851562 83.542969 111.898438 83.285156 111.898438 L 53.558594 111.898438 C 53.300781 111.898438 53.050781 111.851562 52.8125 111.75 C 52.574219 111.652344 52.367188 111.511719 52.183594 111.328125 C 52 111.148438 51.859375 110.9375 51.761719 110.699219 C 51.664062 110.460938 51.613281 110.210938 51.613281 109.953125 C 51.613281 109.695312 51.664062 109.449219 51.761719 109.210938 C 51.859375 108.972656 52 108.761719 52.183594 108.578125 C 52.367188 108.398438 52.574219 108.257812 52.8125 108.15625 C 53.050781 108.058594 53.300781 108.011719 53.558594 108.011719 Z M 53.558594 108.011719 " fill-opacity="0.2" fill-rule="nonzero"/><path fill="#367cff" d="M 107.191406 50.601562 L 153.917969 50.601562 C 154.335938 50.601562 154.738281 50.679688 155.128906 50.839844 C 155.515625 51 155.855469 51.230469 156.152344 51.527344 C 156.449219 51.824219 156.675781 52.164062 156.835938 52.550781 C 156.996094 52.941406 157.078125 53.34375 157.078125 53.761719 L 157.078125 60.320312 C 157.078125 60.742188 156.996094 61.144531 156.835938 61.53125 C 156.675781 61.917969 156.449219 62.261719 156.152344 62.558594 C 155.855469 62.855469 155.515625 63.082031 155.128906 63.242188 C 154.738281 63.402344 154.335938 63.484375 153.917969 63.484375 L 107.191406 63.484375 C 106.773438 63.484375 106.371094 63.402344 105.984375 63.242188 C 105.597656 63.082031 105.253906 62.855469 104.960938 62.558594 C 104.664062 62.261719 104.433594 61.917969 104.273438 61.53125 C 104.113281 61.144531 104.035156 60.742188 104.035156 60.320312 L 104.035156 53.761719 C 104.035156 53.34375 104.113281 52.941406 104.273438 52.550781 C 104.433594 52.164062 104.664062 51.824219 104.960938 51.527344 C 105.253906 51.230469 105.597656 51 105.984375 50.839844 C 106.371094 50.679688 106.773438 50.601562 107.191406 50.601562 Z M 107.191406 50.601562 " fill-opacity="0.1" fill-rule="nonzero"/><path fill="#367cff" d="M 105.527344 70.605469 L 175.5625 70.605469 C 175.761719 70.605469 175.953125 70.644531 176.136719 70.71875 C 176.320312 70.796875 176.480469 70.90625 176.621094 71.046875 C 176.761719 71.183594 176.871094 71.347656 176.945312 71.53125 C 177.019531 71.714844 177.058594 71.90625 177.058594 72.101562 C 177.058594 72.300781 177.019531 72.492188 176.945312 72.675781 C 176.871094 72.859375 176.761719 73.019531 176.621094 73.160156 C 176.480469 73.300781 176.320312 73.410156 176.136719 73.484375 C 175.953125 73.5625 175.761719 73.601562 175.5625 73.601562 L 105.527344 73.601562 C 105.332031 73.601562 105.140625 73.5625 104.957031 73.484375 C 104.773438 73.410156 104.613281 73.300781 104.472656 73.160156 C 104.332031 73.019531 104.222656 72.859375 104.148438 72.675781 C 104.070312 72.492188 104.035156 72.300781 104.035156 72.101562 C 104.035156 71.90625 104.070312 71.714844 104.148438 71.53125 C 104.222656 71.347656 104.332031 71.183594 104.472656 71.046875 C 104.613281 70.90625 104.773438 70.796875 104.957031 70.71875 C 105.140625 70.644531 105.332031 70.605469 105.527344 70.605469 Z M 105.527344 70.605469 " fill-opacity="0.2" fill-rule="nonzero"/><path fill="#367cff" d="M 105.527344 79.585938 L 175.5625 79.585938 C 175.761719 79.585938 175.953125 79.625 176.136719 79.699219 C 176.320312 79.777344 176.480469 79.882812 176.621094 80.023438 C 176.761719 80.164062 176.871094 80.328125 176.945312 80.511719 C 177.019531 80.695312 177.058594 80.882812 177.058594 81.082031 C 177.058594 81.28125 177.019531 81.472656 176.945312 81.65625 C 176.871094 81.839844 176.761719 82 176.621094 82.140625 C 176.480469 82.28125 176.320312 82.390625 176.136719 82.464844 C 175.953125 82.542969 175.761719 82.578125 175.5625 82.578125 L 105.527344 82.578125 C 105.332031 82.578125 105.140625 82.542969 104.957031 82.464844 C 104.773438 82.390625 104.613281 82.28125 104.472656 82.140625 C 104.332031 82 104.222656 81.839844 104.148438 81.65625 C 104.070312 81.472656 104.035156 81.28125 104.035156 81.082031 C 104.035156 80.882812 104.070312 80.695312 104.148438 80.511719 C 104.222656 80.328125 104.332031 80.164062 104.472656 80.023438 C 104.613281 79.882812 104.773438 79.777344 104.957031 79.699219 C 105.140625 79.625 105.332031 79.585938 105.527344 79.585938 Z M 105.527344 79.585938 " fill-opacity="0.2" fill-rule="nonzero"/><path fill="#367cff" d="M 105.527344 88.566406 L 163.601562 88.566406 C 163.800781 88.566406 163.992188 88.605469 164.175781 88.679688 C 164.359375 88.757812 164.519531 88.863281 164.660156 89.003906 C 164.800781 89.144531 164.910156 89.308594 164.984375 89.488281 C 165.058594 89.671875 165.097656 89.863281 165.097656 90.0625 C 165.097656 90.261719 165.058594 90.453125 164.984375 90.636719 C 164.910156 90.820312 164.800781 90.980469 164.660156 91.121094 C 164.519531 91.261719 164.359375 91.371094 164.175781 91.445312 C 163.992188 91.519531 163.800781 91.558594 163.601562 91.558594 L 105.527344 91.558594 C 105.332031 91.558594 105.140625 91.519531 104.957031 91.445312 C 104.773438 91.371094 104.613281 91.261719 104.472656 91.121094 C 104.332031 90.980469 104.222656 90.820312 104.148438 90.636719 C 104.070312 90.453125 104.035156 90.261719 104.035156 90.0625 C 104.035156 89.863281 104.070312 89.671875 104.148438 89.488281 C 104.222656 89.308594 104.332031 89.144531 104.472656 89.003906 C 104.613281 88.863281 104.773438 88.757812 104.957031 88.679688 C 105.140625 88.605469 105.332031 88.566406 105.527344 88.566406 Z M 105.527344 88.566406 " fill-opacity="0.2" fill-rule="nonzero"/><path fill="#367cff" d="M 54.421875 117.507812 L 127.429688 117.507812 C 127.800781 117.507812 128.160156 117.578125 128.503906 117.722656 C 128.847656 117.863281 129.152344 118.066406 129.414062 118.332031 C 129.679688 118.59375 129.882812 118.898438 130.023438 119.242188 C 130.167969 119.589844 130.238281 119.945312 130.238281 120.320312 L 130.238281 127.265625 C 130.238281 127.636719 130.167969 127.996094 130.023438 128.339844 C 129.882812 128.683594 129.679688 128.988281 129.414062 129.25 C 129.152344 129.515625 128.847656 129.71875 128.503906 129.859375 C 128.160156 130.003906 127.800781 130.074219 127.429688 130.074219 L 54.421875 130.074219 C 54.050781 130.074219 53.691406 130.003906 53.347656 129.859375 C 53.003906 129.71875 52.699219 129.515625 52.4375 129.25 C 52.175781 128.988281 51.972656 128.683594 51.828125 128.339844 C 51.6875 127.996094 51.613281 127.636719 51.613281 127.265625 L 51.613281 120.320312 C 51.613281 119.945312 51.6875 119.589844 51.828125 119.242188 C 51.972656 118.898438 52.175781 118.59375 52.4375 118.332031 C 52.699219 118.066406 53.003906 117.863281 53.347656 117.722656 C 53.691406 117.578125 54.050781 117.507812 54.421875 117.507812 Z M 54.421875 117.507812 " fill-opacity="0.1" fill-rule="nonzero"/><path fill="#367cff" d="M 143.070312 108.011719 L 172.796875 108.011719 C 173.054688 108.011719 173.300781 108.058594 173.539062 108.15625 C 173.777344 108.257812 173.988281 108.398438 174.171875 108.578125 C 174.351562 108.761719 174.492188 108.972656 174.59375 109.210938 C 174.691406 109.449219 174.738281 109.695312 174.738281 109.953125 C 174.738281 110.210938 174.691406 110.460938 174.59375 110.699219 C 174.492188 110.9375 174.351562 111.148438 174.171875 111.328125 C 173.988281 111.511719 173.777344 111.652344 173.539062 111.75 C 173.300781 111.851562 173.054688 111.898438 172.796875 111.898438 L 143.070312 111.898438 C 142.8125 111.898438 142.566406 111.851562 142.328125 111.75 C 142.089844 111.652344 141.878906 111.511719 141.695312 111.328125 C 141.515625 111.148438 141.375 110.9375 141.277344 110.699219 C 141.175781 110.460938 141.128906 110.210938 141.128906 109.953125 C 141.128906 109.695312 141.175781 109.449219 141.277344 109.210938 C 141.375 108.972656 141.515625 108.761719 141.695312 108.578125 C 141.878906 108.398438 142.089844 108.257812 142.328125 108.15625 C 142.566406 108.058594 142.8125 108.011719 143.070312 108.011719 Z M 143.070312 108.011719 " fill-opacity="0.2" fill-rule="nonzero"/><path fill="#367cff" d="M 143.9375 117.507812 L 216.945312 117.507812 C 217.316406 117.507812 217.675781 117.578125 218.019531 117.722656 C 218.363281 117.863281 218.664062 118.066406 218.929688 118.332031 C 219.191406 118.59375 219.394531 118.898438 219.539062 119.242188 C 219.679688 119.589844 219.75 119.945312 219.75 120.320312 L 219.75 127.265625 C 219.75 127.636719 219.679688 127.996094 219.539062 128.339844 C 219.394531 128.683594 219.191406 128.988281 218.929688 129.25 C 218.664062 129.515625 218.363281 129.71875 218.019531 129.859375 C 217.675781 130.003906 217.316406 130.074219 216.945312 130.074219 L 143.9375 130.074219 C 143.5625 130.074219 143.207031 130.003906 142.863281 129.859375 C 142.519531 129.71875 142.214844 129.515625 141.949219 129.25 C 141.6875 128.988281 141.484375 128.683594 141.34375 128.339844 C 141.199219 127.996094 141.128906 127.636719 141.128906 127.265625 L 141.128906 120.320312 C 141.128906 119.945312 141.199219 119.589844 141.34375 119.242188 C 141.484375 118.898438 141.6875 118.59375 141.949219 118.332031 C 142.214844 118.066406 142.519531 117.863281 142.863281 117.722656 C 143.207031 117.578125 143.5625 117.507812 143.9375 117.507812 Z M 143.9375 117.507812 " fill-opacity="0.1" fill-rule="nonzero"/><path fill="#367cff" d="M 53.558594 140.464844 L 83.285156 140.464844 C 83.542969 140.464844 83.789062 140.515625 84.027344 140.613281 C 84.265625 140.710938 84.476562 140.851562 84.65625 141.035156 C 84.839844 141.214844 84.980469 141.425781 85.078125 141.664062 C 85.175781 141.902344 85.226562 142.152344 85.226562 142.410156 C 85.226562 142.667969 85.175781 142.914062 85.078125 143.152344 C 84.980469 143.390625 84.839844 143.601562 84.65625 143.785156 C 84.476562 143.964844 84.265625 144.105469 84.027344 144.207031 C 83.789062 144.304688 83.542969 144.351562 83.285156 144.351562 L 53.558594 144.351562 C 53.300781 144.351562 53.050781 144.304688 52.8125 144.207031 C 52.574219 144.105469 52.367188 143.964844 52.183594 143.785156 C 52 143.601562 51.859375 143.390625 51.761719 143.152344 C 51.664062 142.914062 51.613281 142.667969 51.613281 142.410156 C 51.613281 142.152344 51.664062 141.902344 51.761719 141.664062 C 51.859375 141.425781 52 141.214844 52.183594 141.035156 C 52.367188 140.851562 52.574219 140.710938 52.8125 140.613281 C 53.050781 140.515625 53.300781 140.464844 53.558594 140.464844 Z M 53.558594 140.464844 " fill-opacity="0.2" fill-rule="nonzero"/><path fill="#367cff" d="M 54.421875 149.960938 L 127.429688 149.960938 C 127.800781 149.960938 128.160156 150.035156 128.503906 150.175781 C 128.847656 150.320312 129.152344 150.523438 129.414062 150.785156 C 129.679688 151.050781 129.882812 151.355469 130.023438 151.699219 C 130.167969 152.042969 130.238281 152.402344 130.238281 152.773438 L 130.238281 159.71875 C 130.238281 160.089844 130.167969 160.449219 130.023438 160.792969 C 129.882812 161.136719 129.679688 161.441406 129.414062 161.707031 C 129.152344 161.96875 128.847656 162.171875 128.503906 162.316406 C 128.160156 162.457031 127.800781 162.53125 127.429688 162.53125 L 54.421875 162.53125 C 54.050781 162.53125 53.691406 162.457031 53.347656 162.316406 C 53.003906 162.171875 52.699219 161.96875 52.4375 161.707031 C 52.175781 161.441406 51.972656 161.136719 51.828125 160.792969 C 51.6875 160.449219 51.613281 160.089844 51.613281 159.71875 L 51.613281 152.773438 C 51.613281 152.402344 51.6875 152.042969 51.828125 151.699219 C 51.972656 151.355469 52.175781 151.050781 52.4375 150.785156 C 52.699219 150.523438 53.003906 150.320312 53.347656 150.175781 C 53.691406 150.035156 54.050781 149.960938 54.421875 149.960938 Z M 54.421875 149.960938 " fill-opacity="0.1" fill-rule="nonzero"/><path fill="#367cff" d="M 143.070312 140.464844 L 172.796875 140.464844 C 173.054688 140.464844 173.300781 140.515625 173.539062 140.613281 C 173.777344 140.710938 173.988281 140.851562 174.171875 141.035156 C 174.351562 141.214844 174.492188 141.425781 174.59375 141.664062 C 174.691406 141.902344 174.738281 142.152344 174.738281 142.410156 C 174.738281 142.667969 174.691406 142.914062 174.59375 143.152344 C 174.492188 143.390625 174.351562 143.601562 174.171875 143.785156 C 173.988281 143.964844 173.777344 144.105469 173.539062 144.207031 C 173.300781 144.304688 173.054688 144.351562 172.796875 144.351562 L 143.070312 144.351562 C 142.8125 144.351562 142.566406 144.304688 142.328125 144.207031 C 142.089844 144.105469 141.878906 143.964844 141.695312 143.785156 C 141.515625 143.601562 141.375 143.390625 141.277344 143.152344 C 141.175781 142.914062 141.128906 142.667969 141.128906 142.410156 C 141.128906 142.152344 141.175781 141.902344 141.277344 141.664062 C 141.375 141.425781 141.515625 141.214844 141.695312 141.035156 C 141.878906 140.851562 142.089844 140.710938 142.328125 140.613281 C 142.566406 140.515625 142.8125 140.464844 143.070312 140.464844 Z M 143.070312 140.464844 " fill-opacity="0.2" fill-rule="nonzero"/><path fill="#367cff" d="M 143.9375 149.960938 L 216.945312 149.960938 C 217.316406 149.960938 217.675781 150.035156 218.019531 150.175781 C 218.363281 150.320312 218.664062 150.523438 218.929688 150.785156 C 219.191406 151.050781 219.394531 151.355469 219.539062 151.699219 C 219.679688 152.042969 219.75 152.402344 219.75 152.773438 L 219.75 159.71875 C 219.75 160.089844 219.679688 160.449219 219.539062 160.792969 C 219.394531 161.136719 219.191406 161.441406 218.929688 161.707031 C 218.664062 161.96875 218.363281 162.171875 218.019531 162.316406 C 217.675781 162.457031 217.316406 162.53125 216.945312 162.53125 L 143.9375 162.53125 C 143.5625 162.53125 143.207031 162.457031 142.863281 162.316406 C 142.519531 162.171875 142.214844 161.96875 141.949219 161.707031 C 141.6875 161.441406 141.484375 161.136719 141.34375 160.792969 C 141.199219 160.449219 141.128906 160.089844 141.128906 159.71875 L 141.128906 152.773438 C 141.128906 152.402344 141.199219 152.042969 141.34375 151.699219 C 141.484375 151.355469 141.6875 151.050781 141.949219 150.785156 C 142.214844 150.523438 142.519531 150.320312 142.863281 150.175781 C 143.207031 150.035156 143.5625 149.960938 143.9375 149.960938 Z M 143.9375 149.960938 " fill-opacity="0.1" fill-rule="nonzero"/><path fill="#367cff" d="M 53.558594 172.917969 L 83.285156 172.917969 C 83.542969 172.917969 83.789062 172.96875 84.027344 173.066406 C 84.265625 173.164062 84.476562 173.304688 84.65625 173.488281 C 84.839844 173.671875 84.980469 173.882812 85.078125 174.121094 C 85.175781 174.359375 85.226562 174.605469 85.226562 174.863281 C 85.226562 175.121094 85.175781 175.371094 85.078125 175.609375 C 84.980469 175.84375 84.839844 176.054688 84.65625 176.238281 C 84.476562 176.421875 84.265625 176.5625 84.027344 176.660156 C 83.789062 176.757812 83.542969 176.808594 83.285156 176.808594 L 53.558594 176.808594 C 53.300781 176.808594 53.050781 176.757812 52.8125 176.660156 C 52.574219 176.5625 52.367188 176.421875 52.183594 176.238281 C 52 176.054688 51.859375 175.84375 51.761719 175.609375 C 51.664062 175.371094 51.613281 175.121094 51.613281 174.863281 C 51.613281 174.605469 51.664062 174.359375 51.761719 174.121094 C 51.859375 173.882812 52 173.671875 52.183594 173.488281 C 52.367188 173.304688 52.574219 173.164062 52.8125 173.066406 C 53.050781 172.96875 53.300781 172.917969 53.558594 172.917969 Z M 53.558594 172.917969 " fill-opacity="0.2" fill-rule="nonzero"/><path fill="#367cff" d="M 54.421875 182.417969 L 127.429688 182.417969 C 127.800781 182.417969 128.160156 182.488281 128.503906 182.632812 C 128.847656 182.773438 129.152344 182.976562 129.414062 183.242188 C 129.679688 183.503906 129.882812 183.808594 130.023438 184.152344 C 130.167969 184.496094 130.238281 184.855469 130.238281 185.226562 L 130.238281 192.171875 C 130.238281 192.546875 130.167969 192.902344 130.023438 193.25 C 129.882812 193.59375 129.679688 193.898438 129.414062 194.160156 C 129.152344 194.425781 128.847656 194.628906 128.503906 194.769531 C 128.160156 194.914062 127.800781 194.984375 127.429688 194.984375 L 54.421875 194.984375 C 54.050781 194.984375 53.691406 194.914062 53.347656 194.769531 C 53.003906 194.628906 52.699219 194.425781 52.4375 194.160156 C 52.175781 193.898438 51.972656 193.59375 51.828125 193.25 C 51.6875 192.902344 51.613281 192.546875 51.613281 192.171875 L 51.613281 185.226562 C 51.613281 184.855469 51.6875 184.496094 51.828125 184.152344 C 51.972656 183.808594 52.175781 183.503906 52.4375 183.242188 C 52.699219 182.976562 53.003906 182.773438 53.347656 182.632812 C 53.691406 182.488281 54.050781 182.417969 54.421875 182.417969 Z M 54.421875 182.417969 " fill-opacity="0.1" fill-rule="nonzero"/><path fill="#367cff" d="M 143.070312 172.917969 L 172.796875 172.917969 C 173.054688 172.917969 173.300781 172.96875 173.539062 173.066406 C 173.777344 173.164062 173.988281 173.304688 174.171875 173.488281 C 174.351562 173.671875 174.492188 173.882812 174.59375 174.121094 C 174.691406 174.359375 174.738281 174.605469 174.738281 174.863281 C 174.738281 175.121094 174.691406 175.371094 174.59375 175.609375 C 174.492188 175.84375 174.351562 176.054688 174.171875 176.238281 C 173.988281 176.421875 173.777344 176.5625 173.539062 176.660156 C 173.300781 176.757812 173.054688 176.808594 172.796875 176.808594 L 143.070312 176.808594 C 142.8125 176.808594 142.566406 176.757812 142.328125 176.660156 C 142.089844 176.5625 141.878906 176.421875 141.695312 176.238281 C 141.515625 176.054688 141.375 175.84375 141.277344 175.609375 C 141.175781 175.371094 141.128906 175.121094 141.128906 174.863281 C 141.128906 174.605469 141.175781 174.359375 141.277344 174.121094 C 141.375 173.882812 141.515625 173.671875 141.695312 173.488281 C 141.878906 173.304688 142.089844 173.164062 142.328125 173.066406 C 142.566406 172.96875 142.8125 172.917969 143.070312 172.917969 Z M 143.070312 172.917969 " fill-opacity="0.2" fill-rule="nonzero"/><path fill="#367cff" d="M 143.9375 182.417969 L 216.945312 182.417969 C 217.316406 182.417969 217.675781 182.488281 218.019531 182.632812 C 218.363281 182.773438 218.664062 182.976562 218.929688 183.242188 C 219.191406 183.503906 219.394531 183.808594 219.539062 184.152344 C 219.679688 184.496094 219.75 184.855469 219.75 185.226562 L 219.75 192.171875 C 219.75 192.546875 219.679688 192.902344 219.539062 193.25 C 219.394531 193.59375 219.191406 193.898438 218.929688 194.160156 C 218.664062 194.425781 218.363281 194.628906 218.019531 194.769531 C 217.675781 194.914062 217.316406 194.984375 216.945312 194.984375 L 143.9375 194.984375 C 143.5625 194.984375 143.207031 194.914062 142.863281 194.769531 C 142.519531 194.628906 142.214844 194.425781 141.949219 194.160156 C 141.6875 193.898438 141.484375 193.59375 141.34375 193.25 C 141.199219 192.902344 141.128906 192.546875 141.128906 192.171875 L 141.128906 185.226562 C 141.128906 184.855469 141.199219 184.496094 141.34375 184.152344 C 141.484375 183.808594 141.6875 183.503906 141.949219 183.242188 C 142.214844 182.976562 142.519531 182.773438 142.863281 182.632812 C 143.207031 182.488281 143.5625 182.417969 143.9375 182.417969 Z M 143.9375 182.417969 " fill-opacity="0.1" fill-rule="nonzero"/><path fill="#367cff" d="M 113.355469 204.773438 L 158.988281 204.773438 C 159.433594 204.773438 159.855469 204.859375 160.265625 205.027344 C 160.675781 205.199219 161.035156 205.441406 161.347656 205.753906 C 161.660156 206.066406 161.902344 206.425781 162.070312 206.835938 C 162.238281 207.242188 162.324219 207.667969 162.324219 208.113281 L 162.324219 214.273438 C 162.324219 214.714844 162.238281 215.140625 162.070312 215.550781 C 161.902344 215.960938 161.660156 216.320312 161.347656 216.632812 C 161.035156 216.945312 160.675781 217.1875 160.265625 217.355469 C 159.855469 217.527344 159.433594 217.609375 158.988281 217.609375 L 113.355469 217.609375 C 112.914062 217.609375 112.488281 217.527344 112.078125 217.355469 C 111.671875 217.1875 111.308594 216.945312 110.996094 216.632812 C 110.683594 216.320312 110.445312 215.960938 110.273438 215.550781 C 110.105469 215.140625 110.019531 214.714844 110.019531 214.273438 L 110.019531 208.113281 C 110.019531 207.667969 110.105469 207.242188 110.273438 206.835938 C 110.445312 206.425781 110.683594 206.066406 110.996094 205.753906 C 111.308594 205.441406 111.671875 205.199219 112.078125 205.027344 C 112.488281 204.859375 112.914062 204.773438 113.355469 204.773438 Z M 113.355469 204.773438 " fill-opacity="0.2" fill-rule="nonzero"/><path fill="#ff9e85" d="M 144.132812 59.433594 L 148.964844 65.148438 L 148.664062 64.167969 C 148.492188 63.507812 148.832031 62.785156 149.480469 62.578125 C 150.171875 62.359375 150.898438 62.765625 151.082031 63.460938 L 153.289062 71.785156 C 153.871094 73.972656 152.601562 76.222656 150.433594 76.859375 C 147.957031 77.582031 145.289062 76.730469 143.6875 74.707031 L 140.152344 70.214844 C 139.773438 69.738281 139.75 69.042969 140.148438 68.582031 C 140.53125 68.136719 141.121094 68.035156 141.597656 68.238281 C 141.605469 68.21875 141.613281 68.203125 141.628906 68.1875 C 141.660156 68.160156 141.699219 68.152344 141.738281 68.164062 L 141.082031 67.332031 C 140.679688 66.828125 140.671875 66.078125 141.125 65.617188 C 141.597656 65.140625 142.324219 65.125 142.808594 65.515625 C 142.8125 65.503906 142.816406 65.492188 142.824219 65.476562 L 142.554688 65.136719 C 142.203125 64.695312 142.175781 63.949219 142.542969 63.519531 C 143.007812 62.96875 143.78125 62.929688 144.292969 63.335938 L 144.308594 63.316406 L 142.28125 60.917969 C 141.84375 60.402344 141.921875 59.621094 142.46875 59.203125 C 142.980469 58.816406 143.71875 58.945312 144.132812 59.433594 Z M 144.132812 59.433594 " fill-opacity="1" fill-rule="nonzero"/><path fill="#0c0c0c" d="M 144.242188 63.46875 C 144.246094 63.480469 144.253906 63.492188 144.265625 63.503906 L 146.261719 65.8125 C 146.304688 65.863281 146.378906 65.867188 146.429688 65.824219 C 146.480469 65.78125 146.484375 65.707031 146.441406 65.65625 L 144.441406 63.347656 C 144.398438 63.300781 144.324219 63.292969 144.277344 63.335938 C 144.238281 63.371094 144.226562 63.421875 144.242188 63.46875 Z M 144.242188 63.46875 " fill-opacity="0.2" fill-rule="nonzero"/><path fill="#0c0c0c" d="M 142.8125 65.570312 C 142.820312 65.582031 142.824219 65.59375 142.835938 65.605469 L 144.390625 67.429688 C 144.433594 67.480469 144.507812 67.488281 144.558594 67.445312 C 144.609375 67.402344 144.613281 67.328125 144.570312 67.277344 L 143.015625 65.449219 C 142.972656 65.402344 142.898438 65.394531 142.847656 65.4375 C 142.808594 65.472656 142.796875 65.523438 142.8125 65.570312 Z M 142.8125 65.570312 " fill-opacity="0.2" fill-rule="nonzero"/><path fill="#0c0c0c" d="M 141.597656 68.316406 C 141.601562 68.332031 141.609375 68.34375 141.621094 68.355469 L 142.375 69.199219 C 142.417969 69.25 142.496094 69.253906 142.542969 69.207031 C 142.59375 69.164062 142.597656 69.089844 142.550781 69.042969 L 141.796875 68.195312 C 141.753906 68.148438 141.679688 68.144531 141.628906 68.1875 C 141.59375 68.21875 141.582031 68.273438 141.597656 68.316406 Z M 141.597656 68.316406 " fill-opacity="0.2" fill-rule="nonzero"/><path fill="#367cff" d="M 202.664062 116.734375 L 160.476562 113.777344 C 157.371094 113.558594 154.667969 111.574219 153.527344 108.671875 L 140.1875 74.707031 L 155.214844 68.792969 L 166.6875 98.011719 L 203.792969 100.609375 Z M 202.664062 116.734375 " fill-opacity="1" fill-rule="nonzero"/><path fill="#367cff" d="M 227.160156 280.910156 C 227.160156 280.910156 225.808594 287.914062 219.257812 288.304688 C 212.707031 288.695312 214.125 293.921875 214.125 293.921875 L 239.164062 293.921875 L 239.164062 281.398438 Z M 227.160156 280.910156 " fill-opacity="1" fill-rule="nonzero"/><path fill="#262626" d="M 234.882812 153.117188 C 234.882812 153.117188 234.804688 151.011719 234.820312 155.789062 C 234.882812 173.609375 235.191406 193.960938 235.945312 205.871094 C 237.160156 225.015625 240.269531 285.378906 240.269531 285.378906 L 223.816406 285.242188 L 207.867188 152.394531 L 234.882812 153.121094 Z M 234.882812 153.117188 " fill-opacity="1" fill-rule="nonzero"/><path fill="#0a0a0a" d="M 216.300781 174.132812 C 216.300781 174.132812 215.621094 187.0625 215.496094 190.097656 C 215.203125 197.117188 215.101562 204.386719 215.101562 212.628906 L 212.507812 191.023438 C 212.507812 191.023438 214.40625 184.25 216.300781 174.132812 Z M 216.300781 174.132812 " fill-opacity="1" fill-rule="nonzero"/><path fill="#367cff" d="M 197.867188 280.910156 C 197.867188 280.910156 196.519531 287.914062 189.964844 288.304688 C 183.414062 288.695312 184.832031 293.921875 184.832031 293.921875 L 209.875 293.921875 L 209.875 281.398438 C 209.875 281.398438 197.867188 280.910156 197.867188 280.910156 Z M 197.867188 280.910156 " fill-opacity="1" fill-rule="nonzero"/><path fill="#262626" d="M 189.902344 154.503906 C 189.902344 154.503906 188.445312 215.402344 188.65625 218.378906 L 194.777344 284.917969 L 210.957031 285.21875 L 209.382812 215.972656 C 209.382812 215.972656 210.492188 196.871094 215.105469 179.132812 C 217.46875 170.03125 218.875 160.707031 219.339844 151.3125 C 219.339844 151.3125 189.902344 154.503906 189.902344 154.503906 Z M 189.902344 154.503906 " fill-opacity="1" fill-rule="nonzero"/><path fill="#333333" d="M 235.0625 153.117188 L 235.117188 153.121094 C 235.117188 153.121094 235.078125 152.082031 235.0625 153.117188 Z M 235.0625 153.117188 " fill-opacity="1" fill-rule="nonzero"/><path fill="#367cff" d="M 187.585938 120.699219 C 187.925781 124.691406 189.574219 149.585938 189.902344 154.503906 L 234.863281 154.503906 C 235.117188 150.070312 236.257812 130.683594 237.222656 122.015625 C 238.140625 113.742188 239.945312 109.601562 238.625 107.152344 C 236.464844 103.15625 230.558594 100.847656 226.53125 100.300781 C 224.074219 99.96875 220.378906 99.730469 220.378906 99.730469 C 220.378906 99.730469 220.0625 106.070312 212.597656 106.421875 C 202.4375 106.902344 203.113281 99.730469 203.066406 99.730469 C 201.417969 99.730469 191.832031 100.503906 189.710938 102.136719 C 186.007812 104.996094 186.863281 112.242188 187.585938 120.699219 Z M 187.585938 120.699219 " fill-opacity="1" fill-rule="nonzero"/><path fill="#0c0c0c" d="M 186.964844 115.699219 C 186.886719 115.699219 186.820312 115.636719 186.816406 115.558594 L 186.453125 109.222656 C 186.449219 109.136719 186.511719 109.066406 186.59375 109.0625 C 186.671875 109.058594 186.746094 109.121094 186.75 109.203125 L 187.113281 115.539062 C 187.117188 115.625 187.054688 115.695312 186.972656 115.699219 C 186.96875 115.699219 186.964844 115.699219 186.964844 115.699219 Z M 186.964844 115.699219 " fill-opacity="1" fill-rule="nonzero"/><path fill="#367cff" d="M 244.585938 154.242188 C 247.097656 154.242188 249.492188 153.089844 251.054688 151.082031 C 252.804688 148.839844 253.269531 145.851562 252.289062 143.179688 C 251.824219 141.921875 240.933594 113.054688 238.859375 107.703125 L 223.507812 113.929688 C 224.675781 116.9375 228.898438 128.335938 232.289062 137.519531 L 226.652344 136.90625 L 224.878906 153.246094 L 243.699219 154.195312 C 243.996094 154.226562 244.292969 154.242188 244.585938 154.242188 Z M 244.585938 154.242188 " fill-opacity="1" fill-rule="nonzero"/><path fill="#ff9e85" d="M 197.707031 99.183594 C 197.757812 99.175781 199.136719 104.371094 209.902344 103.5625 C 217.351562 103.003906 219.167969 97.929688 219.339844 97.929688 C 218.539062 97.757812 217.234375 97.578125 216.875 97.390625 C 215.703125 96.757812 214.847656 95.988281 214.417969 94.339844 C 214.082031 93.050781 213.910156 88.085938 213.910156 85.597656 L 202.441406 88.175781 C 202.601562 90.984375 203.722656 97.5 199.800781 98.652344 C 199.148438 98.839844 198.445312 99.015625 197.707031 99.183594 Z M 197.707031 99.183594 " fill-opacity="1" fill-rule="nonzero"/><path fill="#ff9e85" d="M 202.839844 93.699219 C 207.359375 94.054688 213.167969 92.144531 214.269531 86.109375 L 215.265625 80.660156 C 216.367188 74.625 214.09375 69.148438 208.414062 68.109375 C 202.738281 67.070312 197.597656 71.1875 196.496094 77.226562 L 196.054688 79.636719 C 195.632812 81.953125 194.773438 93.0625 202.839844 93.699219 Z M 202.839844 93.699219 " fill-opacity="1" fill-rule="nonzero"/><path fill="#0a0a0a" d="M 198.648438 88.15625 C 199.460938 84.074219 199.832031 81.351562 199.789062 78.480469 C 198.644531 76.472656 198.945312 74.167969 199.207031 73.175781 C 198.085938 73.785156 197.617188 73.851562 196.5625 73.851562 C 196.5625 73.851562 198.453125 66.257812 204.878906 64.214844 C 206.058594 63.757812 209.074219 63.175781 213.078125 63.726562 C 216.484375 64.191406 224.882812 66.742188 226.082031 76.203125 C 226.082031 76.203125 226.082031 76.207031 226.082031 76.210938 C 226.121094 76.523438 226.929688 85.242188 228.535156 89.425781 C 230.695312 95.046875 233.730469 96.796875 233.652344 103.285156 C 233.554688 111.628906 218.226562 112.738281 208.984375 112.117188 C 199.738281 111.492188 194.578125 108.449219 194.511719 102.433594 C 194.4375 95.695312 197.023438 96.320312 198.648438 88.15625 Z M 198.648438 88.15625 " fill-opacity="1" fill-rule="nonzero"/><path fill="#0c0c0c" d="M 234.722656 154.5 L 235.824219 122.183594 L 236.125 122.191406 L 235.019531 154.507812 Z M 234.722656 154.5 " fill-opacity="1" fill-rule="nonzero"/><g clip-path="url(#06a33fccc7)"><path fill="#292a2e" d="M 18.429688 294.519531 L 283.09375 294.519531 C 283.21875 294.519531 283.316406 294.421875 283.316406 294.296875 C 283.316406 294.175781 283.21875 294.078125 283.09375 294.078125 L 18.429688 294.078125 C 18.308594 294.078125 18.210938 294.175781 18.210938 294.296875 C 18.210938 294.421875 18.308594 294.519531 18.429688 294.519531 Z M 18.429688 294.519531 " fill-opacity="1" fill-rule="nonzero"/></g></svg>