<svg xmlns="http://www.w3.org/2000/svg" xmlns:xlink="http://www.w3.org/1999/xlink" width="276" zoomAndPan="magnify" viewBox="0 0 206.87999 93.749996" height="125" preserveAspectRatio="xMidYMid meet" version="1.0"><defs><g/><clipPath id="68a99190b0"><path d="M 92 22 L 103.332031 22 L 103.332031 35 L 92 35 Z M 92 22 " clip-rule="nonzero"/></clipPath><clipPath id="2ea1e331c5"><path d="M 0.214844 57 L 15 57 L 15 75 L 0.214844 75 Z M 0.214844 57 " clip-rule="nonzero"/></clipPath><clipPath id="fb7651d758"><path d="M 49 0.0078125 L 83 0.0078125 L 83 20 L 49 20 Z M 49 0.0078125 " clip-rule="nonzero"/></clipPath><clipPath id="e6feaa50e9"><path d="M 0.214844 28 L 12 28 L 12 31 L 0.214844 31 Z M 0.214844 28 " clip-rule="nonzero"/></clipPath><clipPath id="46db311b7c"><path d="M 72 55 L 102 55 L 102 92.628906 L 72 92.628906 Z M 72 55 " clip-rule="nonzero"/></clipPath></defs><g clip-path="url(#68a99190b0)"><path stroke-linecap="round" transform="matrix(0.461036, 0, 0, 0.456918, 0.215265, 0.00767523)" fill="none" stroke-linejoin="round" d="M 201.964508 62.853437 C 208.463123 61.938681 213.995842 56.279163 214.766864 49.764733 C 214.216134 55.381505 217.698442 61.152162 222.917668 63.289442 C 220.240273 63.434777 217.87637 65.281387 216.503781 67.581101 C 215.139665 69.880814 214.622826 72.590885 214.377116 75.258211 C 214.233079 68.649741 208.327558 62.691003 201.964508 62.853437 Z M 201.964508 62.853437 " stroke="#010101" stroke-width="1.5" stroke-opacity="1" stroke-miterlimit="4"/></g><g clip-path="url(#2ea1e331c5)"><path stroke-linecap="round" transform="matrix(0.461036, 0, 0, 0.456918, 0.215265, 0.00767523)" fill="none" stroke-linejoin="round" d="M 1.820731 145.019037 C 10.530739 143.787964 17.944413 136.204893 18.978091 127.467692 C 18.24096 134.990918 22.909456 142.736422 29.907964 145.600377 C 26.323982 145.797007 23.146694 148.267703 21.316575 151.353936 C 19.477984 154.440168 18.79169 158.064995 18.452779 161.638528 C 18.257905 152.781639 10.352811 144.79676 1.820731 145.019037 Z M 1.820731 145.019037 " stroke="#010101" stroke-width="1.5" stroke-opacity="1" stroke-miterlimit="4"/></g><path stroke-linecap="round" transform="matrix(0.461036, 0, 0, 0.456918, 0.215265, 0.00767523)" fill-opacity="1" fill="#ffffff" fill-rule="nonzero" stroke-linejoin="round" d="M 85.794356 149.892036 C 84.726787 154.594052 85.862138 159.757721 88.80219 163.579178 C 91.742241 167.392086 96.444628 169.802938 101.265634 169.973921 C 103.731211 170.050863 118.329794 167.528872 115.864217 149.986076 C 115.838799 149.746701 94.724656 149.994625 85.794356 149.892036 Z M 85.794356 149.892036 " stroke="#010101" stroke-width="1.5" stroke-opacity="1" stroke-miterlimit="4"/><path stroke-linecap="round" transform="matrix(0.461036, 0, 0, 0.456918, 0.215265, 0.00767523)" fill-opacity="1" fill="#7b5ff1" fill-rule="nonzero" stroke-linejoin="round" d="M 96.944522 54.424004 C 96.66492 51.483106 95.953208 48.490914 96.647975 45.618409 C 96.749648 45.2166 96.87674 44.814792 97.139395 44.498474 C 97.402051 44.182157 97.834163 43.968429 98.232383 44.062469 C 98.571294 44.139411 98.833949 44.412983 99.045769 44.695104 C 100.104865 46.080062 100.494612 47.866828 100.681013 49.602299 C 100.858942 51.260829 100.88436 52.945006 101.248689 54.569339 C 102.866988 54.4582 104.434451 54.287218 105.99344 54.107686 C 105.679948 51.816522 105.705366 49.49971 105.451183 47.199997 C 105.188527 44.908832 104.612379 42.583471 103.248263 40.719763 C 101.892619 38.856055 99.604972 37.53949 97.317324 37.821611 C 94.173926 38.206321 92.038788 41.403693 91.513476 44.532671 C 90.979692 47.6531 91.598204 50.850471 91.623622 54.022195 C 93.784178 54.441102 95.758334 54.620633 97.613871 54.65483 C 97.393579 54.594986 97.164814 54.518044 96.944522 54.432553 Z M 96.944522 54.424004 " stroke="#010101" stroke-width="1.5" stroke-opacity="1" stroke-miterlimit="4"/><path stroke-linecap="round" transform="matrix(0.461036, 0, 0, 0.456918, 0.215265, 0.00767523)" fill-opacity="1" fill="#e3e3ff" fill-rule="nonzero" stroke-linejoin="round" d="M 46.133319 151.584762 C 51.437273 150.097215 53.953686 143.377606 55.987151 138.248133 C 57.927415 133.375135 59.308477 128.279858 60.096444 123.090542 C 62.053654 110.249763 60.833575 104.462008 61.680852 91.492992 C 62.528129 78.532524 66.578113 64.751342 76.999621 56.98874 C 86.946653 49.585201 100.723377 49.30308 112.636092 52.731278 C 117.702809 54.193177 122.667852 56.30481 126.666999 59.741557 C 134.919478 66.828778 137.74091 78.2846 138.630551 88.124638 C 139.189754 99.452223 139.748957 110.839652 142.002713 121.962058 C 144.25647 133.084464 146.798301 143.198074 153.474844 151.60186 C 123.464292 157.885464 79.956618 155.320728 46.133319 151.584762 Z M 46.133319 151.584762 " stroke="#010101" stroke-width="1.5" stroke-opacity="1" stroke-miterlimit="4"/><g clip-path="url(#fb7651d758)"><path stroke-linecap="round" transform="matrix(0.461036, 0, 0, 0.456918, 0.215265, 0.00767523)" fill="none" stroke-linejoin="round" d="M 107.077955 14.747534 C 111.280449 9.652258 116.118401 4.787808 122.261159 2.359858 C 129.191885 -0.375861 137.418945 0.410658 143.697267 4.420196 C 147.196522 6.642967 150.187409 10.002772 150.98385 14.072153 C 151.788763 18.141535 149.865444 22.86065 146.027279 24.41659 C 145.493495 24.630318 144.925819 24.784202 144.358144 24.70726 C 142.960136 24.51063 142.121332 22.886297 142.333151 21.49279 C 142.544971 20.099283 143.536285 18.953701 144.603854 18.038945 C 151.263451 12.319584 162.108597 13.396773 168.742776 19.141782 C 175.385428 24.886791 178.147551 34.188235 177.673076 42.959633 " stroke="#010101" stroke-width="1.5" stroke-opacity="1" stroke-miterlimit="4"/></g><path stroke-linecap="round" transform="matrix(0.461036, 0, 0, 0.456918, 0.215265, 0.00767523)" fill-opacity="1" fill="#7b5ff1" fill-rule="nonzero" stroke-linejoin="round" d="M 161.769686 82.764339 C 148.501328 83.166148 136.427631 83.294385 124.904663 83.644899 C 121.363045 83.747488 118.583977 87.440708 117.906155 90.92875 C 117.219861 94.408242 118.999142 98.31519 122.20185 99.828384 C 123.515129 100.45247 124.972445 100.683296 126.421289 100.828632 C 130.76782 101.281735 135.156715 101.127851 139.520192 100.956868 C 146.815247 100.674747 154.110302 100.366979 161.396884 100.033563 C 164.184426 99.905326 167.175314 99.700148 169.352816 97.956127 C 171.343917 96.357441 172.182721 93.673017 172.097993 91.125379 C 171.860755 83.92702 164.557228 82.687397 161.769686 82.764339 Z M 161.769686 82.764339 " stroke="#010101" stroke-width="1.5" stroke-opacity="1" stroke-miterlimit="4"/><path stroke-linecap="round" transform="matrix(0.461036, 0, 0, 0.456918, 0.215265, 0.00767523)" fill-opacity="1" fill="#010101" fill-rule="nonzero" stroke-linejoin="round" d="M 162.989765 110.85675 C 149.721407 111.25001 134.995733 111.087576 127.048274 111.728761 C 122.159486 112.12202 119.804056 115.533119 119.126234 119.012612 C 118.43994 122.500653 120.219221 126.399052 123.421928 127.920795 C 124.735208 128.544881 126.192524 128.767158 127.641368 128.921043 C 131.987899 129.374146 136.376794 129.220262 140.740271 129.049279 C 148.035326 128.767158 155.330381 128.45939 162.616963 128.125974 C 165.404505 127.997738 168.395392 127.792559 170.572894 126.039989 C 172.563995 124.441303 173.4028 121.756879 173.318072 119.209241 C 173.080834 112.010882 165.777307 110.771259 162.989765 110.85675 Z M 162.989765 110.85675 " stroke="#010101" stroke-width="1.5" stroke-opacity="1" stroke-miterlimit="4"/><path stroke-linecap="round" transform="matrix(0.461036, 0, 0, 0.456918, 0.215265, 0.00767523)" fill="none" stroke-linejoin="round" d="M 71.704139 85.619746 C 72.093887 80.926278 72.509053 76.138771 74.415426 71.830014 C 76.313326 67.521257 80.007454 63.708349 84.659005 62.964575 " stroke="#010101" stroke-width="1.5" stroke-opacity="1" stroke-miterlimit="4"/><g clip-path="url(#e6feaa50e9)"><path stroke-linecap="round" transform="matrix(0.461036, 0, 0, 0.456918, 0.215265, 0.00767523)" fill="none" stroke-linejoin="round" d="M 0.753162 62.511472 C 8.446437 63.999019 16.148185 65.495115 23.841461 66.982662 " stroke="#010101" stroke-width="1.5" stroke-opacity="1" stroke-miterlimit="4"/></g><path stroke-linecap="round" transform="matrix(0.461036, 0, 0, 0.456918, 0.215265, 0.00767523)" fill="none" stroke-linejoin="round" d="M 22.612909 17.030149 C 27.476279 21.586831 32.331176 26.152061 37.194547 30.708742 " stroke="#010101" stroke-width="1.5" stroke-opacity="1" stroke-miterlimit="4"/><path stroke-linecap="round" transform="matrix(0.461036, 0, 0, 0.456918, 0.215265, 0.00767523)" fill="none" stroke-linejoin="round" d="M 62.587439 22.142523 C 64.747995 15.970058 66.222257 9.549668 67.001752 3.052337 " stroke="#010101" stroke-width="1.5" stroke-opacity="1" stroke-miterlimit="4"/><path stroke-linecap="round" transform="matrix(0.461036, 0, 0, 0.456918, 0.215265, 0.00767523)" fill-opacity="1" fill="#ffffff" fill-rule="nonzero" stroke-linejoin="round" d="M 157.135081 113.87459 C 153.305389 117.704596 154.881324 126.005792 160.397097 127.792559 C 162.718636 128.544881 165.802725 128.185818 167.68368 127.493339 C 169.107105 126.963294 171.267662 125.535591 172.106466 124.261772 C 175.283755 119.465715 171.606572 113.789099 169.352816 112.438338 C 167.565061 111.369697 161.371466 109.642775 157.135081 113.87459 Z M 157.135081 113.87459 " stroke="#010101" stroke-width="1.5" stroke-opacity="1" stroke-miterlimit="4"/><path stroke-linecap="round" transform="matrix(0.461036, 0, 0, 0.456918, 0.215265, 0.00767523)" fill-opacity="1" fill="#ffffff" fill-rule="nonzero" stroke-linejoin="round" d="M 119.888783 86.124144 C 116.059091 89.962699 117.635026 98.263895 123.1508 100.050662 C 125.463866 100.802984 128.547954 100.443921 130.428909 99.742893 C 131.852335 99.221397 134.012891 97.793694 134.851695 96.519875 C 138.028984 91.723818 134.360275 86.047202 132.098045 84.69644 C 130.318763 83.6278 124.116696 81.900878 119.888783 86.124144 Z M 119.888783 86.124144 " stroke="#010101" stroke-width="1.5" stroke-opacity="1" stroke-miterlimit="4"/><g clip-path="url(#46db311b7c)"><path stroke-linecap="round" transform="matrix(0.461036, 0, 0, 0.456918, 0.215265, 0.00767523)" fill-opacity="1" fill="#ffffff" fill-rule="nonzero" stroke-linejoin="round" d="M 193.991631 201.956182 C 185.417188 194.039696 173.318072 178.283666 164.159007 165.468534 C 161.727322 162.074533 156.821588 155.534456 159.998877 154.722289 C 161.896778 154.243538 163.709951 155.662693 165.192685 156.996355 C 168.819031 160.26212 172.453849 163.519335 176.080195 166.77655 C 169.590053 155.286531 153.246079 125.954498 157.821375 121.773978 C 159.363419 120.363373 161.50703 122.551948 162.455981 124.458401 C 168.293719 136.162148 172.775815 144.292362 178.613553 155.996108 C 174.953317 149.721054 170.674568 138.778179 173.673928 136.803332 C 176.512306 134.939624 177.1054 139.513403 178.681335 142.744971 C 180.265743 145.976539 182.595755 149.515875 184.730893 153.422823 C 180.892728 147.156317 174.758443 135.982616 178.732172 134.68315 C 182.061971 133.605961 186.874504 145.514886 190.551686 150.652908 C 187.238833 146.822902 181.384149 134.725896 184.451292 133.075915 C 187.925128 131.220756 193.788285 142.915953 196.414843 148.669512 C 193.788285 144.677072 187.476071 132.357789 192.00053 131.383189 C 194.466106 130.861693 196.016623 134.324087 197.228229 136.581055 C 208.378395 157.312673 205.319725 170.880128 219.325214 187.644954 " stroke="#010101" stroke-width="1.5" stroke-opacity="1" stroke-miterlimit="4"/></g><path stroke-linecap="round" transform="matrix(0.461036, 0, 0, 0.456918, 0.215265, 0.00767523)" fill="none" stroke-linejoin="round" d="M 195.592985 184.336444 C 194.432215 186.456626 194.449161 189.200894 196.16066 190.910718 C 197.863687 192.629091 200.524137 193.133489 202.896513 192.671837 C 204.430084 192.372617 206.006019 191.603196 206.641477 190.184042 C 207.217625 188.918773 206.929551 187.448324 206.556749 186.114661 C 206.234784 184.977628 205.845037 183.797849 204.99776 182.968584 C 203.811572 181.797355 198.109397 179.719919 195.592985 184.336444 Z M 195.592985 184.336444 " stroke="#010101" stroke-width="1.5" stroke-opacity="1" stroke-miterlimit="4"/><path stroke-linecap="round" transform="matrix(0.461036, 0, 0, 0.456918, 0.215265, 0.00767523)" fill="none" stroke-linejoin="round" d="M 203.277787 182.002534 C 205.362089 180.668871 209.920439 178.069938 212.004741 176.736275 " stroke="#010101" stroke-width="1.5" stroke-opacity="1" stroke-miterlimit="4"/><path stroke-linecap="round" transform="matrix(0.461036, 0, 0, 0.456918, 0.215265, 0.00767523)" fill="none" stroke-linejoin="round" d="M 206.963442 187.157654 C 208.94607 186.106112 212.86049 183.276353 214.614354 181.882846 " stroke="#010101" stroke-width="1.5" stroke-opacity="1" stroke-miterlimit="4"/><path stroke-linecap="round" transform="matrix(0.461036, 0, 0, 0.456918, 0.215265, 0.00767523)" fill="none" stroke-linejoin="round" d="M 186.671158 194.321817 C 189.814555 191.731433 190.687251 190.560204 194.788072 187.473971 " stroke="#010101" stroke-width="1.5" stroke-opacity="1" stroke-miterlimit="4"/><path stroke-linecap="round" transform="matrix(0.461036, 0, 0, 0.456918, 0.215265, 0.00767523)" fill="none" stroke-linejoin="round" d="M 190.941434 198.66477 C 193.762866 196.416352 194.982945 195.07414 197.804378 192.825721 " stroke="#010101" stroke-width="1.5" stroke-opacity="1" stroke-miterlimit="4"/><path stroke-linecap="round" transform="matrix(0.461036, 0, 0, 0.456918, 0.215265, 0.00767523)" fill="none" stroke-linejoin="round" d="M 199.405731 183.661063 L 200.524137 187.431226 C 201.506978 186.80714 202.498292 186.183054 203.481134 185.558968 " stroke="#010101" stroke-width="1.5" stroke-opacity="1" stroke-miterlimit="4"/><g fill="#000000" fill-opacity="1"><g transform="translate(84.126591, 50.261116)"><g><path d="M 3.25 0.15625 L 0.328125 0 L 0.328125 -2.28125 L 3.25 -2.125 C 3.894531 -2.09375 4.359375 -2.203125 4.640625 -2.453125 C 4.929688 -2.710938 5.113281 -3.085938 5.1875 -3.578125 C 5.269531 -4.066406 5.3125 -4.640625 5.3125 -5.296875 L 5.3125 -9.390625 L 1.84375 -9.234375 L 1.84375 -11.515625 L 6.53125 -11.6875 C 6.976562 -11.707031 7.320312 -11.59375 7.5625 -11.34375 C 7.800781 -11.09375 7.921875 -10.742188 7.921875 -10.296875 L 7.921875 -4.40625 C 7.921875 -3.332031 7.785156 -2.441406 7.515625 -1.734375 C 7.253906 -1.035156 6.785156 -0.523438 6.109375 -0.203125 C 5.429688 0.109375 4.476562 0.226562 3.25 0.15625 Z M 3.25 0.15625 "/></g></g></g><g fill="#000000" fill-opacity="1"><g transform="translate(92.869646, 50.261116)"><g><path d="M 0.65625 -4.140625 C 0.65625 -5.097656 0.859375 -5.890625 1.265625 -6.515625 C 1.679688 -7.148438 2.242188 -7.625 2.953125 -7.9375 C 3.660156 -8.257812 4.445312 -8.421875 5.3125 -8.421875 C 6.175781 -8.421875 6.957031 -8.257812 7.65625 -7.9375 C 8.363281 -7.625 8.921875 -7.148438 9.328125 -6.515625 C 9.742188 -5.890625 9.953125 -5.097656 9.953125 -4.140625 C 9.953125 -3.179688 9.742188 -2.378906 9.328125 -1.734375 C 8.921875 -1.097656 8.363281 -0.625 7.65625 -0.3125 C 6.957031 0 6.175781 0.15625 5.3125 0.15625 C 4.445312 0.15625 3.660156 0 2.953125 -0.3125 C 2.242188 -0.625 1.679688 -1.097656 1.265625 -1.734375 C 0.859375 -2.378906 0.65625 -3.179688 0.65625 -4.140625 Z M 3.265625 -4.140625 C 3.265625 -3.441406 3.445312 -2.929688 3.8125 -2.609375 C 4.1875 -2.285156 4.6875 -2.125 5.3125 -2.125 C 5.925781 -2.125 6.414062 -2.285156 6.78125 -2.609375 C 7.15625 -2.929688 7.34375 -3.441406 7.34375 -4.140625 C 7.34375 -4.828125 7.15625 -5.328125 6.78125 -5.640625 C 6.414062 -5.960938 5.925781 -6.125 5.3125 -6.125 C 4.6875 -6.125 4.1875 -5.960938 3.8125 -5.640625 C 3.445312 -5.328125 3.265625 -4.828125 3.265625 -4.140625 Z M 3.265625 -4.140625 "/></g></g></g><g fill="#000000" fill-opacity="1"><g transform="translate(103.475705, 50.261116)"><g><path d="M 3.59375 0 L 0.984375 0 L 0.984375 -12.015625 L 3.59375 -12.015625 L 3.59375 -7.75 L 3.109375 -6.28125 L 3.765625 -6.28125 C 3.898438 -6.644531 4.085938 -6.988281 4.328125 -7.3125 C 4.578125 -7.632812 4.914062 -7.898438 5.34375 -8.109375 C 5.78125 -8.316406 6.335938 -8.421875 7.015625 -8.421875 C 7.804688 -8.421875 8.46875 -8.222656 9 -7.828125 C 9.53125 -7.441406 9.925781 -6.925781 10.1875 -6.28125 C 10.457031 -5.632812 10.59375 -4.921875 10.59375 -4.140625 C 10.59375 -3.359375 10.457031 -2.640625 10.1875 -1.984375 C 9.925781 -1.335938 9.53125 -0.816406 9 -0.421875 C 8.46875 -0.0351562 7.804688 0.15625 7.015625 0.15625 C 6.335938 0.15625 5.78125 0.0546875 5.34375 -0.140625 C 4.914062 -0.347656 4.578125 -0.613281 4.328125 -0.9375 C 4.085938 -1.269531 3.898438 -1.617188 3.765625 -1.984375 L 3.109375 -1.984375 L 3.59375 -0.5 Z M 3.59375 -4.140625 C 3.59375 -3.441406 3.78125 -2.929688 4.15625 -2.609375 C 4.539062 -2.285156 5.082031 -2.125 5.78125 -2.125 C 6.488281 -2.125 7.03125 -2.285156 7.40625 -2.609375 C 7.78125 -2.929688 7.96875 -3.441406 7.96875 -4.140625 C 7.96875 -4.835938 7.78125 -5.34375 7.40625 -5.65625 C 7.03125 -5.96875 6.488281 -6.125 5.78125 -6.125 C 5.082031 -6.125 4.539062 -5.96875 4.15625 -5.65625 C 3.78125 -5.34375 3.59375 -4.835938 3.59375 -4.140625 Z M 3.59375 -4.140625 "/></g></g></g><g fill="#000000" fill-opacity="1"><g transform="translate(114.719108, 50.261116)"><g><path d="M 8.671875 -2.265625 C 8.671875 -1.804688 8.546875 -1.390625 8.296875 -1.015625 C 8.054688 -0.648438 7.65625 -0.363281 7.09375 -0.15625 C 6.539062 0.0507812 5.789062 0.15625 4.84375 0.15625 C 3.320312 0.15625 2.210938 -0.125 1.515625 -0.6875 C 0.828125 -1.257812 0.484375 -2.023438 0.484375 -2.984375 L 3.109375 -2.984375 C 3.109375 -2.671875 3.238281 -2.394531 3.5 -2.15625 C 3.757812 -1.914062 4.234375 -1.796875 4.921875 -1.796875 C 5.265625 -1.796875 5.539062 -1.835938 5.75 -1.921875 C 5.957031 -2.015625 6.0625 -2.160156 6.0625 -2.359375 C 6.0625 -2.578125 5.929688 -2.738281 5.671875 -2.84375 C 5.410156 -2.945312 4.945312 -3.109375 4.28125 -3.328125 C 3.894531 -3.460938 3.5 -3.59375 3.09375 -3.71875 C 2.695312 -3.851562 2.328125 -4.015625 1.984375 -4.203125 C 1.648438 -4.398438 1.378906 -4.648438 1.171875 -4.953125 C 0.960938 -5.253906 0.859375 -5.632812 0.859375 -6.09375 C 0.859375 -6.832031 1.175781 -7.40625 1.8125 -7.8125 C 2.445312 -8.21875 3.332031 -8.421875 4.46875 -8.421875 C 5.40625 -8.421875 6.160156 -8.28125 6.734375 -8 C 7.304688 -7.71875 7.726562 -7.351562 8 -6.90625 C 8.269531 -6.457031 8.40625 -5.960938 8.40625 -5.421875 L 5.78125 -5.421875 C 5.78125 -5.722656 5.664062 -5.96875 5.4375 -6.15625 C 5.21875 -6.351562 4.890625 -6.453125 4.453125 -6.453125 C 3.804688 -6.453125 3.484375 -6.296875 3.484375 -5.984375 C 3.484375 -5.785156 3.671875 -5.613281 4.046875 -5.46875 C 4.429688 -5.320312 4.953125 -5.140625 5.609375 -4.921875 C 6.140625 -4.742188 6.640625 -4.5625 7.109375 -4.375 C 7.578125 -4.1875 7.953125 -3.929688 8.234375 -3.609375 C 8.523438 -3.296875 8.671875 -2.847656 8.671875 -2.265625 Z M 8.671875 -2.265625 "/></g></g></g><g fill="#000000" fill-opacity="1"><g transform="translate(123.723635, 50.261116)"><g/></g></g><g fill="#000000" fill-opacity="1"><g transform="translate(128.299439, 50.261116)"><g><path d="M 8.46875 -2.28125 L 10.15625 -11.515625 L 15.296875 -11.515625 L 15.296875 0 L 12.6875 0 L 12.6875 -9.234375 L 12.28125 -9.234375 L 10.515625 0 L 5.765625 0 L 4 -9.234375 L 3.59375 -9.234375 L 3.59375 0 L 0.984375 0 L 0.984375 -11.515625 L 6.125 -11.515625 L 7.8125 -2.28125 Z M 8.46875 -2.28125 "/></g></g></g><g fill="#000000" fill-opacity="1"><g transform="translate(144.57622, 50.261116)"><g><path d="M 0.65625 -4.234375 C 0.65625 -5.109375 0.835938 -5.859375 1.203125 -6.484375 C 1.578125 -7.109375 2.085938 -7.585938 2.734375 -7.921875 C 3.390625 -8.253906 4.144531 -8.421875 5 -8.421875 C 5.863281 -8.421875 6.617188 -8.257812 7.265625 -7.9375 C 7.921875 -7.613281 8.429688 -7.148438 8.796875 -6.546875 C 9.171875 -5.953125 9.359375 -5.234375 9.359375 -4.390625 L 9.359375 -3.578125 L 3.109375 -3.578125 C 3.109375 -3.109375 3.285156 -2.722656 3.640625 -2.421875 C 3.992188 -2.117188 4.539062 -1.96875 5.28125 -1.96875 C 5.738281 -1.96875 6.128906 -2.046875 6.453125 -2.203125 C 6.773438 -2.367188 6.972656 -2.601562 7.046875 -2.90625 L 9.65625 -2.90625 C 9.613281 -2.613281 9.492188 -2.289062 9.296875 -1.9375 C 9.109375 -1.582031 8.832031 -1.242188 8.46875 -0.921875 C 8.113281 -0.597656 7.671875 -0.335938 7.140625 -0.140625 C 6.617188 0.0546875 6 0.15625 5.28125 0.15625 C 4.21875 0.15625 3.347656 -0.046875 2.671875 -0.453125 C 1.992188 -0.859375 1.488281 -1.394531 1.15625 -2.0625 C 0.820312 -2.738281 0.65625 -3.460938 0.65625 -4.234375 Z M 3.109375 -5.046875 L 6.90625 -5.046875 C 6.90625 -5.367188 6.769531 -5.65625 6.5 -5.90625 C 6.226562 -6.164062 5.726562 -6.296875 5 -6.296875 C 4.269531 -6.296875 3.769531 -6.164062 3.5 -5.90625 C 3.238281 -5.65625 3.109375 -5.367188 3.109375 -5.046875 Z M 3.109375 -5.046875 "/></g></g></g><g fill="#000000" fill-opacity="1"><g transform="translate(154.888117, 50.261116)"><g><path d="M 12.03125 -8.421875 C 12.738281 -8.421875 13.289062 -8.234375 13.6875 -7.859375 C 14.082031 -7.484375 14.363281 -6.976562 14.53125 -6.34375 C 14.695312 -5.71875 14.78125 -5.035156 14.78125 -4.296875 L 14.78125 0 L 12.15625 0 L 12.15625 -4.125 C 12.15625 -4.90625 12.070312 -5.429688 11.90625 -5.703125 C 11.738281 -5.984375 11.414062 -6.125 10.9375 -6.125 C 10.46875 -6.125 10.101562 -5.992188 9.84375 -5.734375 C 9.59375 -5.472656 9.421875 -5.097656 9.328125 -4.609375 C 9.234375 -4.128906 9.1875 -3.554688 9.1875 -2.890625 L 9.1875 0 L 6.5625 0 L 6.5625 -4.125 C 6.5625 -4.90625 6.476562 -5.429688 6.3125 -5.703125 C 6.144531 -5.984375 5.820312 -6.125 5.34375 -6.125 C 4.875 -6.125 4.507812 -5.992188 4.25 -5.734375 C 4 -5.472656 3.828125 -5.097656 3.734375 -4.609375 C 3.640625 -4.128906 3.59375 -3.554688 3.59375 -2.890625 L 3.59375 0 L 0.984375 0 L 0.984375 -8.25 L 3.59375 -8.25 L 3.59375 -7.421875 L 3.109375 -5.953125 L 3.765625 -5.953125 C 3.921875 -6.691406 4.207031 -7.285156 4.625 -7.734375 C 5.039062 -8.191406 5.644531 -8.421875 6.4375 -8.421875 C 7.207031 -8.421875 7.78125 -8.1875 8.15625 -7.71875 C 8.53125 -7.257812 8.773438 -6.671875 8.890625 -5.953125 L 9.359375 -5.953125 C 9.523438 -6.691406 9.8125 -7.285156 10.21875 -7.734375 C 10.632812 -8.191406 11.238281 -8.421875 12.03125 -8.421875 Z M 12.03125 -8.421875 "/></g></g></g><g fill="#000000" fill-opacity="1"><g transform="translate(170.478533, 50.261116)"><g><path d="M 0.65625 -4.140625 C 0.65625 -5.097656 0.859375 -5.890625 1.265625 -6.515625 C 1.679688 -7.148438 2.242188 -7.625 2.953125 -7.9375 C 3.660156 -8.257812 4.445312 -8.421875 5.3125 -8.421875 C 6.175781 -8.421875 6.957031 -8.257812 7.65625 -7.9375 C 8.363281 -7.625 8.921875 -7.148438 9.328125 -6.515625 C 9.742188 -5.890625 9.953125 -5.097656 9.953125 -4.140625 C 9.953125 -3.179688 9.742188 -2.378906 9.328125 -1.734375 C 8.921875 -1.097656 8.363281 -0.625 7.65625 -0.3125 C 6.957031 0 6.175781 0.15625 5.3125 0.15625 C 4.445312 0.15625 3.660156 0 2.953125 -0.3125 C 2.242188 -0.625 1.679688 -1.097656 1.265625 -1.734375 C 0.859375 -2.378906 0.65625 -3.179688 0.65625 -4.140625 Z M 3.265625 -4.140625 C 3.265625 -3.441406 3.445312 -2.929688 3.8125 -2.609375 C 4.1875 -2.285156 4.6875 -2.125 5.3125 -2.125 C 5.925781 -2.125 6.414062 -2.285156 6.78125 -2.609375 C 7.15625 -2.929688 7.34375 -3.441406 7.34375 -4.140625 C 7.34375 -4.828125 7.15625 -5.328125 6.78125 -5.640625 C 6.414062 -5.960938 5.925781 -6.125 5.3125 -6.125 C 4.6875 -6.125 4.1875 -5.960938 3.8125 -5.640625 C 3.445312 -5.328125 3.265625 -4.828125 3.265625 -4.140625 Z M 3.265625 -4.140625 "/></g></g></g><g fill="#000000" fill-opacity="1"><g transform="translate(181.084591, 50.261116)"><g><path d="M 3.59375 0 L 0.984375 0 L 0.984375 -7.015625 C 0.984375 -7.460938 1.101562 -7.804688 1.34375 -8.046875 C 1.59375 -8.285156 1.941406 -8.398438 2.390625 -8.390625 L 7.796875 -8.25 L 7.796875 -5.96875 L 3.59375 -6.0625 Z M 3.59375 0 "/></g></g></g><g fill="#000000" fill-opacity="1"><g transform="translate(189.04322, 50.261116)"><g><path d="M 5.90625 -3.703125 L 7.703125 -8.25 L 10.65625 -8.25 L 6.875 -0.484375 L 6.875 2.0625 C 6.875 2.519531 6.75 2.863281 6.5 3.09375 C 6.257812 3.332031 5.914062 3.445312 5.46875 3.4375 L 1.4375 3.3125 L 1.4375 1.03125 L 4.265625 1.078125 L 4.265625 -0.484375 L 0.484375 -8.25 L 3.4375 -8.25 L 5.25 -3.703125 L 5.25 -2.40625 L 5.90625 -2.40625 Z M 5.90625 -3.703125 "/></g></g></g></svg>