<svg xmlns="http://www.w3.org/2000/svg" xmlns:xlink="http://www.w3.org/1999/xlink" width="630" zoomAndPan="magnify" viewBox="0 0 472.5 299.999988" height="400" preserveAspectRatio="xMidYMid meet" version="1.0"><defs><clipPath id="29d47652f8"><path d="M 71 0.160156 L 299 0.160156 L 299 20 L 71 20 Z M 71 0.160156 " clip-rule="nonzero"/></clipPath><clipPath id="6b25af7356"><path d="M 70 0.160156 L 299 0.160156 L 299 20 L 70 20 Z M 70 0.160156 " clip-rule="nonzero"/></clipPath><clipPath id="1b4c1c3178"><path d="M 0.5 108 L 42 108 L 42 148 L 0.5 148 Z M 0.5 108 " clip-rule="nonzero"/></clipPath><clipPath id="524ebb6c0d"><path d="M 145 298 L 455 298 L 455 299.839844 L 145 299.839844 Z M 145 298 " clip-rule="nonzero"/></clipPath><clipPath id="e1442e0b48"><path d="M 244 143 L 471.75 143 L 471.75 299.839844 L 244 299.839844 Z M 244 143 " clip-rule="nonzero"/></clipPath><clipPath id="b6d5f6ffb8"><path d="M 209 281 L 249 281 L 249 299.839844 L 209 299.839844 Z M 209 281 " clip-rule="nonzero"/></clipPath><clipPath id="0739f87570"><path d="M 167 264 L 203 264 L 203 299.839844 L 167 299.839844 Z M 167 264 " clip-rule="nonzero"/></clipPath><clipPath id="50b9792159"><path d="M 166 264 L 203 264 L 203 299.839844 L 166 299.839844 Z M 166 264 " clip-rule="nonzero"/></clipPath></defs><path stroke-linecap="round" transform="matrix(0.514813, 0, 0, 0.515081, 0.499471, 0.423991)" fill-opacity="1" fill="#000000" fill-rule="nonzero" stroke-linejoin="round" d="M 137.368934 37.042536 L 578.85986 37.042536 L 578.85986 363.0075 L 137.368934 363.0075 Z M 137.368934 37.042536 " stroke="#000000" stroke-width="1.5" stroke-opacity="1" stroke-miterlimit="4"/><g clip-path="url(#29d47652f8)"><path fill="#ffffff" d="M 71.21875 0.808594 L 298.503906 0.808594 L 298.503906 19.503906 L 71.21875 19.503906 Z M 71.21875 0.808594 " fill-opacity="1" fill-rule="nonzero"/></g><g clip-path="url(#6b25af7356)"><path stroke-linecap="round" transform="matrix(0.514813, 0, 0, 0.515081, 0.499471, 0.423991)" fill="none" stroke-linejoin="round" d="M 137.368934 0.746684 L 578.85986 0.746684 L 578.85986 37.042536 L 137.368934 37.042536 Z M 137.368934 0.746684 " stroke="#1b82fb" stroke-width="1.5" stroke-opacity="1" stroke-miterlimit="4"/></g><path stroke-linecap="round" transform="matrix(0.514813, 0, 0, 0.515081, 0.499471, 0.423991)" fill-opacity="1" fill="#ffffff" fill-rule="nonzero" stroke-linejoin="round" d="M 163.243027 50.678128 L 181.036207 50.678128 L 181.036207 60.916197 L 163.243027 60.916197 Z M 163.243027 50.678128 " stroke="#000000" stroke-width="1.5" stroke-opacity="1" stroke-miterlimit="4"/><path stroke-linecap="round" transform="matrix(0.514813, 0, 0, 0.515081, 0.499471, 0.423991)" fill-opacity="1" fill="#ffffff" fill-rule="nonzero" stroke-linejoin="round" d="M 163.243027 74.870307 L 181.036207 74.870307 L 181.036207 85.108376 L 163.243027 85.108376 Z M 163.243027 74.870307 " stroke="#000000" stroke-width="1.5" stroke-opacity="1" stroke-miterlimit="4"/><path stroke-linecap="round" transform="matrix(0.514813, 0, 0, 0.515081, 0.499471, 0.423991)" fill-opacity="1" fill="#ffffff" fill-rule="nonzero" stroke-linejoin="round" d="M 163.243027 99.062486 L 181.036207 99.062486 L 181.036207 109.300555 L 163.243027 109.300555 Z M 163.243027 99.062486 " stroke="#000000" stroke-width="1.5" stroke-opacity="1" stroke-miterlimit="4"/><path stroke-linecap="round" transform="matrix(0.514813, 0, 0, 0.515081, 0.499471, 0.423991)" fill-opacity="1" fill="#ffffff" fill-rule="nonzero" stroke-linejoin="round" d="M 163.243027 123.254665 L 181.036207 123.254665 L 181.036207 133.500318 L 163.243027 133.500318 Z M 163.243027 123.254665 " stroke="#000000" stroke-width="1.5" stroke-opacity="1" stroke-miterlimit="4"/><path stroke-linecap="round" transform="matrix(0.514813, 0, 0, 0.515081, 0.499471, 0.423991)" fill-opacity="1" fill="#ffffff" fill-rule="nonzero" stroke-linejoin="round" d="M 163.243027 147.446844 L 181.036207 147.446844 L 181.036207 157.692497 L 163.243027 157.692497 Z M 163.243027 147.446844 " stroke="#000000" stroke-width="1.5" stroke-opacity="1" stroke-miterlimit="4"/><path stroke-linecap="round" transform="matrix(0.514813, 0, 0, 0.515081, 0.499471, 0.423991)" fill-opacity="1" fill="#ffffff" fill-rule="nonzero" stroke-linejoin="round" d="M 163.243027 171.639022 L 181.036207 171.639022 L 181.036207 181.884676 L 163.243027 181.884676 Z M 163.243027 171.639022 " stroke="#000000" stroke-width="1.5" stroke-opacity="1" stroke-miterlimit="4"/><path stroke-linecap="round" transform="matrix(0.514813, 0, 0, 0.515081, 0.499471, 0.423991)" fill-opacity="1" fill="#ffffff" fill-rule="nonzero" stroke-linejoin="round" d="M 163.243027 195.838785 L 181.036207 195.838785 L 181.036207 206.076855 L 163.243027 206.076855 Z M 163.243027 195.838785 " stroke="#000000" stroke-width="1.5" stroke-opacity="1" stroke-miterlimit="4"/><path stroke-linecap="round" transform="matrix(0.514813, 0, 0, 0.515081, 0.499471, 0.423991)" fill-opacity="1" fill="#ffffff" fill-rule="nonzero" stroke-linejoin="round" d="M 163.243027 222.207502 L 181.036207 222.207502 L 181.036207 232.445571 L 163.243027 232.445571 Z M 163.243027 222.207502 " stroke="#000000" stroke-width="1.5" stroke-opacity="1" stroke-miterlimit="4"/><path stroke-linecap="round" transform="matrix(0.514813, 0, 0, 0.515081, 0.499471, 0.423991)" fill-opacity="1" fill="#ffffff" fill-rule="nonzero" stroke-linejoin="round" d="M 163.243027 246.399681 L 181.036207 246.399681 L 181.036207 256.63775 L 163.243027 256.63775 Z M 163.243027 246.399681 " stroke="#000000" stroke-width="1.5" stroke-opacity="1" stroke-miterlimit="4"/><path stroke-linecap="round" transform="matrix(0.514813, 0, 0, 0.515081, 0.499471, 0.423991)" fill-opacity="1" fill="#ffffff" fill-rule="nonzero" stroke-linejoin="round" d="M 163.243027 270.59186 L 181.036207 270.59186 L 181.036207 280.829929 L 163.243027 280.829929 Z M 163.243027 270.59186 " stroke="#000000" stroke-width="1.5" stroke-opacity="1" stroke-miterlimit="4"/><path stroke-linecap="round" transform="matrix(0.514813, 0, 0, 0.515081, 0.499471, 0.423991)" fill-opacity="1" fill="#ffffff" fill-rule="nonzero" stroke-linejoin="round" d="M 163.243027 294.784039 L 181.036207 294.784039 L 181.036207 305.029692 L 163.243027 305.029692 Z M 163.243027 294.784039 " stroke="#000000" stroke-width="1.5" stroke-opacity="1" stroke-miterlimit="4"/><path stroke-linecap="round" transform="matrix(0.514813, 0, 0, 0.515081, 0.499471, 0.423991)" fill-opacity="1" fill="#ffffff" fill-rule="nonzero" stroke-linejoin="round" d="M 163.243027 318.976218 L 181.036207 318.976218 L 181.036207 329.221871 L 163.243027 329.221871 Z M 163.243027 318.976218 " stroke="#000000" stroke-width="1.5" stroke-opacity="1" stroke-miterlimit="4"/><path stroke-linecap="round" transform="matrix(0.514813, 0, 0, 0.515081, 0.499471, 0.423991)" fill-opacity="1" fill="#ffffff" fill-rule="nonzero" stroke-linejoin="round" d="M 163.243027 343.168397 L 181.036207 343.168397 L 181.036207 353.41405 L 163.243027 353.41405 Z M 163.243027 343.168397 " stroke="#000000" stroke-width="1.5" stroke-opacity="1" stroke-miterlimit="4"/><path stroke-linecap="round" transform="matrix(0.514813, 0, 0, 0.515081, 0.499471, 0.423991)" fill-opacity="1" fill="#1b82fb" fill-rule="nonzero" stroke-linejoin="round" d="M 211.758847 50.678128 L 354.073942 50.678128 L 354.073942 60.916197 L 211.758847 60.916197 Z M 211.758847 50.678128 " stroke="#000000" stroke-width="1.5" stroke-opacity="1" stroke-miterlimit="4"/><path stroke-linecap="round" transform="matrix(0.514813, 0, 0, 0.515081, 0.499471, 0.423991)" fill-opacity="1" fill="#ffffff" fill-rule="nonzero" stroke-linejoin="round" d="M 253.809937 74.870307 L 334.664578 74.870307 L 334.664578 85.108376 L 253.809937 85.108376 Z M 253.809937 74.870307 " stroke="#000000" stroke-width="1.5" stroke-opacity="1" stroke-miterlimit="4"/><path stroke-linecap="round" transform="matrix(0.514813, 0, 0, 0.515081, 0.499471, 0.423991)" fill-opacity="1" fill="#1b82fb" fill-rule="nonzero" stroke-linejoin="round" d="M 347.601625 74.870307 L 493.149084 74.870307 L 493.149084 85.108376 L 347.601625 85.108376 Z M 347.601625 74.870307 " stroke="#000000" stroke-width="1.5" stroke-opacity="1" stroke-miterlimit="4"/><path stroke-linecap="round" transform="matrix(0.514813, 0, 0, 0.515081, 0.499471, 0.423991)" fill-opacity="1" fill="#1b82fb" fill-rule="nonzero" stroke-linejoin="round" d="M 253.809937 123.254665 L 302.325757 123.254665 L 302.325757 133.500318 L 253.809937 133.500318 Z M 253.809937 123.254665 " stroke="#000000" stroke-width="1.5" stroke-opacity="1" stroke-miterlimit="4"/><path stroke-linecap="round" transform="matrix(0.514813, 0, 0, 0.515081, 0.499471, 0.423991)" fill-opacity="1" fill="#1b82fb" fill-rule="nonzero" stroke-linejoin="round" d="M 473.747309 123.254665 L 522.263129 123.254665 L 522.263129 133.500318 L 473.747309 133.500318 Z M 473.747309 123.254665 " stroke="#000000" stroke-width="1.5" stroke-opacity="1" stroke-miterlimit="4"/><path stroke-linecap="round" transform="matrix(0.514813, 0, 0, 0.515081, 0.499471, 0.423991)" fill-opacity="1" fill="#ffffff" fill-rule="nonzero" stroke-linejoin="round" d="M 315.262803 123.254665 L 460.810263 123.254665 L 460.810263 133.500318 L 315.262803 133.500318 Z M 315.262803 123.254665 " stroke="#000000" stroke-width="1.5" stroke-opacity="1" stroke-miterlimit="4"/><path stroke-linecap="round" transform="matrix(0.514813, 0, 0, 0.515081, 0.499471, 0.423991)" fill-opacity="1" fill="#ffffff" fill-rule="nonzero" stroke-linejoin="round" d="M 253.809937 99.062486 L 269.979348 99.062486 L 269.979348 109.300555 L 253.809937 109.300555 Z M 253.809937 99.062486 " stroke="#000000" stroke-width="1.5" stroke-opacity="1" stroke-miterlimit="4"/><path stroke-linecap="round" transform="matrix(0.514813, 0, 0, 0.515081, 0.499471, 0.423991)" fill-opacity="1" fill="#1b82fb" fill-rule="nonzero" stroke-linejoin="round" d="M 282.916394 99.062486 L 428.463854 99.062486 L 428.463854 109.300555 L 282.916394 109.300555 Z M 282.916394 99.062486 " stroke="#000000" stroke-width="1.5" stroke-opacity="1" stroke-miterlimit="4"/><path stroke-linecap="round" transform="matrix(0.514813, 0, 0, 0.515081, 0.499471, 0.423991)" fill-opacity="1" fill="#ffffff" fill-rule="nonzero" stroke-linejoin="round" d="M 253.809937 147.446844 L 318.495168 147.446844 L 318.495168 157.692497 L 253.809937 157.692497 Z M 253.809937 147.446844 " stroke="#000000" stroke-width="1.5" stroke-opacity="1" stroke-miterlimit="4"/><path stroke-linecap="round" transform="matrix(0.514813, 0, 0, 0.515081, 0.499471, 0.423991)" fill-opacity="1" fill="#1b82fb" fill-rule="nonzero" stroke-linejoin="round" d="M 331.432214 147.446844 L 493.149084 147.446844 L 493.149084 157.692497 L 331.432214 157.692497 Z M 331.432214 147.446844 " stroke="#000000" stroke-width="1.5" stroke-opacity="1" stroke-miterlimit="4"/><path stroke-linecap="round" transform="matrix(0.514813, 0, 0, 0.515081, 0.499471, 0.423991)" fill-opacity="1" fill="#ffffff" fill-rule="nonzero" stroke-linejoin="round" d="M 253.809937 195.838785 L 302.325757 195.838785 L 302.325757 206.076855 L 253.809937 206.076855 Z M 253.809937 195.838785 " stroke="#000000" stroke-width="1.5" stroke-opacity="1" stroke-miterlimit="4"/><path stroke-linecap="round" transform="matrix(0.514813, 0, 0, 0.515081, 0.499471, 0.423991)" fill-opacity="1" fill="#ffffff" fill-rule="nonzero" stroke-linejoin="round" d="M 457.57031 195.838785 L 522.263129 195.838785 L 522.263129 206.076855 L 457.57031 206.076855 Z M 457.57031 195.838785 " stroke="#000000" stroke-width="1.5" stroke-opacity="1" stroke-miterlimit="4"/><path stroke-linecap="round" transform="matrix(0.514813, 0, 0, 0.515081, 0.499471, 0.423991)" fill-opacity="1" fill="#1b82fb" fill-rule="nonzero" stroke-linejoin="round" d="M 315.262803 195.838785 L 444.633264 195.838785 L 444.633264 206.076855 L 315.262803 206.076855 Z M 315.262803 195.838785 " stroke="#000000" stroke-width="1.5" stroke-opacity="1" stroke-miterlimit="4"/><path stroke-linecap="round" transform="matrix(0.514813, 0, 0, 0.515081, 0.499471, 0.423991)" fill-opacity="1" fill="#ffffff" fill-rule="nonzero" stroke-linejoin="round" d="M 253.809937 171.639022 L 367.010988 171.639022 L 367.010988 181.884676 L 253.809937 181.884676 Z M 253.809937 171.639022 " stroke="#000000" stroke-width="1.5" stroke-opacity="1" stroke-miterlimit="4"/><path stroke-linecap="round" transform="matrix(0.514813, 0, 0, 0.515081, 0.499471, 0.423991)" fill-opacity="1" fill="#ffffff" fill-rule="nonzero" stroke-linejoin="round" d="M 379.948034 171.639022 L 460.810263 171.639022 L 460.810263 181.884676 L 379.948034 181.884676 Z M 379.948034 171.639022 " stroke="#000000" stroke-width="1.5" stroke-opacity="1" stroke-miterlimit="4"/><path stroke-linecap="round" transform="matrix(0.514813, 0, 0, 0.515081, 0.499471, 0.423991)" fill-opacity="1" fill="#000000" fill-rule="nonzero" stroke-linejoin="round" d="M 211.758847 222.207502 L 321.727532 222.207502 L 321.727532 232.445571 L 211.758847 232.445571 Z M 211.758847 222.207502 " stroke="#000000" stroke-width="1.5" stroke-opacity="1" stroke-miterlimit="4"/><path stroke-linecap="round" transform="matrix(0.514813, 0, 0, 0.515081, 0.499471, 0.423991)" fill-opacity="1" fill="#ffffff" fill-rule="nonzero" stroke-linejoin="round" d="M 253.809937 246.399681 L 350.841577 246.399681 L 350.841577 256.63775 L 253.809937 256.63775 Z M 253.809937 246.399681 " stroke="#000000" stroke-width="1.5" stroke-opacity="1" stroke-miterlimit="4"/><path stroke-linecap="round" transform="matrix(0.514813, 0, 0, 0.515081, 0.499471, 0.423991)" fill-opacity="1" fill="#ffffff" fill-rule="nonzero" stroke-linejoin="round" d="M 363.778623 246.399681 L 476.979673 246.399681 L 476.979673 256.63775 L 363.778623 256.63775 Z M 363.778623 246.399681 " stroke="#000000" stroke-width="1.5" stroke-opacity="1" stroke-miterlimit="4"/><path stroke-linecap="round" transform="matrix(0.514813, 0, 0, 0.515081, 0.499471, 0.423991)" fill-opacity="1" fill="#1b82fb" fill-rule="nonzero" stroke-linejoin="round" d="M 253.809937 294.784039 L 302.325757 294.784039 L 302.325757 305.029692 L 253.809937 305.029692 Z M 253.809937 294.784039 " stroke="#000000" stroke-width="1.5" stroke-opacity="1" stroke-miterlimit="4"/><path stroke-linecap="round" transform="matrix(0.514813, 0, 0, 0.515081, 0.499471, 0.423991)" fill-opacity="1" fill="#1b82fb" fill-rule="nonzero" stroke-linejoin="round" d="M 473.747309 294.784039 L 522.263129 294.784039 L 522.263129 305.029692 L 473.747309 305.029692 Z M 473.747309 294.784039 " stroke="#000000" stroke-width="1.5" stroke-opacity="1" stroke-miterlimit="4"/><path stroke-linecap="round" transform="matrix(0.514813, 0, 0, 0.515081, 0.499471, 0.423991)" fill-opacity="1" fill="#ffffff" fill-rule="nonzero" stroke-linejoin="round" d="M 315.262803 294.784039 L 460.810263 294.784039 L 460.810263 305.029692 L 315.262803 305.029692 Z M 315.262803 294.784039 " stroke="#000000" stroke-width="1.5" stroke-opacity="1" stroke-miterlimit="4"/><path stroke-linecap="round" transform="matrix(0.514813, 0, 0, 0.515081, 0.499471, 0.423991)" fill-opacity="1" fill="#ffffff" fill-rule="nonzero" stroke-linejoin="round" d="M 253.809937 270.59186 L 269.979348 270.59186 L 269.979348 280.829929 L 253.809937 280.829929 Z M 253.809937 270.59186 " stroke="#000000" stroke-width="1.5" stroke-opacity="1" stroke-miterlimit="4"/><path stroke-linecap="round" transform="matrix(0.514813, 0, 0, 0.515081, 0.499471, 0.423991)" fill-opacity="1" fill="#1b82fb" fill-rule="nonzero" stroke-linejoin="round" d="M 282.916394 270.59186 L 428.463854 270.59186 L 428.463854 280.829929 L 282.916394 280.829929 Z M 282.916394 270.59186 " stroke="#000000" stroke-width="1.5" stroke-opacity="1" stroke-miterlimit="4"/><path stroke-linecap="round" transform="matrix(0.514813, 0, 0, 0.515081, 0.499471, 0.423991)" fill-opacity="1" fill="#ffffff" fill-rule="nonzero" stroke-linejoin="round" d="M 253.809937 318.976218 L 350.841577 318.976218 L 350.841577 329.221871 L 253.809937 329.221871 Z M 253.809937 318.976218 " stroke="#000000" stroke-width="1.5" stroke-opacity="1" stroke-miterlimit="4"/><path stroke-linecap="round" transform="matrix(0.514813, 0, 0, 0.515081, 0.499471, 0.423991)" fill-opacity="1" fill="#ffffff" fill-rule="nonzero" stroke-linejoin="round" d="M 363.778623 318.976218 L 476.979673 318.976218 L 476.979673 329.221871 L 363.778623 329.221871 Z M 363.778623 318.976218 " stroke="#000000" stroke-width="1.5" stroke-opacity="1" stroke-miterlimit="4"/><path stroke-linecap="round" transform="matrix(0.514813, 0, 0, 0.515081, 0.499471, 0.423991)" fill-opacity="1" fill="#ffffff" fill-rule="nonzero" stroke-linejoin="round" d="M 253.809937 343.168397 L 269.979348 343.168397 L 269.979348 353.41405 L 253.809937 353.41405 Z M 253.809937 343.168397 " stroke="#000000" stroke-width="1.5" stroke-opacity="1" stroke-miterlimit="4"/><path stroke-linecap="round" transform="matrix(0.514813, 0, 0, 0.515081, 0.499471, 0.423991)" fill-opacity="1" fill="#1b82fb" fill-rule="nonzero" stroke-linejoin="round" d="M 282.916394 343.168397 L 428.463854 343.168397 L 428.463854 353.41405 L 282.916394 353.41405 Z M 282.916394 343.168397 " stroke="#000000" stroke-width="1.5" stroke-opacity="1" stroke-miterlimit="4"/><path stroke-linecap="round" transform="matrix(0.514813, 0, 0, 0.515081, 0.499471, 0.423991)" fill-opacity="1" fill="#ffffff" fill-rule="nonzero" stroke-linejoin="round" d="M 563.092598 44.277438 L 570.369212 44.277438 L 570.369212 356.614394 L 563.092598 356.614394 Z M 563.092598 44.277438 " stroke="#000000" stroke-width="1.5" stroke-opacity="1" stroke-miterlimit="4"/><path stroke-linecap="round" transform="matrix(0.514813, 0, 0, 0.515081, 0.499471, 0.423991)" fill-opacity="1" fill="#000000" fill-rule="nonzero" stroke-linejoin="round" d="M 563.092598 227.326537 L 570.369212 227.326537 L 570.369212 356.614394 L 563.092598 356.614394 Z M 563.092598 227.326537 " stroke="#000000" stroke-width="1.5" stroke-opacity="1" stroke-miterlimit="4"/><g clip-path="url(#1b4c1c3178)"><path fill="#1b82fb" d="M 0.5 108.714844 L 41.535156 108.714844 L 41.535156 147.898438 L 0.5 147.898438 Z M 0.5 108.714844 " fill-opacity="1" fill-rule="nonzero"/></g><path stroke-linecap="round" transform="matrix(0.514813, 0, 0, 0.515081, 0.499471, 0.423991)" fill-opacity="1" fill="#ffffff" fill-rule="nonzero" stroke-linejoin="round" d="M 67.637877 256.630166 L 68.776033 250.57833 C 69.102305 248.849234 67.964148 247.188391 66.241738 246.86229 L 62.212664 246.103914 C 61.673936 246.005325 61.249024 245.588219 61.135209 245.057356 L 60.63442 242.660889 C 60.520604 242.122443 60.740648 241.576412 61.188323 241.273062 L 64.580029 238.952433 C 66.029282 237.966545 66.40108 235.987185 65.40709 234.538688 L 61.931918 229.449988 C 60.937928 228.001491 58.957536 227.629887 57.508283 228.615775 L 54.131752 230.92882 C 53.67649 231.239754 53.084648 231.247338 52.629385 230.943988 L 50.580704 229.609247 C 50.125441 229.31348 49.890222 228.76745 49.988862 228.236587 L 50.747633 224.202029 C 51.073905 222.480517 49.935748 220.812091 48.213338 220.493573 L 42.158345 219.348426 C 40.428347 219.029908 38.766639 220.167472 38.440367 221.888984 L 37.681596 225.915958 C 37.582956 226.454405 37.17322 226.879095 36.634492 226.992851 L 34.236776 227.493379 C 33.705636 227.607136 33.159321 227.387207 32.848225 226.939765 L 30.533973 223.549826 C 29.547571 222.101329 27.567178 221.729725 26.117926 222.723197 L 21.026572 226.196557 C 19.577319 227.190029 19.205521 229.169389 20.199512 230.617886 L 22.513763 234.000241 C 22.817272 234.447683 22.824859 235.046799 22.528939 235.501825 L 21.185914 237.549439 C 20.889993 238.004464 20.343678 238.23956 19.812538 238.133388 L 15.783464 237.382596 C 14.053466 237.056494 12.391758 238.194058 12.065486 239.91557 L 10.92733 245.97499 C 10.608646 247.696503 11.739215 249.357345 13.469212 249.683447 L 17.498287 250.441822 C 18.029426 250.540411 18.454338 250.957518 18.568154 251.48838 L 19.07653 253.892431 C 19.182758 254.423294 18.962715 254.969324 18.51504 255.280258 L 15.130921 257.593303 C 13.681668 258.586775 13.309871 260.558552 14.296273 262.014633 L 17.779032 267.095749 C 18.765434 268.55183 20.745827 268.923434 22.195079 267.929962 L 25.579198 265.616916 C 26.026873 265.305982 26.626302 265.298399 27.081565 265.601749 L 29.130247 266.93649 C 29.585509 267.23984 29.820728 267.778287 29.7145 268.316733 L 28.955729 272.343707 C 28.637045 274.072803 29.767614 275.733646 31.497612 276.059747 L 37.552605 277.19731 C 39.275015 277.523412 40.936724 276.385849 41.262995 274.656752 L 41.999003 270.735951 C 42.112819 270.136834 42.575669 269.666642 43.175098 269.537718 L 45.360359 269.082692 C 45.959788 268.953769 46.574393 269.204033 46.923427 269.70456 L 49.16939 272.99591 C 50.16338 274.451991 52.143772 274.823595 53.593025 273.830123 L 58.676791 270.356763 C 60.126043 269.363291 60.497841 267.383931 59.511439 265.935434 L 57.303415 262.704754 C 56.931617 262.158724 56.92403 261.445851 57.280652 260.892237 L 58.418808 259.155557 C 58.775431 258.601943 59.435562 258.321344 60.080517 258.442684 L 63.927486 259.170724 C 65.649896 259.489242 67.311605 258.359263 67.637877 256.630166 Z M 67.637877 256.630166 " stroke="#000000" stroke-width="1.5" stroke-opacity="1" stroke-miterlimit="4"/><path stroke-linecap="round" transform="matrix(0.514813, 0, 0, 0.515081, 0.499471, 0.423991)" fill-opacity="1" fill="#1b82fb" fill-rule="nonzero" stroke-linejoin="round" d="M 52.87978 248.272868 C 52.87978 249.129833 52.796315 249.979213 52.629385 250.813426 C 52.462456 251.655223 52.219649 252.466685 51.893378 253.262979 C 51.567106 254.05169 51.164957 254.802481 50.686932 255.515354 C 50.208906 256.220644 49.670178 256.88043 49.063162 257.487131 C 48.463733 258.093831 47.803602 258.632278 47.090357 259.110054 C 46.3847 259.580247 45.633517 259.982186 44.836807 260.308288 C 44.047685 260.641973 43.2358 260.884653 42.393564 261.051496 C 41.558916 261.218338 40.709093 261.30176 39.851681 261.30176 C 39.001858 261.30176 38.152034 261.218338 37.309798 261.051496 C 36.47515 260.884653 35.655677 260.641973 34.866556 260.308288 C 34.077434 259.982186 33.32625 259.580247 32.613006 259.110054 C 31.907349 258.632278 31.247218 258.093831 30.640201 257.487131 C 30.033184 256.88043 29.494457 256.220644 29.024019 255.515354 C 28.545993 254.802481 28.143844 254.05169 27.817573 253.262979 C 27.491301 252.466685 27.240907 251.655223 27.073977 250.813426 C 26.907047 249.979213 26.823583 249.129833 26.823583 248.272868 C 26.823583 247.415904 26.907047 246.574107 27.073977 245.73231 C 27.240907 244.890513 27.491301 244.079052 27.817573 243.290341 C 28.143844 242.494047 28.545993 241.743255 29.024019 241.037966 C 29.494457 240.325093 30.033184 239.665306 30.640201 239.058606 C 31.247218 238.459489 31.907349 237.913459 32.613006 237.443266 C 33.32625 236.965489 34.077434 236.56355 34.866556 236.237449 C 35.655677 235.911347 36.47515 235.661083 37.309798 235.494241 C 38.152034 235.327398 39.001858 235.243977 39.851681 235.243977 C 40.709093 235.243977 41.558916 235.327398 42.393564 235.494241 C 43.2358 235.661083 44.047685 235.911347 44.836807 236.237449 C 45.633517 236.56355 46.3847 236.965489 47.090357 237.443266 C 47.803602 237.913459 48.463733 238.459489 49.063162 239.058606 C 49.670178 239.665306 50.208906 240.325093 50.686932 241.037966 C 51.164957 241.743255 51.567106 242.494047 51.893378 243.290341 C 52.219649 244.079052 52.462456 244.890513 52.629385 245.73231 C 52.796315 246.574107 52.87978 247.415904 52.87978 248.272868 Z M 52.87978 248.272868 " stroke="#000000" stroke-width="1.5" stroke-opacity="1" stroke-miterlimit="4"/><path stroke-linecap="round" transform="matrix(0.514813, 0, 0, 0.515081, 0.499471, 0.423991)" fill-opacity="1" fill="#ffffff" fill-rule="nonzero" stroke-linejoin="round" d="M 734.71143 7.390053 L 639.971279 7.390053 L 639.971279 68.590957 L 674.776106 68.590957 L 687.341355 81.15724 L 699.906603 68.590957 L 734.71143 68.590957 Z M 734.71143 7.390053 " stroke="#000000" stroke-width="1.5" stroke-opacity="1" stroke-miterlimit="4"/><path fill="#000000" d="M 352.207031 26.425781 L 358.476562 12.144531 C 358.546875 11.980469 358.707031 11.878906 358.882812 11.878906 L 358.925781 11.878906 C 359.246094 11.878906 359.460938 12.207031 359.332031 12.5 L 353.015625 26.78125 C 352.945312 26.941406 352.785156 27.046875 352.609375 27.046875 C 352.292969 27.046875 352.078125 26.71875 352.207031 26.425781 Z M 352.207031 26.425781 " fill-opacity="1" fill-rule="nonzero"/><path stroke-linecap="round" transform="matrix(0.514813, 0, 0, 0.515081, 0.499471, 0.423991)" fill="none" stroke-linejoin="round" d="M 700.24805 27.479421 L 721.152192 38.377277 L 700.24805 49.282717 " stroke="#000000" stroke-width="1.5" stroke-opacity="1" stroke-miterlimit="4"/><path stroke-linecap="round" transform="matrix(0.514813, 0, 0, 0.515081, 0.499471, 0.423991)" fill="none" stroke-linejoin="round" d="M 674.715405 27.479421 L 653.811263 38.377277 L 674.715405 49.282717 " stroke="#000000" stroke-width="1.5" stroke-opacity="1" stroke-miterlimit="4"/><g clip-path="url(#524ebb6c0d)"><path stroke-linecap="round" transform="matrix(0.514813, 0, 0, 0.515081, 0.499471, 0.423991)" fill="none" stroke-linejoin="round" d="M 282.916394 579.758806 L 881.897835 579.758806 " stroke="#000000" stroke-width="1.5" stroke-opacity="1" stroke-miterlimit="4"/></g><g clip-path="url(#e1442e0b48)"><path stroke-linecap="round" transform="matrix(0.514813, 0, 0, 0.515081, 0.499471, 0.423991)" fill-opacity="1" fill="#ffffff" fill-rule="nonzero" stroke-linejoin="round" d="M 533.819212 580.024237 C 501.457627 580.562684 473.550028 556.105074 474.050817 521.985759 C 474.263273 507.493203 476.114674 490.407003 486.449136 474.192934 C 506.427577 442.849274 555.23173 429.069591 578.465299 398.749738 C 642.968425 314.554888 727.707974 256.387486 801.52122 286.866598 C 905.192106 329.661729 925.246424 435.500615 910.184819 503.784747 C 900.677418 546.852892 868.52829 579.341699 826.591015 580.039405 Z M 533.819212 580.024237 " stroke="#000000" stroke-width="1.5" stroke-opacity="1" stroke-miterlimit="4"/></g><path stroke-linecap="round" transform="matrix(0.514813, 0, 0, 0.515081, 0.499471, 0.423991)" fill-opacity="1" fill="#ffffff" fill-rule="nonzero" stroke-linejoin="round" d="M 729.483498 480.532954 C 729.483498 480.532954 755.243774 446.13304 816.734579 453.178349 " stroke="#000000" stroke-width="1.5" stroke-opacity="1" stroke-miterlimit="4"/><path stroke-linecap="round" transform="matrix(0.514813, 0, 0, 0.515081, 0.499471, 0.423991)" fill-opacity="1" fill="#1b82fb" fill-rule="nonzero" stroke-linejoin="round" d="M 786.269922 191.42504 C 787.931631 199.40315 782.263611 202.542825 781.96769 207.760448 C 781.664182 213.160082 787.00593 217.027797 784.403345 224.475045 C 781.717296 232.142221 775.411908 231.99813 772.49064 236.457378 C 769.569372 240.909042 770.244678 248.583802 766.253542 252.155751 C 762.307933 255.674613 754.780924 254.150279 749.95514 256.584664 C 745.281111 258.935628 742.048746 265.92785 736.691823 267.042662 C 731.327311 268.157474 725.575827 263.030856 720.355482 262.742673 C 714.953033 262.431739 708.655233 266.830317 703.639756 265.169475 C 698.548403 263.485881 696.120336 256.182725 691.66635 253.255395 C 687.212364 250.33565 681.68851 253.369152 675.959789 247.021549 C 671.862426 242.471296 673.964221 235.554911 671.528566 230.724059 C 669.183964 226.052466 662.825463 225.180334 661.072702 217.460071 C 659.866256 212.121107 665.0866 206.342286 665.374933 201.124663 C 665.678442 195.725029 660.404983 191.872481 662.946866 184.410066 C 665.359758 177.311671 671.938303 176.886981 674.859571 172.435317 C 677.78084 167.983652 674.184265 162.273085 681.096669 156.736944 C 686.635698 152.292863 692.561699 154.734832 697.395071 152.300447 C 702.061513 149.957066 700.232875 144.011402 710.658389 141.850032 C 716.015312 140.73522 722.692497 147.674356 727.912842 147.970123 C 733.307704 148.273473 736.433841 141.728692 743.702867 143.715636 C 751.624437 145.877006 751.229876 152.70997 755.683862 155.629715 C 760.137848 158.549461 766.746743 155.993736 771.382834 161.863562 C 776.990152 168.961957 773.090069 174.831783 775.525724 179.662635 C 777.870327 184.334229 784.782731 184.288726 786.269922 191.42504 Z M 786.269922 191.42504 " stroke="#000000" stroke-width="1.5" stroke-opacity="1" stroke-miterlimit="4"/><path stroke-linecap="round" transform="matrix(0.514813, 0, 0, 0.515081, 0.499471, 0.423991)" fill-opacity="1" fill="#fffdfd" fill-rule="nonzero" stroke-linejoin="round" d="M 740.796774 214.555493 C 745.281111 214.487239 748.847335 210.73328 748.771458 206.16786 C 748.69558 201.799617 745.303874 198.280754 741.085107 198.053242 C 737.738927 183.363508 725.606178 172.32156 710.218301 172.564241 C 698.647043 172.738667 694.534504 179.048351 689.063765 188.49771 C 686.172847 193.502989 687.007495 222.821786 690.907579 229.116303 C 693.517751 233.325287 698.19178 236.146444 705.718789 237.382596 L 706.082999 254.468796 C 706.082999 254.468796 705.096597 270.95588 723.026356 270.091332 C 741.20651 269.211616 741.024405 253.240228 741.024405 253.240228 C 741.024405 253.240228 740.493266 216.762366 740.64502 214.555493 C 740.690546 214.555493 740.74366 214.555493 740.796774 214.555493 Z M 740.796774 214.555493 " stroke="#000000" stroke-width="1.5" stroke-opacity="1" stroke-miterlimit="4"/><path stroke-linecap="round" transform="matrix(0.514813, 0, 0, 0.515081, 0.499471, 0.423991)" fill-opacity="1" fill="#000000" fill-rule="nonzero" stroke-linejoin="round" d="M 720.99285 234.28084 L 706.045061 251.253284 L 705.718789 237.382596 C 705.718789 237.382596 710.605275 237.822454 715.104787 236.525632 C 719.596711 235.236393 720.99285 234.28084 720.99285 234.28084 Z M 720.99285 234.28084 " stroke="#000000" stroke-width="1.5" stroke-opacity="1" stroke-miterlimit="4"/><path fill="#1b82fb" d="M 353.40625 100.40625 C 353.40625 100.40625 358.679688 98.636719 361.796875 94.109375 C 361.796875 94.109375 363.140625 97.730469 369.085938 97.144531 C 375.03125 96.558594 375.378906 99.015625 376.632812 101.148438 C 377.890625 103.277344 381.902344 102.464844 381.902344 102.464844 L 388.246094 96.824219 L 379 84.191406 L 355.632812 86.773438 L 354.703125 94.121094 Z M 353.40625 100.40625 " fill-opacity="1" fill-rule="nonzero"/><path stroke-linecap="round" transform="matrix(0.514813, 0, 0, 0.515081, 0.499471, 0.423991)" fill="none" stroke-linejoin="round" d="M 685.505129 194.109689 C 685.505129 194.109689 695.748538 190.674248 701.803531 181.884676 C 701.803531 181.884676 704.413703 188.914817 715.962198 187.777253 C 727.510693 186.63969 728.185999 191.409872 730.621654 195.550602 C 733.064897 199.683749 741.403791 198.075993 741.403791 198.075993 " stroke="#000000" stroke-width="1.5" stroke-opacity="1" stroke-miterlimit="4"/><path fill="#000000" d="M 367.707031 103.707031 L 367.699219 103.632812 C 367.703125 103.527344 367.679688 103.425781 367.632812 103.335938 C 367.601562 103.238281 367.546875 103.15625 367.472656 103.085938 C 367.402344 103.011719 367.320312 102.957031 367.222656 102.925781 C 367.132812 102.878906 367.03125 102.855469 366.925781 102.859375 L 366.71875 102.886719 C 366.589844 102.925781 366.476562 102.992188 366.378906 103.085938 L 366.257812 103.242188 C 366.1875 103.363281 366.152344 103.492188 366.152344 103.632812 L 366.160156 103.707031 C 366.15625 103.8125 366.179688 103.910156 366.226562 104.003906 C 366.257812 104.097656 366.3125 104.183594 366.386719 104.253906 C 366.457031 104.328125 366.539062 104.382812 366.636719 104.414062 C 366.726562 104.460938 366.824219 104.484375 366.933594 104.480469 L 367.136719 104.449219 C 367.269531 104.414062 367.382812 104.347656 367.480469 104.253906 L 367.597656 104.09375 C 367.667969 103.976562 367.703125 103.84375 367.707031 103.707031 Z M 367.707031 103.707031 " fill-opacity="1" fill-rule="nonzero"/><path fill="#000000" d="M 358.726562 104.335938 L 358.722656 104.265625 C 358.726562 104.160156 358.703125 104.058594 358.65625 103.96875 C 358.625 103.871094 358.570312 103.789062 358.496094 103.71875 C 358.425781 103.644531 358.34375 103.589844 358.246094 103.558594 C 358.15625 103.511719 358.054688 103.488281 357.949219 103.492188 L 357.742188 103.519531 C 357.613281 103.558594 357.5 103.625 357.402344 103.71875 L 357.28125 103.875 C 357.210938 103.996094 357.175781 104.125 357.175781 104.265625 L 357.183594 104.339844 C 357.179688 104.445312 357.203125 104.542969 357.25 104.636719 C 357.28125 104.730469 357.335938 104.816406 357.410156 104.882812 C 357.480469 104.960938 357.5625 105.011719 357.65625 105.042969 C 357.75 105.09375 357.847656 105.113281 357.957031 105.109375 L 358.160156 105.082031 C 358.292969 105.046875 358.40625 104.980469 358.5 104.882812 L 358.621094 104.726562 C 358.691406 104.605469 358.726562 104.476562 358.726562 104.335938 Z M 358.726562 104.335938 " fill-opacity="1" fill-rule="nonzero"/><path stroke-linecap="round" transform="matrix(0.514813, 0, 0, 0.515081, 0.499471, 0.423991)" fill="none" stroke-linejoin="round" d="M 701.97046 208.981433 L 701.128224 212.970488 C 700.97647 213.706112 701.613838 214.373483 702.349846 214.236975 L 705.855368 213.592356 " stroke="#000000" stroke-width="1.5" stroke-opacity="1" stroke-miterlimit="4"/><path stroke-linecap="round" transform="matrix(0.514813, 0, 0, 0.515081, 0.499471, 0.423991)" fill="none" stroke-linejoin="round" d="M 710.825318 195.891871 C 710.825318 195.891871 715.871146 194.117273 718.466142 197.469293 " stroke="#000000" stroke-width="1.5" stroke-opacity="1" stroke-miterlimit="4"/><path stroke-linecap="round" transform="matrix(0.514813, 0, 0, 0.515081, 0.499471, 0.423991)" fill="none" stroke-linejoin="round" d="M 716.629917 217.323564 C 716.629917 217.323564 715.119962 222.814202 708.215146 221.896568 " stroke="#000000" stroke-width="1.5" stroke-opacity="1" stroke-miterlimit="4"/><path stroke-linecap="round" transform="matrix(0.514813, 0, 0, 0.515081, 0.499471, 0.423991)" fill="none" stroke-linejoin="round" d="M 691.23385 197.924318 C 691.23385 197.924318 695.118758 194.746724 698.874674 196.703333 " stroke="#000000" stroke-width="1.5" stroke-opacity="1" stroke-miterlimit="4"/><path stroke-linecap="round" transform="matrix(0.514813, 0, 0, 0.515081, 0.499471, 0.423991)" fill-opacity="1" fill="#fdfdff" fill-rule="nonzero" stroke-linejoin="round" d="M 800.170607 381.079589 C 795.602806 382.550837 790.921188 382.626675 786.581018 381.564949 C 786.54308 391.840937 786.497553 398.742154 786.497553 398.742154 L 666.103353 398.49189 L 667.082168 375.945386 L 662.392963 387.055588 C 657.809986 395.852744 648.28741 400.433332 638.992464 399.212347 L 541.687667 384.962471 L 548.516606 349.053391 L 625.228358 349.500832 L 656.375909 273.981798 C 658.052793 269.924489 660.435334 266.17053 663.606997 263.129445 C 668.129272 258.79912 673.873169 255.864207 679.761232 255.212004 C 679.761232 255.212004 682.462457 255.052745 683.464035 255.113415 L 706.082999 254.825233 C 706.060236 257.244451 706.682428 270.872459 723.018769 270.091332 C 738.247303 269.363291 740.591906 258.033161 740.948528 254.370207 L 767.4524 254.028938 C 776.557653 253.93035 784.790318 256.614999 789.562988 261.324511 C 794.100439 265.798926 796.84719 272.829067 798.873109 279.100833 L 816.028922 348.833462 L 816.279316 349.622172 C 820.520846 362.76482 813.297346 376.840269 800.170607 381.079589 Z M 800.170607 381.079589 " stroke="#000000" stroke-width="1.5" stroke-opacity="1" stroke-miterlimit="4"/><path fill="#fffdfd" d="M 282.464844 182.441406 C 282.464844 182.441406 274.175781 181.042969 271.867188 179.851562 C 270.824219 179.3125 268.859375 176.875 268 175.835938 C 267.140625 174.792969 265.585938 174.324219 265.636719 175.449219 C 265.648438 175.644531 265.816406 176.070312 266.054688 176.585938 C 265.953125 176.460938 265.859375 176.339844 265.78125 176.226562 C 263.761719 173.277344 261.988281 173.289062 262.03125 174.496094 C 262.039062 174.710938 262.203125 175.148438 262.457031 175.707031 C 261.304688 174.378906 260.113281 173.472656 259.207031 174.296875 C 258.824219 174.644531 259.410156 175.941406 260.265625 177.472656 C 260.085938 177.3125 259.902344 177.171875 259.71875 177.0625 C 259.140625 176.714844 258.484375 176.863281 258.480469 177.296875 C 258.464844 178.796875 260.820312 183.78125 264.816406 187.3125 C 265.488281 187.90625 266.949219 188.847656 268.710938 189.894531 C 267.386719 190.117188 266.03125 190.582031 265.679688 191.53125 C 265.148438 192.964844 266.574219 193.09375 269.984375 192.730469 C 270.941406 192.628906 272.59375 192.773438 274.085938 192.957031 C 277.257812 194.703125 279.820312 196.128906 279.820312 196.128906 L 282.460938 182.441406 Z M 282.464844 182.441406 " fill-opacity="1" fill-rule="nonzero"/><path stroke-linecap="round" transform="matrix(0.514813, 0, 0, 0.515081, 0.499471, 0.423991)" fill="none" stroke-linejoin="round" d="M 531.77053 373.54892 C 531.77053 373.54892 527.475886 372.927052 523.461987 373.351742 C 516.837916 374.057031 514.068402 373.806767 515.10033 371.023529 C 516.534407 367.140647 526.595711 367.451581 526.595711 367.451581 " stroke="#000000" stroke-width="1.5" stroke-opacity="1" stroke-miterlimit="4"/><path stroke-linecap="round" transform="matrix(0.514813, 0, 0, 0.515081, 0.499471, 0.423991)" fill-opacity="1" fill="#ffffff" fill-rule="nonzero" stroke-linejoin="round" d="M 542.567842 379.949609 C 542.567842 379.949609 518.143002 367.004139 513.423446 362.833074 C 505.661219 355.977359 500.228418 345.959218 501.11618 343.388325 C 501.465215 342.379686 502.398503 342.258346 503.521484 342.9333 C 503.802229 343.100143 504.090562 343.312488 504.371308 343.540001 " stroke="#000000" stroke-width="1.5" stroke-opacity="1" stroke-miterlimit="4"/><path stroke-linecap="round" transform="matrix(0.514813, 0, 0, 0.515081, 0.499471, 0.423991)" fill="none" stroke-linejoin="round" d="M 519.121817 361.14948 C 519.121817 361.14948 516.98967 359.746485 515.616294 358.8061 C 513.097175 357.077003 510.22902 353.35338 507.929944 349.440162 C 505.039026 344.541056 501.11618 338.97458 502.527494 337.564001 C 504.295431 335.796986 506.465516 337.48058 508.840469 340.301737 " stroke="#000000" stroke-width="1.5" stroke-opacity="1" stroke-miterlimit="4"/><path stroke-linecap="round" transform="matrix(0.514813, 0, 0, 0.515081, 0.499471, 0.423991)" fill="none" stroke-linejoin="round" d="M 522.096199 356.932912 C 522.096199 356.932912 518.271993 354.38477 516.769626 352.898354 C 514.000112 350.160619 508.081698 339.808793 508.013409 337.950773 C 507.929944 335.607393 511.367177 335.584641 515.297611 341.310376 C 515.449365 341.530305 515.623882 341.765402 515.821163 342.008082 " stroke="#000000" stroke-width="1.5" stroke-opacity="1" stroke-miterlimit="4"/><path stroke-linecap="round" transform="matrix(0.514813, 0, 0, 0.515081, 0.499471, 0.423991)" fill="none" stroke-linejoin="round" d="M 525.055406 353.087948 C 525.055406 353.087948 519.986816 349.591837 519.015589 348.006832 C 518.051949 346.421827 515.077567 340.969108 515.024453 339.801209 C 514.918225 337.617088 517.938134 338.527138 519.60743 340.552001 C 521.276726 342.56928 525.093345 347.301543 527.119263 348.348101 C 531.6036 350.661147 547.704721 353.376131 547.704721 353.376131 L 542.575429 379.949609 " stroke="#000000" stroke-width="1.5" stroke-opacity="1" stroke-miterlimit="4"/><path stroke-linecap="round" transform="matrix(0.514813, 0, 0, 0.515081, 0.499471, 0.423991)" fill="none" stroke-linejoin="round" d="M 667.07458 375.937803 L 669.927559 309.883295 " stroke="#000000" stroke-width="1.5" stroke-opacity="1" stroke-miterlimit="4"/><path fill="#fffdfd" d="M 332.144531 157.945312 C 334.953125 157.816406 336.992188 157.820312 339.378906 158.007812 C 338.9375 158.589844 338.441406 159.273438 338.054688 159.886719 C 337.863281 160.1875 337.761719 160.789062 337.714844 161.453125 C 336.640625 161.285156 335.917969 161.414062 335.355469 162.113281 C 334.75 162.863281 335.941406 163.660156 337.832031 164.558594 C 338.179688 166.203125 338.992188 166.25 339.578125 165.339844 C 340.019531 165.535156 340.476562 165.730469 340.941406 165.933594 C 342.894531 166.777344 354.726562 174.59375 354.726562 174.59375 L 368.128906 162.789062 C 364.789062 161.511719 348.660156 155.375 344.984375 154.890625 C 338.234375 153.996094 333.375 155.433594 331.667969 156.308594 C 330.867188 156.71875 331.367188 157.980469 332.144531 157.945312 Z M 332.144531 157.945312 " fill-opacity="1" fill-rule="nonzero"/><path stroke-linecap="round" transform="matrix(0.514813, 0, 0, 0.515081, 0.499471, 0.423991)" fill="none" stroke-linejoin="round" d="M 655.131524 318.59703 C 651.527362 316.883101 649.273812 315.351183 650.442319 313.910269 C 651.519774 312.575528 652.900737 312.310097 654.934244 312.613447 " stroke="#000000" stroke-width="1.5" stroke-opacity="1" stroke-miterlimit="4"/><path stroke-linecap="round" transform="matrix(0.514813, 0, 0, 0.515081, 0.499471, 0.423991)" fill="none" stroke-linejoin="round" d="M 658.045205 305.916991 C 653.500167 305.568138 649.584908 305.568138 644.205221 305.818402 C 642.695267 305.886656 641.72404 303.437103 643.279521 302.640809 C 646.59535 300.942048 656.026874 298.151226 669.138438 299.887906 C 676.278473 300.828291 707.615717 312.742371 714.103209 315.222259 L 688.069775 338.140367 C 688.069775 338.140367 665.0866 322.965273 661.292745 321.327182 C 660.427746 320.947994 659.570335 320.583974 658.743274 320.219953 " stroke="#000000" stroke-width="1.5" stroke-opacity="1" stroke-miterlimit="4"/><path stroke-linecap="round" transform="matrix(0.514813, 0, 0, 0.515081, 0.499471, 0.423991)" fill="none" stroke-linejoin="round" d="M 660.321518 303.285428 C 660.321518 303.285428 657.445776 306.819458 655.685427 309.587529 C 654.759727 311.04361 654.911481 316.283984 655.085998 317.664228 C 655.685427 322.411659 657.923802 322.108308 659.12266 319.249233 C 660.253229 316.557 659.881431 314.160533 661.254807 311.794401 " stroke="#000000" stroke-width="1.5" stroke-opacity="1" stroke-miterlimit="4"/><path stroke-linecap="round" transform="matrix(0.514813, 0, 0, 0.515081, 0.499471, 0.423991)" fill="none" stroke-linejoin="round" d="M 665.913661 303.97555 C 665.913661 303.97555 662.90134 308.328625 661.436912 311.324209 C 660.678141 312.878878 661.156166 317.641477 661.64178 318.945883 C 662.385375 320.947994 663.174497 321.751872 664.509934 320.985913 C 666.41445 319.893852 665.238354 315.396685 666.619318 313.030554 C 667.901641 310.823681 671.968654 305.188951 671.968654 305.188951 " stroke="#000000" stroke-width="1.5" stroke-opacity="1" stroke-miterlimit="4"/><path stroke-linecap="round" transform="matrix(0.514813, 0, 0, 0.515081, 0.499471, 0.423991)" fill="none" stroke-linejoin="round" d="M 668.660412 310.065305 C 667.211159 314.554888 668.463131 316.359822 669.024622 317.368461 C 669.988261 319.08239 671.407163 318.862461 671.968654 317.474634 C 672.712249 315.624198 673.175099 312.279762 673.812467 311.362127 C 675.125141 309.451021 677.894655 306.895296 677.894655 306.895296 " stroke="#000000" stroke-width="1.5" stroke-opacity="1" stroke-miterlimit="4"/><path stroke-linecap="round" transform="matrix(0.514813, 0, 0, 0.515081, 0.499471, 0.423991)" fill-opacity="1" fill="#fdfdff" fill-rule="nonzero" stroke-linejoin="round" d="M 786.57343 381.580116 C 785.670493 381.360187 784.790318 381.087172 783.925319 380.776238 L 685.118156 341.932244 L 697.926211 302.716647 L 763.438502 324.209009 L 786.505141 331.565251 " stroke="#000000" stroke-width="1.5" stroke-opacity="1" stroke-miterlimit="4"/><path stroke-linecap="round" transform="matrix(0.514813, 0, 0, 0.515081, 0.499471, 0.423991)" fill="none" stroke-linejoin="round" d="M 764.629772 324.588196 L 758.650656 303.346098 " stroke="#000000" stroke-width="1.5" stroke-opacity="1" stroke-miterlimit="4"/><path fill="#000000" d="M 412.4375 196.710938 C 410.085938 197.46875 405.441406 196.960938 405.441406 196.960938 L 405.683594 205.808594 L 343.417969 205.679688 L 343.921875 194.066406 L 341.507812 199.789062 C 339.148438 204.320312 334.246094 206.679688 329.460938 206.050781 L 279.101562 198.609375 L 282.574219 180.210938 L 322.375 180.445312 L 338.410156 141.546875 C 339.273438 139.457031 340.5 137.523438 342.132812 135.957031 C 344.460938 133.726562 347.417969 132.214844 350.449219 131.878906 C 350.449219 131.878906 351.839844 131.796875 352.355469 131.828125 L 364 131.679688 C 363.988281 132.925781 364.308594 139.945312 372.71875 139.542969 C 380.558594 139.167969 381.765625 133.332031 381.949219 131.445312 L 395.59375 131.269531 C 400.28125 131.21875 404.519531 132.601562 406.976562 135.027344 C 409.3125 137.332031 410.726562 140.953125 411.769531 144.183594 L 420.601562 180.101562 L 420.730469 180.507812 C 422.914062 187.277344 419.195312 194.527344 412.4375 196.710938 Z M 412.4375 196.710938 " fill-opacity="1" fill-rule="nonzero"/><path stroke-linecap="round" transform="matrix(0.514813, 0, 0, 0.515081, 0.499471, 0.423991)" fill="none" stroke-linejoin="round" d="M 667.021466 377.257376 L 669.927559 309.883295 " stroke="#feffff" stroke-width="1.5" stroke-opacity="1" stroke-miterlimit="4"/><path fill="#fffdfd" d="M 282.464844 182.441406 C 282.464844 182.441406 274.175781 181.042969 271.867188 179.851562 C 270.824219 179.3125 268.859375 176.875 268 175.835938 C 267.140625 174.792969 265.585938 174.324219 265.636719 175.449219 C 265.648438 175.644531 265.816406 176.070312 266.054688 176.585938 C 265.953125 176.460938 265.859375 176.339844 265.78125 176.226562 C 263.761719 173.277344 261.988281 173.289062 262.03125 174.496094 C 262.039062 174.710938 262.203125 175.148438 262.457031 175.707031 C 261.304688 174.378906 260.113281 173.472656 259.207031 174.296875 C 258.824219 174.644531 259.410156 175.941406 260.265625 177.472656 C 260.085938 177.3125 259.902344 177.171875 259.71875 177.0625 C 259.140625 176.714844 258.484375 176.863281 258.480469 177.296875 C 258.464844 178.796875 260.820312 183.78125 264.816406 187.3125 C 265.488281 187.90625 266.949219 188.847656 268.710938 189.894531 C 267.386719 190.117188 266.03125 190.582031 265.679688 191.53125 C 265.148438 192.964844 266.574219 193.09375 269.984375 192.730469 C 270.941406 192.628906 272.59375 192.773438 274.085938 192.957031 C 277.257812 194.703125 279.980469 196.128906 279.980469 196.128906 L 282.460938 182.441406 Z M 282.464844 182.441406 " fill-opacity="1" fill-rule="nonzero"/><path stroke-linecap="round" transform="matrix(0.514813, 0, 0, 0.515081, 0.499471, 0.423991)" fill="none" stroke-linejoin="round" d="M 531.77053 373.54892 C 531.77053 373.54892 527.475886 372.927052 523.461987 373.351742 C 516.837916 374.057031 514.068402 373.806767 515.10033 371.023529 C 516.534407 367.140647 526.595711 367.451581 526.595711 367.451581 " stroke="#000000" stroke-width="1.5" stroke-opacity="1" stroke-miterlimit="4"/><path stroke-linecap="round" transform="matrix(0.514813, 0, 0, 0.515081, 0.499471, 0.423991)" fill-opacity="1" fill="#ffffff" fill-rule="nonzero" stroke-linejoin="round" d="M 542.567842 379.949609 C 542.567842 379.949609 518.143002 367.004139 513.423446 362.833074 C 505.661219 355.977359 500.228418 345.959218 501.11618 343.388325 C 501.465215 342.379686 502.398503 342.258346 503.521484 342.9333 C 503.802229 343.100143 504.090562 343.312488 504.371308 343.540001 " stroke="#000000" stroke-width="1.5" stroke-opacity="1" stroke-miterlimit="4"/><path stroke-linecap="round" transform="matrix(0.514813, 0, 0, 0.515081, 0.499471, 0.423991)" fill="none" stroke-linejoin="round" d="M 519.121817 361.14948 C 519.121817 361.14948 516.98967 359.746485 515.616294 358.8061 C 513.097175 357.077003 510.22902 353.35338 507.929944 349.440162 C 505.039026 344.541056 501.11618 338.97458 502.527494 337.564001 C 504.295431 335.796986 506.465516 337.48058 508.840469 340.301737 " stroke="#000000" stroke-width="1.5" stroke-opacity="1" stroke-miterlimit="4"/><path stroke-linecap="round" transform="matrix(0.514813, 0, 0, 0.515081, 0.499471, 0.423991)" fill="none" stroke-linejoin="round" d="M 522.096199 356.932912 C 522.096199 356.932912 518.271993 354.38477 516.769626 352.898354 C 514.000112 350.160619 508.081698 339.808793 508.013409 337.950773 C 507.929944 335.607393 511.367177 335.584641 515.297611 341.310376 C 515.449365 341.530305 515.623882 341.765402 515.821163 342.008082 " stroke="#000000" stroke-width="1.5" stroke-opacity="1" stroke-miterlimit="4"/><path stroke-linecap="round" transform="matrix(0.514813, 0, 0, 0.515081, 0.499471, 0.423991)" fill="none" stroke-linejoin="round" d="M 525.055406 353.087948 C 525.055406 353.087948 519.986816 349.591837 519.015589 348.006832 C 518.051949 346.421827 515.077567 340.969108 515.024453 339.801209 C 514.918225 337.617088 517.938134 338.527138 519.60743 340.552001 C 521.276726 342.56928 525.093345 347.301543 527.119263 348.348101 C 531.6036 350.661147 547.704721 353.376131 547.704721 353.376131 L 542.575429 379.949609 " stroke="#000000" stroke-width="1.5" stroke-opacity="1" stroke-miterlimit="4"/><path fill="#fffdfd" d="M 332.144531 157.945312 C 334.953125 157.816406 336.992188 157.820312 339.378906 158.007812 C 338.9375 158.589844 338.441406 159.273438 338.054688 159.886719 C 337.863281 160.1875 337.761719 160.789062 337.714844 161.453125 C 336.640625 161.285156 335.917969 161.414062 335.355469 162.113281 C 334.75 162.863281 335.941406 163.660156 337.832031 164.558594 C 338.179688 166.203125 338.992188 166.25 339.578125 165.339844 C 340.019531 165.535156 340.476562 165.730469 340.941406 165.933594 C 342.894531 166.777344 354.726562 174.59375 354.726562 174.59375 L 368.128906 162.789062 C 364.789062 161.511719 348.660156 155.375 344.984375 154.890625 C 338.234375 153.996094 333.375 155.433594 331.667969 156.308594 C 330.867188 156.71875 331.367188 157.980469 332.144531 157.945312 Z M 332.144531 157.945312 " fill-opacity="1" fill-rule="nonzero"/><path stroke-linecap="round" transform="matrix(0.514813, 0, 0, 0.515081, 0.499471, 0.423991)" fill="none" stroke-linejoin="round" d="M 655.131524 318.59703 C 651.527362 316.883101 649.273812 315.351183 650.442319 313.910269 C 651.519774 312.575528 652.900737 312.310097 654.934244 312.613447 " stroke="#000000" stroke-width="1.5" stroke-opacity="1" stroke-miterlimit="4"/><path stroke-linecap="round" transform="matrix(0.514813, 0, 0, 0.515081, 0.499471, 0.423991)" fill="none" stroke-linejoin="round" d="M 658.045205 305.916991 C 653.500167 305.568138 649.584908 305.568138 644.205221 305.818402 C 642.695267 305.886656 641.72404 303.437103 643.279521 302.640809 C 646.59535 300.942048 656.026874 298.151226 669.138438 299.887906 C 676.278473 300.828291 707.615717 312.742371 714.103209 315.222259 L 688.069775 338.140367 C 688.069775 338.140367 665.0866 322.965273 661.292745 321.327182 C 660.427746 320.947994 659.570335 320.583974 658.743274 320.219953 " stroke="#000000" stroke-width="1.5" stroke-opacity="1" stroke-miterlimit="4"/><path stroke-linecap="round" transform="matrix(0.514813, 0, 0, 0.515081, 0.499471, 0.423991)" fill="none" stroke-linejoin="round" d="M 660.321518 303.285428 C 660.321518 303.285428 657.445776 306.819458 655.685427 309.587529 C 654.759727 311.04361 654.911481 316.283984 655.085998 317.664228 C 655.685427 322.411659 657.923802 322.108308 659.12266 319.249233 C 660.253229 316.557 659.881431 314.160533 661.254807 311.794401 " stroke="#000000" stroke-width="1.5" stroke-opacity="1" stroke-miterlimit="4"/><path stroke-linecap="round" transform="matrix(0.514813, 0, 0, 0.515081, 0.499471, 0.423991)" fill="none" stroke-linejoin="round" d="M 665.913661 303.97555 C 665.913661 303.97555 662.90134 308.328625 661.436912 311.324209 C 660.678141 312.878878 661.156166 317.641477 661.64178 318.945883 C 662.385375 320.947994 663.174497 321.751872 664.509934 320.985913 C 666.41445 319.893852 665.238354 315.396685 666.619318 313.030554 C 667.901641 310.823681 671.968654 305.188951 671.968654 305.188951 " stroke="#000000" stroke-width="1.5" stroke-opacity="1" stroke-miterlimit="4"/><path stroke-linecap="round" transform="matrix(0.514813, 0, 0, 0.515081, 0.499471, 0.423991)" fill="none" stroke-linejoin="round" d="M 668.660412 310.065305 C 667.211159 314.554888 668.463131 316.359822 669.024622 317.368461 C 669.988261 319.08239 671.407163 318.862461 671.968654 317.474634 C 672.712249 315.624198 673.175099 312.279762 673.812467 311.362127 C 675.125141 309.451021 677.894655 306.895296 677.894655 306.895296 " stroke="#000000" stroke-width="1.5" stroke-opacity="1" stroke-miterlimit="4"/><path stroke-linecap="round" transform="matrix(0.514813, 0, 0, 0.515081, 0.499471, 0.423991)" fill-opacity="1" fill="#000000" fill-rule="nonzero" stroke-linejoin="round" d="M 786.57343 381.580116 C 785.670493 381.360187 784.790318 381.087172 783.925319 380.776238 L 685.118156 341.932244 L 697.926211 302.716647 L 763.438502 324.209009 L 786.505141 331.565251 " stroke="#feffff" stroke-width="1.5" stroke-opacity="1" stroke-miterlimit="4"/><path stroke-linecap="round" transform="matrix(0.514813, 0, 0, 0.515081, 0.499471, 0.423991)" fill="none" stroke-linejoin="round" d="M 764.629772 324.588196 L 758.650656 303.346098 " stroke="#feffff" stroke-width="1.5" stroke-opacity="1" stroke-miterlimit="4"/><path stroke-linecap="round" transform="matrix(0.514813, 0, 0, 0.515081, 0.499471, 0.423991)" fill-opacity="1" fill="#fdfdff" fill-rule="nonzero" stroke-linejoin="round" d="M 800.170607 381.079589 C 795.602806 382.550837 790.921188 382.626675 786.581018 381.564949 C 786.54308 391.840937 786.497553 398.742154 786.497553 398.742154 L 666.103353 398.49189 L 667.082168 375.945386 L 662.392963 387.055588 C 657.809986 395.852744 648.28741 400.433332 638.992464 399.212347 L 541.687667 384.962471 L 548.516606 349.053391 L 625.228358 349.500832 L 656.375909 273.981798 C 658.052793 269.924489 660.435334 266.17053 663.606997 263.129445 C 668.129272 258.79912 673.873169 255.864207 679.761232 255.212004 C 679.761232 255.212004 682.462457 255.052745 683.464035 255.113415 L 706.082999 254.825233 C 706.060236 257.244451 706.682428 270.872459 723.018769 270.091332 C 738.247303 269.363291 740.591906 258.033161 740.948528 254.370207 L 767.4524 254.028938 C 776.557653 253.93035 784.790318 256.614999 789.562988 261.324511 C 794.100439 265.798926 796.84719 272.829067 798.873109 279.100833 L 816.028922 348.833462 L 816.279316 349.622172 C 820.520846 362.76482 813.297346 376.840269 800.170607 381.079589 Z M 800.170607 381.079589 " stroke="#000000" stroke-width="1.5" stroke-opacity="1" stroke-miterlimit="4"/><path stroke-linecap="round" transform="matrix(0.514813, 0, 0, 0.515081, 0.499471, 0.423991)" fill-opacity="1" fill="#ffffff" fill-rule="nonzero" stroke-linejoin="round" d="M 720.279605 270.083748 L 720.180965 398.605647 " stroke="#000000" stroke-width="1.5" stroke-opacity="1" stroke-miterlimit="4"/><path stroke-linecap="round" transform="matrix(0.514813, 0, 0, 0.515081, 0.499471, 0.423991)" fill-opacity="1" fill="#1b82fb" fill-rule="nonzero" stroke-linejoin="round" d="M 720.317544 270.121667 C 720.317544 270.121667 715.309655 281.815817 706.11335 275.453047 C 695.422266 268.066469 706.082999 254.825233 706.082999 254.825233 C 706.060236 257.100359 706.606551 269.302621 720.279605 270.083748 Z M 720.317544 270.121667 " stroke="#000000" stroke-width="1.5" stroke-opacity="1" stroke-miterlimit="4"/><path stroke-linecap="round" transform="matrix(0.514813, 0, 0, 0.515081, 0.499471, 0.423991)" fill-opacity="1" fill="#1b82fb" fill-rule="nonzero" stroke-linejoin="round" d="M 734.286519 277.986021 C 723.041532 281.542802 720.317544 270.121667 720.317544 270.121667 L 720.370658 270.083748 C 721.197718 270.129251 722.093068 270.129251 723.018769 270.091332 C 737.86033 269.370875 740.470502 258.601943 740.933353 254.673558 L 741.100282 254.544634 C 744.491989 257.972491 745.539093 274.42924 734.286519 277.986021 Z M 734.286519 277.986021 " stroke="#000000" stroke-width="1.5" stroke-opacity="1" stroke-miterlimit="4"/><path fill="#fffdfd" d="M 282.464844 182.441406 C 282.464844 182.441406 274.175781 181.042969 271.867188 179.851562 C 270.824219 179.3125 268.859375 176.875 268 175.835938 C 267.140625 174.792969 265.585938 174.324219 265.636719 175.449219 C 265.648438 175.644531 265.816406 176.070312 266.054688 176.585938 C 265.953125 176.460938 265.859375 176.339844 265.78125 176.226562 C 263.761719 173.277344 261.988281 173.289062 262.03125 174.496094 C 262.039062 174.710938 262.203125 175.148438 262.457031 175.707031 C 261.304688 174.378906 260.113281 173.472656 259.207031 174.296875 C 258.824219 174.644531 259.410156 175.941406 260.265625 177.472656 C 260.085938 177.3125 259.902344 177.171875 259.71875 177.0625 C 259.140625 176.714844 258.484375 176.863281 258.480469 177.296875 C 258.464844 178.796875 260.820312 183.78125 264.816406 187.3125 C 265.488281 187.90625 266.949219 188.847656 268.710938 189.894531 C 267.386719 190.117188 266.03125 190.582031 265.679688 191.53125 C 265.148438 192.964844 266.574219 193.09375 269.984375 192.730469 C 270.941406 192.628906 272.59375 192.773438 274.085938 192.957031 C 277.257812 194.703125 279.820312 196.128906 279.820312 196.128906 L 282.460938 182.441406 Z M 282.464844 182.441406 " fill-opacity="1" fill-rule="nonzero"/><path stroke-linecap="round" transform="matrix(0.514813, 0, 0, 0.515081, 0.499471, 0.423991)" fill="none" stroke-linejoin="round" d="M 531.77053 373.54892 C 531.77053 373.54892 527.475886 372.927052 523.461987 373.351742 C 516.837916 374.057031 514.068402 373.806767 515.10033 371.023529 C 516.534407 367.140647 526.595711 367.451581 526.595711 367.451581 " stroke="#000000" stroke-width="1.5" stroke-opacity="1" stroke-miterlimit="4"/><path stroke-linecap="round" transform="matrix(0.514813, 0, 0, 0.515081, 0.499471, 0.423991)" fill-opacity="1" fill="#ffffff" fill-rule="nonzero" stroke-linejoin="round" d="M 542.567842 379.949609 C 542.567842 379.949609 518.143002 367.004139 513.423446 362.833074 C 505.661219 355.977359 500.228418 345.959218 501.11618 343.388325 C 501.465215 342.379686 502.398503 342.258346 503.521484 342.9333 C 503.802229 343.100143 504.090562 343.312488 504.371308 343.540001 " stroke="#000000" stroke-width="1.5" stroke-opacity="1" stroke-miterlimit="4"/><path stroke-linecap="round" transform="matrix(0.514813, 0, 0, 0.515081, 0.499471, 0.423991)" fill="none" stroke-linejoin="round" d="M 519.121817 361.14948 C 519.121817 361.14948 516.98967 359.746485 515.616294 358.8061 C 513.097175 357.077003 510.22902 353.35338 507.929944 349.440162 C 505.039026 344.541056 501.11618 338.97458 502.527494 337.564001 C 504.295431 335.796986 506.465516 337.48058 508.840469 340.301737 " stroke="#000000" stroke-width="1.5" stroke-opacity="1" stroke-miterlimit="4"/><path stroke-linecap="round" transform="matrix(0.514813, 0, 0, 0.515081, 0.499471, 0.423991)" fill="none" stroke-linejoin="round" d="M 522.096199 356.932912 C 522.096199 356.932912 518.271993 354.38477 516.769626 352.898354 C 514.000112 350.160619 508.081698 339.808793 508.013409 337.950773 C 507.929944 335.607393 511.367177 335.584641 515.297611 341.310376 C 515.449365 341.530305 515.623882 341.765402 515.821163 342.008082 " stroke="#000000" stroke-width="1.5" stroke-opacity="1" stroke-miterlimit="4"/><path stroke-linecap="round" transform="matrix(0.514813, 0, 0, 0.515081, 0.499471, 0.423991)" fill="none" stroke-linejoin="round" d="M 525.055406 353.087948 C 525.055406 353.087948 519.986816 349.591837 519.015589 348.006832 C 518.051949 346.421827 515.077567 340.969108 515.024453 339.801209 C 514.918225 337.617088 517.938134 338.527138 519.60743 340.552001 C 521.276726 342.56928 525.093345 347.301543 527.119263 348.348101 C 531.6036 350.661147 547.704721 353.376131 547.704721 353.376131 L 542.575429 379.949609 " stroke="#000000" stroke-width="1.5" stroke-opacity="1" stroke-miterlimit="4"/><path stroke-linecap="round" transform="matrix(0.514813, 0, 0, 0.515081, 0.499471, 0.423991)" fill="none" stroke-linejoin="round" d="M 667.07458 375.937803 L 669.927559 309.883295 " stroke="#000000" stroke-width="1.5" stroke-opacity="1" stroke-miterlimit="4"/><path fill="#fffdfd" d="M 332.144531 157.945312 C 334.953125 157.816406 336.992188 157.820312 339.378906 158.007812 C 338.9375 158.589844 338.441406 159.273438 338.054688 159.886719 C 337.863281 160.1875 337.761719 160.789062 337.714844 161.453125 C 336.640625 161.285156 335.917969 161.414062 335.355469 162.113281 C 334.75 162.863281 335.941406 163.660156 337.832031 164.558594 C 338.179688 166.203125 338.992188 166.25 339.578125 165.339844 C 340.019531 165.535156 340.476562 165.730469 340.941406 165.933594 C 342.894531 166.777344 354.726562 174.59375 354.726562 174.59375 L 368.128906 162.789062 C 364.789062 161.511719 348.660156 155.375 344.984375 154.890625 C 338.234375 153.996094 333.375 155.433594 331.667969 156.308594 C 330.867188 156.71875 331.367188 157.980469 332.144531 157.945312 Z M 332.144531 157.945312 " fill-opacity="1" fill-rule="nonzero"/><path stroke-linecap="round" transform="matrix(0.514813, 0, 0, 0.515081, 0.499471, 0.423991)" fill="none" stroke-linejoin="round" d="M 655.131524 318.59703 C 651.527362 316.883101 649.273812 315.351183 650.442319 313.910269 C 651.519774 312.575528 652.900737 312.310097 654.934244 312.613447 " stroke="#000000" stroke-width="1.5" stroke-opacity="1" stroke-miterlimit="4"/><path stroke-linecap="round" transform="matrix(0.514813, 0, 0, 0.515081, 0.499471, 0.423991)" fill="none" stroke-linejoin="round" d="M 658.045205 305.916991 C 653.500167 305.568138 649.584908 305.568138 644.205221 305.818402 C 642.695267 305.886656 641.72404 303.437103 643.279521 302.640809 C 646.59535 300.942048 656.026874 298.151226 669.138438 299.887906 C 676.278473 300.828291 707.615717 312.742371 714.103209 315.222259 L 688.069775 338.140367 C 688.069775 338.140367 665.0866 322.965273 661.292745 321.327182 C 660.427746 320.947994 659.570335 320.583974 658.743274 320.219953 " stroke="#000000" stroke-width="1.5" stroke-opacity="1" stroke-miterlimit="4"/><path stroke-linecap="round" transform="matrix(0.514813, 0, 0, 0.515081, 0.499471, 0.423991)" fill="none" stroke-linejoin="round" d="M 660.321518 303.285428 C 660.321518 303.285428 657.445776 306.819458 655.685427 309.587529 C 654.759727 311.04361 654.911481 316.283984 655.085998 317.664228 C 655.685427 322.411659 657.923802 322.108308 659.12266 319.249233 C 660.253229 316.557 659.881431 314.160533 661.254807 311.794401 " stroke="#000000" stroke-width="1.5" stroke-opacity="1" stroke-miterlimit="4"/><path stroke-linecap="round" transform="matrix(0.514813, 0, 0, 0.515081, 0.499471, 0.423991)" fill="none" stroke-linejoin="round" d="M 665.913661 303.97555 C 665.913661 303.97555 662.90134 308.328625 661.436912 311.324209 C 660.678141 312.878878 661.156166 317.641477 661.64178 318.945883 C 662.385375 320.947994 663.174497 321.751872 664.509934 320.985913 C 666.41445 319.893852 665.238354 315.396685 666.619318 313.030554 C 667.901641 310.823681 671.968654 305.188951 671.968654 305.188951 " stroke="#000000" stroke-width="1.5" stroke-opacity="1" stroke-miterlimit="4"/><path stroke-linecap="round" transform="matrix(0.514813, 0, 0, 0.515081, 0.499471, 0.423991)" fill="none" stroke-linejoin="round" d="M 668.660412 310.065305 C 667.211159 314.554888 668.463131 316.359822 669.024622 317.368461 C 669.988261 319.08239 671.407163 318.862461 671.968654 317.474634 C 672.712249 315.624198 673.175099 312.279762 673.812467 311.362127 C 675.125141 309.451021 677.894655 306.895296 677.894655 306.895296 " stroke="#000000" stroke-width="1.5" stroke-opacity="1" stroke-miterlimit="4"/><path stroke-linecap="round" transform="matrix(0.514813, 0, 0, 0.515081, 0.499471, 0.423991)" fill-opacity="1" fill="#fdfdff" fill-rule="nonzero" stroke-linejoin="round" d="M 786.57343 381.580116 C 785.670493 381.360187 784.790318 381.087172 783.925319 380.776238 L 685.118156 341.932244 L 697.926211 302.716647 L 763.438502 324.209009 L 786.505141 331.565251 " stroke="#000000" stroke-width="1.5" stroke-opacity="1" stroke-miterlimit="4"/><path stroke-linecap="round" transform="matrix(0.514813, 0, 0, 0.515081, 0.499471, 0.423991)" fill="none" stroke-linejoin="round" d="M 764.629772 324.588196 L 758.650656 303.346098 " stroke="#000000" stroke-width="1.5" stroke-opacity="1" stroke-miterlimit="4"/><path stroke-linecap="round" transform="matrix(0.514813, 0, 0, 0.515081, 0.499471, 0.423991)" fill-opacity="1" fill="#fdfdff" fill-rule="nonzero" stroke-linejoin="round" d="M 816.119974 349.129228 L 816.028922 348.833462 L 798.865521 279.100833 C 796.84719 272.829067 794.100439 265.798926 789.555401 261.316927 C 784.790318 256.607415 776.557653 253.937933 767.4524 254.036522 L 739.719319 254.392959 L 721.72127 264.00916 L 706.075411 254.825233 L 683.456447 255.113415 C 682.462457 255.060329 679.753644 255.219588 679.753644 255.219588 C 673.873169 255.864207 668.129272 258.79912 663.606997 263.129445 C 660.442922 266.17053 658.052793 269.924489 656.383497 273.981798 L 625.228358 349.500832 L 548.524194 349.053391 L 541.695255 384.962471 L 638.992464 399.212347 C 648.28741 400.433332 657.809986 395.852744 662.392963 387.048004 L 667.07458 375.937803 L 666.103353 398.499474 L 786.505141 398.749738 C 786.505141 398.749738 786.535492 391.840937 786.581018 381.557365 C 791.657196 382.801101 797.203813 382.497751 802.477271 380.207457 C 814.352038 375.058087 820.095935 361.45283 816.119974 349.129228 Z M 816.119974 349.129228 " stroke="#000000" stroke-width="1.5" stroke-opacity="1" stroke-miterlimit="4"/><path stroke-linecap="round" transform="matrix(0.514813, 0, 0, 0.515081, 0.499471, 0.423991)" fill-opacity="1" fill="#ffffff" fill-rule="nonzero" stroke-linejoin="round" d="M 721.72127 264.00916 L 721.311534 299.675561 " stroke="#000000" stroke-width="1.5" stroke-opacity="1" stroke-miterlimit="4"/><path stroke-linecap="round" transform="matrix(0.514813, 0, 0, 0.515081, 0.499471, 0.423991)" fill-opacity="1" fill="#fdfdff" fill-rule="nonzero" stroke-linejoin="round" d="M 741.517606 247.021549 L 746.404092 254.05169 L 732.245424 276.984965 L 721.72127 264.00916 Z M 741.517606 247.021549 " stroke="#000000" stroke-width="1.5" stroke-opacity="1" stroke-miterlimit="4"/><path stroke-linecap="round" transform="matrix(0.514813, 0, 0, 0.515081, 0.499471, 0.423991)" fill-opacity="1" fill="#fdfdff" fill-rule="nonzero" stroke-linejoin="round" d="M 721.72127 264.00916 L 710.544573 275.801899 L 700.566734 254.832816 L 705.536684 248.272868 Z M 721.72127 264.00916 " stroke="#000000" stroke-width="1.5" stroke-opacity="1" stroke-miterlimit="4"/><path fill="#fffdfd" d="M 282.464844 182.441406 C 282.464844 182.441406 274.175781 181.042969 271.867188 179.851562 C 270.824219 179.3125 268.859375 176.875 268 175.835938 C 267.140625 174.792969 265.585938 174.324219 265.636719 175.449219 C 265.648438 175.644531 265.816406 176.070312 266.054688 176.585938 C 265.953125 176.460938 265.859375 176.339844 265.78125 176.226562 C 263.761719 173.277344 261.988281 173.289062 262.03125 174.496094 C 262.039062 174.710938 262.203125 175.148438 262.457031 175.707031 C 261.304688 174.378906 260.113281 173.472656 259.207031 174.296875 C 258.824219 174.644531 259.410156 175.941406 260.265625 177.472656 C 260.085938 177.3125 259.902344 177.171875 259.71875 177.0625 C 259.140625 176.714844 258.484375 176.863281 258.480469 177.296875 C 258.464844 178.796875 260.820312 183.78125 264.816406 187.3125 C 265.488281 187.90625 266.949219 188.847656 268.710938 189.894531 C 267.386719 190.117188 266.03125 190.582031 265.679688 191.53125 C 265.148438 192.964844 266.574219 193.09375 269.984375 192.730469 C 270.941406 192.628906 272.59375 192.773438 274.085938 192.957031 C 277.257812 194.703125 279.847656 195.992188 279.847656 195.992188 L 282.460938 182.441406 Z M 282.464844 182.441406 " fill-opacity="1" fill-rule="nonzero"/><path stroke-linecap="round" transform="matrix(0.514813, 0, 0, 0.515081, 0.499471, 0.423991)" fill="none" stroke-linejoin="round" d="M 531.77053 373.54892 C 531.77053 373.54892 527.475886 372.927052 523.461987 373.351742 C 516.837916 374.057031 514.068402 373.806767 515.10033 371.023529 C 516.534407 367.140647 526.595711 367.451581 526.595711 367.451581 " stroke="#000000" stroke-width="1.5" stroke-opacity="1" stroke-miterlimit="4"/><path stroke-linecap="round" transform="matrix(0.514813, 0, 0, 0.515081, 0.499471, 0.423991)" fill-opacity="1" fill="#ffffff" fill-rule="nonzero" stroke-linejoin="round" d="M 542.567842 379.949609 C 542.567842 379.949609 518.143002 367.004139 513.423446 362.833074 C 505.661219 355.977359 500.228418 345.959218 501.11618 343.388325 C 501.465215 342.379686 502.398503 342.258346 503.521484 342.9333 C 503.802229 343.100143 504.090562 343.312488 504.371308 343.540001 " stroke="#000000" stroke-width="1.5" stroke-opacity="1" stroke-miterlimit="4"/><path stroke-linecap="round" transform="matrix(0.514813, 0, 0, 0.515081, 0.499471, 0.423991)" fill="none" stroke-linejoin="round" d="M 519.121817 361.14948 C 519.121817 361.14948 516.98967 359.746485 515.616294 358.8061 C 513.097175 357.077003 510.22902 353.35338 507.929944 349.440162 C 505.039026 344.541056 501.11618 338.97458 502.527494 337.564001 C 504.295431 335.796986 506.465516 337.48058 508.840469 340.301737 " stroke="#000000" stroke-width="1.5" stroke-opacity="1" stroke-miterlimit="4"/><path stroke-linecap="round" transform="matrix(0.514813, 0, 0, 0.515081, 0.499471, 0.423991)" fill="none" stroke-linejoin="round" d="M 522.096199 356.932912 C 522.096199 356.932912 518.271993 354.38477 516.769626 352.898354 C 514.000112 350.160619 508.081698 339.808793 508.013409 337.950773 C 507.929944 335.607393 511.367177 335.584641 515.297611 341.310376 C 515.449365 341.530305 515.623882 341.765402 515.821163 342.008082 " stroke="#000000" stroke-width="1.5" stroke-opacity="1" stroke-miterlimit="4"/><path stroke-linecap="round" transform="matrix(0.514813, 0, 0, 0.515081, 0.499471, 0.423991)" fill="none" stroke-linejoin="round" d="M 525.055406 353.087948 C 525.055406 353.087948 519.986816 349.591837 519.015589 348.006832 C 518.051949 346.421827 515.077567 340.969108 515.024453 339.801209 C 514.918225 337.617088 517.938134 338.527138 519.60743 340.552001 C 521.276726 342.56928 525.093345 347.301543 527.119263 348.348101 C 531.6036 350.661147 547.704721 353.376131 547.704721 353.376131 L 542.575429 379.949609 " stroke="#000000" stroke-width="1.5" stroke-opacity="1" stroke-miterlimit="4"/><path stroke-linecap="round" transform="matrix(0.514813, 0, 0, 0.515081, 0.499471, 0.423991)" fill="none" stroke-linejoin="round" d="M 667.07458 375.937803 L 669.927559 309.883295 " stroke="#000000" stroke-width="1.5" stroke-opacity="1" stroke-miterlimit="4"/><path fill="#fffdfd" d="M 332.144531 157.945312 C 334.953125 157.816406 336.992188 157.820312 339.378906 158.007812 C 338.9375 158.589844 338.441406 159.273438 338.054688 159.886719 C 337.863281 160.1875 337.761719 160.789062 337.714844 161.453125 C 336.640625 161.285156 335.917969 161.414062 335.355469 162.113281 C 334.75 162.863281 335.941406 163.660156 337.832031 164.558594 C 338.179688 166.203125 338.992188 166.25 339.578125 165.339844 C 340.019531 165.535156 340.476562 165.730469 340.941406 165.933594 C 342.894531 166.777344 354.726562 174.59375 354.726562 174.59375 L 368.128906 162.789062 C 364.789062 161.511719 348.660156 155.375 344.984375 154.890625 C 338.234375 153.996094 333.375 155.433594 331.667969 156.308594 C 330.867188 156.71875 331.367188 157.980469 332.144531 157.945312 Z M 332.144531 157.945312 " fill-opacity="1" fill-rule="nonzero"/><path stroke-linecap="round" transform="matrix(0.514813, 0, 0, 0.515081, 0.499471, 0.423991)" fill="none" stroke-linejoin="round" d="M 655.131524 318.59703 C 651.527362 316.883101 649.273812 315.351183 650.442319 313.910269 C 651.519774 312.575528 652.900737 312.310097 654.934244 312.613447 " stroke="#000000" stroke-width="1.5" stroke-opacity="1" stroke-miterlimit="4"/><path stroke-linecap="round" transform="matrix(0.514813, 0, 0, 0.515081, 0.499471, 0.423991)" fill="none" stroke-linejoin="round" d="M 658.045205 305.916991 C 653.500167 305.568138 649.584908 305.568138 644.205221 305.818402 C 642.695267 305.886656 641.72404 303.437103 643.279521 302.640809 C 646.59535 300.942048 656.026874 298.151226 669.138438 299.887906 C 676.278473 300.828291 707.615717 312.742371 714.103209 315.222259 L 688.069775 338.140367 C 688.069775 338.140367 665.0866 322.965273 661.292745 321.327182 C 660.427746 320.947994 659.570335 320.583974 658.743274 320.219953 " stroke="#000000" stroke-width="1.5" stroke-opacity="1" stroke-miterlimit="4"/><path stroke-linecap="round" transform="matrix(0.514813, 0, 0, 0.515081, 0.499471, 0.423991)" fill="none" stroke-linejoin="round" d="M 660.321518 303.285428 C 660.321518 303.285428 657.445776 306.819458 655.685427 309.587529 C 654.759727 311.04361 654.911481 316.283984 655.085998 317.664228 C 655.685427 322.411659 657.923802 322.108308 659.12266 319.249233 C 660.253229 316.557 659.881431 314.160533 661.254807 311.794401 " stroke="#000000" stroke-width="1.5" stroke-opacity="1" stroke-miterlimit="4"/><path stroke-linecap="round" transform="matrix(0.514813, 0, 0, 0.515081, 0.499471, 0.423991)" fill="none" stroke-linejoin="round" d="M 665.913661 303.97555 C 665.913661 303.97555 662.90134 308.328625 661.436912 311.324209 C 660.678141 312.878878 661.156166 317.641477 661.64178 318.945883 C 662.385375 320.947994 663.174497 321.751872 664.509934 320.985913 C 666.41445 319.893852 665.238354 315.396685 666.619318 313.030554 C 667.901641 310.823681 671.968654 305.188951 671.968654 305.188951 " stroke="#000000" stroke-width="1.5" stroke-opacity="1" stroke-miterlimit="4"/><path stroke-linecap="round" transform="matrix(0.514813, 0, 0, 0.515081, 0.499471, 0.423991)" fill="none" stroke-linejoin="round" d="M 668.660412 310.065305 C 667.211159 314.554888 668.463131 316.359822 669.024622 317.368461 C 669.988261 319.08239 671.407163 318.862461 671.968654 317.474634 C 672.712249 315.624198 673.175099 312.279762 673.812467 311.362127 C 675.125141 309.451021 677.894655 306.895296 677.894655 306.895296 " stroke="#000000" stroke-width="1.5" stroke-opacity="1" stroke-miterlimit="4"/><path stroke-linecap="round" transform="matrix(0.514813, 0, 0, 0.515081, 0.499471, 0.423991)" fill-opacity="1" fill="#fdfdff" fill-rule="nonzero" stroke-linejoin="round" d="M 786.57343 381.580116 C 785.670493 381.360187 784.790318 381.087172 783.925319 380.776238 L 685.118156 341.932244 L 697.926211 302.716647 L 763.438502 324.209009 L 786.505141 331.565251 " stroke="#000000" stroke-width="1.5" stroke-opacity="1" stroke-miterlimit="4"/><path stroke-linecap="round" transform="matrix(0.514813, 0, 0, 0.515081, 0.499471, 0.423991)" fill="none" stroke-linejoin="round" d="M 764.629772 324.588196 L 758.650656 303.346098 " stroke="#000000" stroke-width="1.5" stroke-opacity="1" stroke-miterlimit="4"/><path fill="#000000" d="M 412.4375 196.710938 C 410.085938 197.46875 405.441406 196.960938 405.441406 196.960938 L 405.695312 205.953125 L 343.417969 205.679688 L 343.921875 194.066406 L 341.507812 199.789062 C 339.148438 204.320312 334.246094 206.679688 329.460938 206.050781 L 279.101562 198.609375 L 282.574219 180.210938 L 322.375 180.445312 L 338.410156 141.546875 C 339.273438 139.457031 340.5 137.523438 342.132812 135.957031 C 344.460938 133.726562 347.417969 132.214844 350.449219 131.878906 C 350.449219 131.878906 351.839844 131.796875 352.355469 131.828125 L 364 131.679688 L 372.050781 136.410156 L 381.949219 131.445312 L 395.59375 131.269531 C 400.28125 131.21875 404.519531 132.601562 406.976562 135.027344 C 409.3125 137.332031 410.726562 140.953125 411.769531 144.183594 L 420.601562 180.101562 L 420.730469 180.507812 C 422.914062 187.277344 419.195312 194.527344 412.4375 196.710938 Z M 412.4375 196.710938 " fill-opacity="1" fill-rule="nonzero"/><path stroke-linecap="round" transform="matrix(0.514813, 0, 0, 0.515081, 0.499471, 0.423991)" fill="none" stroke-linejoin="round" d="M 667.021466 377.257376 L 669.927559 309.883295 " stroke="#feffff" stroke-width="1.5" stroke-opacity="1" stroke-miterlimit="4"/><path stroke-linecap="round" transform="matrix(0.514813, 0, 0, 0.515081, 0.499471, 0.423991)" fill-opacity="1" fill="#000000" fill-rule="nonzero" stroke-linejoin="round" d="M 500.258769 351.063086 L 629.219494 351.063086 C 629.219494 351.063086 608.474694 255.272674 608.474694 255.272674 C 608.011843 253.16439 606.152854 251.662807 603.997944 251.662807 L 484.400454 251.662807 C 481.479186 251.662807 479.309101 254.362624 479.923705 257.214116 Z M 500.258769 351.063086 " stroke="#000000" stroke-width="1.5" stroke-opacity="1" stroke-miterlimit="4"/><path stroke-linecap="round" transform="matrix(0.514813, 0, 0, 0.515081, 0.499471, 0.423991)" fill-opacity="1" fill="#1b82fb" fill-rule="nonzero" stroke-linejoin="round" d="M 500.592628 351.063086 L 617.875867 351.063086 C 621.51038 351.063086 624.22678 347.703482 623.452834 344.146701 L 604.195225 255.272674 C 603.739962 253.16439 601.880973 251.662807 599.726063 251.662807 L 479.096645 251.662807 C 476.706516 251.662807 474.930992 253.86968 475.431781 256.197892 L 495.015661 346.558335 C 495.584739 349.189898 497.906579 351.063086 500.592628 351.063086 Z M 500.592628 351.063086 " stroke="#000000" stroke-width="1.5" stroke-opacity="1" stroke-miterlimit="4"/><path stroke-linecap="round" transform="matrix(-0.514813, 0, 0, -0.515081, 604.985355, 358.90613)" fill-opacity="1" fill="#000000" fill-rule="nonzero" stroke-linejoin="round" d="M 496.693421 344.908952 L 677.493383 344.908952 C 677.903119 344.908952 678.290093 344.992373 678.669478 345.144048 C 679.041276 345.303307 679.375135 345.523236 679.663468 345.811419 C 679.951801 346.099602 680.179432 346.433287 680.331187 346.812475 C 680.490528 347.184079 680.566406 347.578434 680.566406 347.987957 C 680.566406 348.389896 680.490528 348.784251 680.331187 349.163439 C 680.179432 349.535043 679.951801 349.868728 679.663468 350.156911 C 679.375135 350.445093 679.041276 350.672606 678.669478 350.824281 C 678.290093 350.98354 677.903119 351.059377 677.493383 351.059377 L 496.693421 351.059377 C 496.283685 351.059377 495.896712 350.98354 495.517326 350.824281 C 495.137941 350.672606 494.811669 350.445093 494.523336 350.156911 C 494.235003 349.868728 494.007372 349.535043 493.855617 349.163439 C 493.696276 348.784251 493.620398 348.389896 493.620398 347.987957 C 493.620398 347.578434 493.696276 347.184079 493.855617 346.812475 C 494.007372 346.433287 494.235003 346.099602 494.523336 345.811419 C 494.811669 345.523236 495.137941 345.303307 495.517326 345.144048 C 495.896712 344.992373 496.283685 344.908952 496.693421 344.908952 Z M 496.693421 344.908952 " stroke="#000000" stroke-width="1.5" stroke-opacity="1" stroke-miterlimit="4"/><path stroke-linecap="round" transform="matrix(-0.514813, 0, 0, -0.515081, 604.985355, 358.90613)" fill="none" stroke-linejoin="round" d="M 496.693421 344.908952 L 677.493383 344.908952 C 677.903119 344.908952 678.290093 344.992373 678.669478 345.144048 C 679.041276 345.303307 679.375135 345.523236 679.663468 345.811419 C 679.951801 346.099602 680.179432 346.433287 680.331187 346.812475 C 680.490528 347.184079 680.566406 347.578434 680.566406 347.987957 C 680.566406 348.389896 680.490528 348.784251 680.331187 349.163439 C 680.179432 349.535043 679.951801 349.868728 679.663468 350.156911 C 679.375135 350.445093 679.041276 350.672606 678.669478 350.824281 C 678.290093 350.98354 677.903119 351.059377 677.493383 351.059377 L 496.693421 351.059377 C 496.283685 351.059377 495.896712 350.98354 495.517326 350.824281 C 495.137941 350.672606 494.811669 350.445093 494.523336 350.156911 C 494.235003 349.868728 494.007372 349.535043 493.855617 349.163439 C 493.696276 348.784251 493.620398 348.389896 493.620398 347.987957 C 493.620398 347.578434 493.696276 347.184079 493.855617 346.812475 C 494.007372 346.433287 494.235003 346.099602 494.523336 345.811419 C 494.811669 345.523236 495.137941 345.303307 495.517326 345.144048 C 495.896712 344.992373 496.283685 344.908952 496.693421 344.908952 Z M 496.693421 344.908952 " stroke="#feffff" stroke-width="1.5" stroke-opacity="1" stroke-miterlimit="4"/><path stroke-linecap="round" transform="matrix(-0.514813, 0, 0, -0.515081, 576.399901, 358.90613)" fill-opacity="1" fill="#1b82fb" fill-rule="nonzero" stroke-linejoin="round" d="M 496.694361 344.908952 L 621.967459 344.908952 C 622.377195 344.908952 622.764168 344.992373 623.143554 345.144048 C 623.515351 345.303307 623.849211 345.523236 624.137544 345.811419 C 624.425877 346.099602 624.653508 346.433287 624.805262 346.812475 C 624.964604 347.184079 625.040481 347.578434 625.040481 347.987957 C 625.040481 348.389896 624.964604 348.784251 624.805262 349.163439 C 624.653508 349.535043 624.425877 349.868728 624.137544 350.156911 C 623.849211 350.445093 623.515351 350.672606 623.143554 350.824281 C 622.764168 350.98354 622.377195 351.059377 621.967459 351.059377 L 496.694361 351.059377 C 496.284625 351.059377 495.897651 350.98354 495.518266 350.824281 C 495.13888 350.672606 494.805021 350.445093 494.516688 350.156911 C 494.228355 349.868728 494.008312 349.535043 493.856557 349.163439 C 493.697215 348.784251 493.621338 348.389896 493.621338 347.987957 C 493.621338 347.578434 493.697215 347.184079 493.856557 346.812475 C 494.008312 346.433287 494.228355 346.099602 494.516688 345.811419 C 494.805021 345.523236 495.13888 345.303307 495.518266 345.144048 C 495.897651 344.992373 496.284625 344.908952 496.694361 344.908952 Z M 496.694361 344.908952 " stroke="#000000" stroke-width="1.5" stroke-opacity="1" stroke-miterlimit="4"/><path stroke-linecap="round" transform="matrix(0.514813, 0, 0, 0.515081, 0.499471, 0.423991)" fill-opacity="1" fill="#ffffff" fill-rule="nonzero" stroke-linejoin="round" d="M 556.12708 301.510829 C 556.12708 302.079611 556.066378 302.648393 555.96015 303.202007 C 555.846335 303.763205 555.679405 304.309235 555.459361 304.840098 C 555.246906 305.363377 554.973748 305.863905 554.662652 306.341681 C 554.343968 306.819458 553.979758 307.251732 553.577609 307.661255 C 553.175461 308.063194 552.735373 308.427214 552.257348 308.738148 C 551.78691 309.056666 551.286121 309.329681 550.754981 309.542026 C 550.223841 309.761955 549.685114 309.928798 549.123623 310.042554 C 548.562133 310.148727 548.000642 310.209397 547.423976 310.209397 C 546.854898 310.209397 546.28582 310.148727 545.731917 310.042554 C 545.170426 309.928798 544.624111 309.761955 544.100559 309.542026 C 543.569419 309.329681 543.06863 309.056666 542.590605 308.738148 C 542.120167 308.427214 541.680079 308.063194 541.277931 307.661255 C 540.868194 307.251732 540.511572 306.819458 540.192888 306.341681 C 539.874204 305.863905 539.608635 305.363377 539.388591 304.840098 C 539.168547 304.309235 539.009205 303.763205 538.89539 303.202007 C 538.781574 302.648393 538.72846 302.079611 538.72846 301.510829 C 538.72846 300.934464 538.781574 300.373266 538.89539 299.812068 C 539.009205 299.25087 539.168547 298.70484 539.388591 298.181561 C 539.608635 297.650698 539.874204 297.15017 540.192888 296.672394 C 540.511572 296.202201 540.868194 295.762343 541.277931 295.360404 C 541.680079 294.950881 542.120167 294.594445 542.590605 294.275927 C 543.06863 293.957409 543.569419 293.691978 544.100559 293.472049 C 544.624111 293.25212 545.170426 293.085277 545.731917 292.979105 C 546.28582 292.865349 546.854898 292.812262 547.423976 292.812262 C 548.000642 292.812262 548.562133 292.865349 549.123623 292.979105 C 549.685114 293.085277 550.223841 293.25212 550.754981 293.472049 C 551.286121 293.691978 551.78691 293.957409 552.257348 294.275927 C 552.735373 294.594445 553.175461 294.950881 553.577609 295.360404 C 553.979758 295.762343 554.343968 296.202201 554.662652 296.672394 C 554.973748 297.15017 555.246906 297.650698 555.459361 298.181561 C 555.679405 298.70484 555.846335 299.25087 555.96015 299.812068 C 556.066378 300.373266 556.12708 300.934464 556.12708 301.510829 Z M 556.12708 301.510829 " stroke="#000000" stroke-width="1.5" stroke-opacity="1" stroke-miterlimit="4"/><path stroke-linecap="round" transform="matrix(0.514813, 0, 0, 0.515081, 0.499471, 0.423991)" fill-opacity="1" fill="#fdfdff" fill-rule="nonzero" stroke-linejoin="round" d="M 741.517606 247.021549 L 746.798653 254.620471 L 732.245424 276.984965 L 721.72127 264.00916 Z M 741.517606 247.021549 " stroke="#000000" stroke-width="1.5" stroke-opacity="1" stroke-miterlimit="4"/><path stroke-linecap="round" transform="matrix(0.514813, 0, 0, 0.515081, 0.499471, 0.423991)" fill-opacity="1" fill="#fdfdff" fill-rule="nonzero" stroke-linejoin="round" d="M 721.72127 264.00916 L 710.544573 275.801899 L 700.194936 255.310593 L 705.536684 248.272868 Z M 721.72127 264.00916 " stroke="#000000" stroke-width="1.5" stroke-opacity="1" stroke-miterlimit="4"/><path fill="#fffdfd" d="M 282.464844 182.441406 C 282.464844 182.441406 274.175781 181.042969 271.867188 179.851562 C 270.824219 179.3125 268.859375 176.875 268 175.835938 C 267.140625 174.792969 265.585938 174.324219 265.636719 175.449219 C 265.648438 175.644531 265.816406 176.070312 266.054688 176.585938 C 265.953125 176.460938 265.859375 176.339844 265.78125 176.226562 C 263.761719 173.277344 261.988281 173.289062 262.03125 174.496094 C 262.039062 174.710938 262.203125 175.148438 262.457031 175.707031 C 261.304688 174.378906 260.113281 173.472656 259.207031 174.296875 C 258.824219 174.644531 259.410156 175.941406 260.265625 177.472656 C 260.085938 177.3125 259.902344 177.171875 259.71875 177.0625 C 259.140625 176.714844 258.484375 176.863281 258.480469 177.296875 C 258.464844 178.796875 260.820312 183.78125 264.816406 187.3125 C 265.488281 187.90625 266.949219 188.847656 268.710938 189.894531 C 267.386719 190.117188 266.03125 190.582031 265.679688 191.53125 C 265.148438 192.964844 266.574219 193.09375 269.984375 192.730469 C 270.941406 192.628906 272.59375 192.773438 274.085938 192.957031 C 277.257812 194.703125 279.980469 196.128906 279.980469 196.128906 L 282.460938 182.441406 Z M 282.464844 182.441406 " fill-opacity="1" fill-rule="nonzero"/><path stroke-linecap="round" transform="matrix(0.514813, 0, 0, 0.515081, 0.499471, 0.423991)" fill="none" stroke-linejoin="round" d="M 531.77053 373.54892 C 531.77053 373.54892 527.475886 372.927052 523.461987 373.351742 C 516.837916 374.057031 514.068402 373.806767 515.10033 371.023529 C 516.534407 367.140647 526.595711 367.451581 526.595711 367.451581 " stroke="#000000" stroke-width="1.5" stroke-opacity="1" stroke-miterlimit="4"/><path stroke-linecap="round" transform="matrix(0.514813, 0, 0, 0.515081, 0.499471, 0.423991)" fill-opacity="1" fill="#ffffff" fill-rule="nonzero" stroke-linejoin="round" d="M 542.567842 379.949609 C 542.567842 379.949609 518.143002 367.004139 513.423446 362.833074 C 505.661219 355.977359 500.228418 345.959218 501.11618 343.388325 C 501.465215 342.379686 502.398503 342.258346 503.521484 342.9333 C 503.802229 343.100143 504.090562 343.312488 504.371308 343.540001 " stroke="#000000" stroke-width="1.5" stroke-opacity="1" stroke-miterlimit="4"/><path stroke-linecap="round" transform="matrix(0.514813, 0, 0, 0.515081, 0.499471, 0.423991)" fill="none" stroke-linejoin="round" d="M 519.121817 361.14948 C 519.121817 361.14948 516.98967 359.746485 515.616294 358.8061 C 513.097175 357.077003 510.22902 353.35338 507.929944 349.440162 C 505.039026 344.541056 501.11618 338.97458 502.527494 337.564001 C 504.295431 335.796986 506.465516 337.48058 508.840469 340.301737 " stroke="#000000" stroke-width="1.5" stroke-opacity="1" stroke-miterlimit="4"/><path stroke-linecap="round" transform="matrix(0.514813, 0, 0, 0.515081, 0.499471, 0.423991)" fill="none" stroke-linejoin="round" d="M 522.096199 356.932912 C 522.096199 356.932912 518.271993 354.38477 516.769626 352.898354 C 514.000112 350.160619 508.081698 339.808793 508.013409 337.950773 C 507.929944 335.607393 511.367177 335.584641 515.297611 341.310376 C 515.449365 341.530305 515.623882 341.765402 515.821163 342.008082 " stroke="#000000" stroke-width="1.5" stroke-opacity="1" stroke-miterlimit="4"/><path stroke-linecap="round" transform="matrix(0.514813, 0, 0, 0.515081, 0.499471, 0.423991)" fill="none" stroke-linejoin="round" d="M 525.055406 353.087948 C 525.055406 353.087948 519.986816 349.591837 519.015589 348.006832 C 518.051949 346.421827 515.077567 340.969108 515.024453 339.801209 C 514.918225 337.617088 517.938134 338.527138 519.60743 340.552001 C 521.276726 342.56928 525.093345 347.301543 527.119263 348.348101 C 531.6036 350.661147 547.704721 353.376131 547.704721 353.376131 L 542.575429 379.949609 " stroke="#000000" stroke-width="1.5" stroke-opacity="1" stroke-miterlimit="4"/><path fill="#fffdfd" d="M 332.144531 157.945312 C 334.953125 157.816406 336.992188 157.820312 339.378906 158.007812 C 338.9375 158.589844 338.441406 159.273438 338.054688 159.886719 C 337.863281 160.1875 337.761719 160.789062 337.714844 161.453125 C 336.640625 161.285156 335.917969 161.414062 335.355469 162.113281 C 334.75 162.863281 335.941406 163.660156 337.832031 164.558594 C 338.179688 166.203125 338.992188 166.25 339.578125 165.339844 C 340.019531 165.535156 340.476562 165.730469 340.941406 165.933594 C 342.894531 166.777344 354.726562 174.59375 354.726562 174.59375 L 368.128906 162.789062 C 364.789062 161.511719 348.660156 155.375 344.984375 154.890625 C 338.234375 153.996094 333.375 155.433594 331.667969 156.308594 C 330.867188 156.71875 331.367188 157.980469 332.144531 157.945312 Z M 332.144531 157.945312 " fill-opacity="1" fill-rule="nonzero"/><path stroke-linecap="round" transform="matrix(0.514813, 0, 0, 0.515081, 0.499471, 0.423991)" fill="none" stroke-linejoin="round" d="M 655.131524 318.59703 C 651.527362 316.883101 649.273812 315.351183 650.442319 313.910269 C 651.519774 312.575528 652.900737 312.310097 654.934244 312.613447 " stroke="#000000" stroke-width="1.5" stroke-opacity="1" stroke-miterlimit="4"/><path stroke-linecap="round" transform="matrix(0.514813, 0, 0, 0.515081, 0.499471, 0.423991)" fill="none" stroke-linejoin="round" d="M 658.045205 305.916991 C 653.500167 305.568138 649.584908 305.568138 644.205221 305.818402 C 642.695267 305.886656 641.72404 303.437103 643.279521 302.640809 C 646.59535 300.942048 656.026874 298.151226 669.138438 299.887906 C 676.278473 300.828291 707.615717 312.742371 714.103209 315.222259 L 688.069775 338.140367 C 688.069775 338.140367 665.0866 322.965273 661.292745 321.327182 C 660.427746 320.947994 659.570335 320.583974 658.743274 320.219953 " stroke="#000000" stroke-width="1.5" stroke-opacity="1" stroke-miterlimit="4"/><path stroke-linecap="round" transform="matrix(0.514813, 0, 0, 0.515081, 0.499471, 0.423991)" fill="none" stroke-linejoin="round" d="M 660.321518 303.285428 C 660.321518 303.285428 657.445776 306.819458 655.685427 309.587529 C 654.759727 311.04361 654.911481 316.283984 655.085998 317.664228 C 655.685427 322.411659 657.923802 322.108308 659.12266 319.249233 C 660.253229 316.557 659.881431 314.160533 661.254807 311.794401 " stroke="#000000" stroke-width="1.5" stroke-opacity="1" stroke-miterlimit="4"/><path stroke-linecap="round" transform="matrix(0.514813, 0, 0, 0.515081, 0.499471, 0.423991)" fill="none" stroke-linejoin="round" d="M 665.913661 303.97555 C 665.913661 303.97555 662.90134 308.328625 661.436912 311.324209 C 660.678141 312.878878 661.156166 317.641477 661.64178 318.945883 C 662.385375 320.947994 663.174497 321.751872 664.509934 320.985913 C 666.41445 319.893852 665.238354 315.396685 666.619318 313.030554 C 667.901641 310.823681 671.968654 305.188951 671.968654 305.188951 " stroke="#000000" stroke-width="1.5" stroke-opacity="1" stroke-miterlimit="4"/><path stroke-linecap="round" transform="matrix(0.514813, 0, 0, 0.515081, 0.499471, 0.423991)" fill="none" stroke-linejoin="round" d="M 668.660412 310.065305 C 667.211159 314.554888 668.463131 316.359822 669.024622 317.368461 C 669.988261 319.08239 671.407163 318.862461 671.968654 317.474634 C 672.712249 315.624198 673.175099 312.279762 673.812467 311.362127 C 675.125141 309.451021 677.894655 306.895296 677.894655 306.895296 " stroke="#000000" stroke-width="1.5" stroke-opacity="1" stroke-miterlimit="4"/><path stroke-linecap="round" transform="matrix(0.514813, 0, 0, 0.515081, 0.499471, 0.423991)" fill-opacity="1" fill="#000000" fill-rule="nonzero" stroke-linejoin="round" d="M 786.57343 381.580116 C 785.670493 381.360187 784.790318 381.087172 783.925319 380.776238 L 685.118156 341.932244 L 697.926211 302.716647 L 763.438502 324.209009 L 786.505141 331.565251 " stroke="#feffff" stroke-width="1.5" stroke-opacity="1" stroke-miterlimit="4"/><path stroke-linecap="round" transform="matrix(0.514813, 0, 0, 0.515081, 0.499471, 0.423991)" fill="none" stroke-linejoin="round" d="M 764.629772 324.588196 L 758.650656 303.346098 " stroke="#feffff" stroke-width="1.5" stroke-opacity="1" stroke-miterlimit="4"/><g clip-path="url(#b6d5f6ffb8)"><path stroke-linecap="round" transform="matrix(0.514813, 0, 0, 0.515081, 0.499471, 0.423991)" fill-opacity="1" fill="#ffffff" fill-rule="nonzero" stroke-linejoin="round" d="M 407.49901 580.039405 L 460.309474 580.039405 C 460.309474 580.039405 465.453941 573.608381 465.453941 573.608381 C 465.453941 573.608381 466.781791 577.127243 468.041351 580.039405 L 481.016335 580.039405 C 481.016335 580.039405 481.850983 547.095573 481.850983 547.095573 L 442.258311 546.223441 C 442.258311 546.223441 435.042398 563.006291 421.854958 564.098352 C 401.034281 565.835032 407.49901 580.039405 407.49901 580.039405 Z M 407.49901 580.039405 " stroke="#000000" stroke-width="1.5" stroke-opacity="1" stroke-miterlimit="4"/></g><g clip-path="url(#0739f87570)"><path fill="#ffffff" d="M 167.371094 267.34375 L 182.089844 290.21875 L 186.308594 290.652344 C 186.308594 290.652344 185.152344 292.207031 184.242188 293.5625 L 187.859375 299.1875 L 202.351562 290.363281 L 191.695312 272.972656 C 191.695312 272.972656 182.421875 274.527344 178.269531 269.121094 C 171.71875 260.585938 167.371094 267.347656 167.371094 267.347656 Z M 167.371094 267.34375 " fill-opacity="1" fill-rule="nonzero"/></g><g clip-path="url(#50b9792159)"><path stroke-linecap="round" transform="matrix(0.514813, 0, 0, 0.515081, 0.499471, 0.423991)" fill="none" stroke-linejoin="round" d="M 324.140424 518.209049 L 352.730917 562.619519 L 360.925644 563.461316 C 360.925644 563.461316 358.679682 566.479651 356.911745 569.111214 L 363.937965 580.031821 L 392.08837 562.900118 L 371.389096 529.13724 C 371.389096 529.13724 353.375872 532.155575 345.310136 521.659658 C 332.585546 505.089153 324.140424 518.216633 324.140424 518.216633 Z M 324.140424 518.209049 " stroke="#000000" stroke-width="1.5" stroke-opacity="1" stroke-miterlimit="4"/></g><path stroke-linecap="round" transform="matrix(0.514813, 0, 0, 0.515081, 0.499471, 0.423991)" fill-opacity="1" fill="#1b82fb" fill-rule="nonzero" stroke-linejoin="round" d="M 723.398154 469.210407 C 715.818032 469.081483 623.604588 465.282022 584.034679 465.228936 L 388.089647 572.372228 L 363.763448 524.617322 L 569.443512 387.434775 C 569.443512 387.434775 719.73329 395.458388 717.244521 397.377078 " stroke="#000000" stroke-width="1.5" stroke-opacity="1" stroke-miterlimit="4"/><path stroke-linecap="round" transform="matrix(0.514813, 0, 0, 0.515081, 0.499471, 0.423991)" fill-opacity="1" fill="#1b82fb" fill-rule="nonzero" stroke-linejoin="round" d="M 786.505141 398.749738 L 735.265333 397.733515 C 735.265333 397.733515 580.157359 358.464831 580.157359 358.464831 C 556.104317 350.501888 539.813503 356.614394 528.583691 377.151203 L 437.371826 547.982872 L 485.04541 569.884757 L 575.506092 421.349328 L 703.685283 466.123819 C 709.785802 467.966671 716.106365 469.005646 722.472454 469.187656 C 722.88219 469.19524 723.200874 469.202823 723.398154 469.210407 C 736.289674 469.422752 753.058514 466.669849 767.110953 453.496866 C 782.673347 438.905722 787.56742 419.771907 786.505141 398.749738 Z M 786.505141 398.749738 " stroke="#000000" stroke-width="1.5" stroke-opacity="1" stroke-miterlimit="4"/><path stroke-linecap="round" transform="matrix(0.514813, 0, 0, 0.515081, 0.499471, 0.423991)" fill-opacity="1" fill="#ffffff" fill-rule="nonzero" stroke-linejoin="round" d="M 529.729436 18.89461 C 529.729436 19.728823 529.570094 20.525117 529.25141 21.291077 C 528.932726 22.06462 528.477463 22.739574 527.89321 23.331107 C 527.301368 23.915056 526.626062 24.370081 525.859703 24.688599 C 525.093345 25.007117 524.289047 25.166375 523.461987 25.166375 C 522.627339 25.166375 521.830629 25.007117 521.06427 24.688599 C 520.290324 24.370081 519.615018 23.915056 519.030764 23.331107 C 518.438923 22.739574 517.98366 22.06462 517.664976 21.291077 C 517.346292 20.525117 517.194538 19.728823 517.194538 18.89461 C 517.194538 18.060397 517.346292 17.264103 517.664976 16.498143 C 517.98366 15.7246 518.438923 15.049646 519.030764 14.465697 C 519.615018 13.874164 520.290324 13.419139 521.06427 13.100621 C 521.830629 12.782103 522.627339 12.622844 523.461987 12.622844 C 524.289047 12.622844 525.093345 12.782103 525.859703 13.100621 C 526.626062 13.419139 527.301368 13.874164 527.89321 14.465697 C 528.477463 15.049646 528.932726 15.7246 529.25141 16.498143 C 529.570094 17.264103 529.729436 18.060397 529.729436 18.89461 Z M 529.729436 18.89461 " stroke="#000000" stroke-width="1.5" stroke-opacity="1" stroke-miterlimit="4"/><path stroke-linecap="round" transform="matrix(0.514813, 0, 0, 0.515081, 0.499471, 0.423991)" fill-opacity="1" fill="#ffffff" fill-rule="nonzero" stroke-linejoin="round" d="M 548.228273 18.89461 C 548.228273 19.728823 548.068932 20.525117 547.750248 21.291077 C 547.439152 22.06462 546.983889 22.739574 546.392048 23.331107 C 545.807794 23.915056 545.132488 24.370081 544.358541 24.688599 C 543.592182 25.007117 542.795473 25.166375 541.960825 25.166375 C 541.133764 25.166375 540.329467 25.007117 539.563108 24.688599 C 538.79675 24.370081 538.113856 23.915056 537.529602 23.331107 C 536.93776 22.739574 536.490086 22.06462 536.171402 21.291077 C 535.852718 20.525117 535.693376 19.728823 535.693376 18.89461 C 535.693376 18.060397 535.852718 17.264103 536.171402 16.498143 C 536.490086 15.7246 536.93776 15.049646 537.529602 14.465697 C 538.113856 13.874164 538.79675 13.419139 539.563108 13.100621 C 540.329467 12.782103 541.133764 12.622844 541.960825 12.622844 C 542.795473 12.622844 543.592182 12.782103 544.358541 13.100621 C 545.132488 13.419139 545.807794 13.874164 546.392048 14.465697 C 546.983889 15.049646 547.439152 15.7246 547.750248 16.498143 C 548.068932 17.264103 548.228273 18.060397 548.228273 18.89461 Z M 548.228273 18.89461 " stroke="#000000" stroke-width="1.5" stroke-opacity="1" stroke-miterlimit="4"/><path stroke-linecap="round" transform="matrix(0.514813, 0, 0, 0.515081, 0.499471, 0.423991)" fill-opacity="1" fill="#1b82fb" fill-rule="nonzero" stroke-linejoin="round" d="M 566.734699 18.89461 C 566.734699 19.728823 566.575357 20.525117 566.256673 21.291077 C 565.937989 22.06462 565.482727 22.739574 564.898473 23.331107 C 564.306632 23.915056 563.631325 24.370081 562.864967 24.688599 C 562.098608 25.007117 561.294311 25.166375 560.46725 25.166375 C 559.632602 25.166375 558.835893 25.007117 558.061946 24.688599 C 557.295587 24.370081 556.620281 23.915056 556.02844 23.331107 C 555.444186 22.739574 554.988923 22.06462 554.67024 21.291077 C 554.351556 20.525117 554.192214 19.728823 554.192214 18.89461 C 554.192214 18.060397 554.351556 17.264103 554.67024 16.498143 C 554.988923 15.7246 555.444186 15.049646 556.02844 14.465697 C 556.620281 13.874164 557.295587 13.419139 558.061946 13.100621 C 558.835893 12.782103 559.632602 12.622844 560.46725 12.622844 C 561.294311 12.622844 562.098608 12.782103 562.864967 13.100621 C 563.631325 13.419139 564.306632 13.874164 564.898473 14.465697 C 565.482727 15.049646 565.937989 15.7246 566.256673 16.498143 C 566.575357 17.264103 566.734699 18.060397 566.734699 18.89461 Z M 566.734699 18.89461 " stroke="#000000" stroke-width="1.5" stroke-opacity="1" stroke-miterlimit="4"/></svg>