<svg xmlns="http://www.w3.org/2000/svg" xmlns:xlink="http://www.w3.org/1999/xlink" width="630" zoomAndPan="magnify" viewBox="0 0 472.5 299.999988" height="400" preserveAspectRatio="xMidYMid meet" version="1.0"><defs><clipPath id="0a339a04b1"><path d="M 71 0.160156 L 299 0.160156 L 299 20 L 71 20 Z M 71 0.160156 " clip-rule="nonzero"/></clipPath><clipPath id="b2d51e6808"><path d="M 70 0.160156 L 300 0.160156 L 300 20 L 70 20 Z M 70 0.160156 " clip-rule="nonzero"/></clipPath><clipPath id="5de74f0b7c"><path d="M 0.5 108 L 42 108 L 42 148 L 0.5 148 Z M 0.5 108 " clip-rule="nonzero"/></clipPath><clipPath id="b2c895889c"><path d="M 145 298 L 456 298 L 456 299.839844 L 145 299.839844 Z M 145 298 " clip-rule="nonzero"/></clipPath><clipPath id="63ded0855d"><path d="M 244 143 L 471.75 143 L 471.75 299.839844 L 244 299.839844 Z M 244 143 " clip-rule="nonzero"/></clipPath><clipPath id="746827e930"><path d="M 209 281 L 249 281 L 249 299.839844 L 209 299.839844 Z M 209 281 " clip-rule="nonzero"/></clipPath><clipPath id="0a2fe94582"><path d="M 209 281 L 250 281 L 250 299.839844 L 209 299.839844 Z M 209 281 " clip-rule="nonzero"/></clipPath><clipPath id="8666620ec3"><path d="M 167 264 L 203 264 L 203 299.839844 L 167 299.839844 Z M 167 264 " clip-rule="nonzero"/></clipPath></defs><path stroke-linecap="round" transform="matrix(0.515081, 0, 0, 0.515081, 0.499471, 0.423991)" fill-opacity="1" fill="#000000" fill-rule="nonzero" stroke-linejoin="round" d="M 137.373167 37.042536 L 578.861473 37.042536 L 578.861473 363.0075 L 137.373167 363.0075 Z M 137.373167 37.042536 " stroke="#000000" stroke-width="1.5" stroke-opacity="1" stroke-miterlimit="4"/><g clip-path="url(#0a339a04b1)"><path fill="#ffffff" d="M 71.257812 0.808594 L 298.660156 0.808594 L 298.660156 19.503906 L 71.257812 19.503906 Z M 71.257812 0.808594 " fill-opacity="1" fill-rule="nonzero"/></g><g clip-path="url(#b2d51e6808)"><path stroke-linecap="round" transform="matrix(0.515081, 0, 0, 0.515081, 0.499471, 0.423991)" fill="none" stroke-linejoin="round" d="M 137.373167 0.746684 L 578.861473 0.746684 L 578.861473 37.042536 L 137.373167 37.042536 Z M 137.373167 0.746684 " stroke="#1b82fb" stroke-width="1.5" stroke-opacity="1" stroke-miterlimit="4"/></g><path stroke-linecap="round" transform="matrix(0.515081, 0, 0, 0.515081, 0.499471, 0.423991)" fill-opacity="1" fill="#ffffff" fill-rule="nonzero" stroke-linejoin="round" d="M 163.241356 50.678128 L 181.032845 50.678128 L 181.032845 60.916197 L 163.241356 60.916197 Z M 163.241356 50.678128 " stroke="#000000" stroke-width="1.5" stroke-opacity="1" stroke-miterlimit="4"/><path stroke-linecap="round" transform="matrix(0.515081, 0, 0, 0.515081, 0.499471, 0.423991)" fill-opacity="1" fill="#ffffff" fill-rule="nonzero" stroke-linejoin="round" d="M 163.241356 74.870307 L 181.032845 74.870307 L 181.032845 85.108376 L 163.241356 85.108376 Z M 163.241356 74.870307 " stroke="#000000" stroke-width="1.5" stroke-opacity="1" stroke-miterlimit="4"/><path stroke-linecap="round" transform="matrix(0.515081, 0, 0, 0.515081, 0.499471, 0.423991)" fill-opacity="1" fill="#ffffff" fill-rule="nonzero" stroke-linejoin="round" d="M 163.241356 99.062486 L 181.032845 99.062486 L 181.032845 109.300555 L 163.241356 109.300555 Z M 163.241356 99.062486 " stroke="#000000" stroke-width="1.5" stroke-opacity="1" stroke-miterlimit="4"/><path stroke-linecap="round" transform="matrix(0.515081, 0, 0, 0.515081, 0.499471, 0.423991)" fill-opacity="1" fill="#ffffff" fill-rule="nonzero" stroke-linejoin="round" d="M 163.241356 123.254665 L 181.032845 123.254665 L 181.032845 133.500318 L 163.241356 133.500318 Z M 163.241356 123.254665 " stroke="#000000" stroke-width="1.5" stroke-opacity="1" stroke-miterlimit="4"/><path stroke-linecap="round" transform="matrix(0.515081, 0, 0, 0.515081, 0.499471, 0.423991)" fill-opacity="1" fill="#ffffff" fill-rule="nonzero" stroke-linejoin="round" d="M 163.241356 147.446844 L 181.032845 147.446844 L 181.032845 157.692497 L 163.241356 157.692497 Z M 163.241356 147.446844 " stroke="#000000" stroke-width="1.5" stroke-opacity="1" stroke-miterlimit="4"/><path stroke-linecap="round" transform="matrix(0.515081, 0, 0, 0.515081, 0.499471, 0.423991)" fill-opacity="1" fill="#ffffff" fill-rule="nonzero" stroke-linejoin="round" d="M 163.241356 171.639022 L 181.032845 171.639022 L 181.032845 181.884676 L 163.241356 181.884676 Z M 163.241356 171.639022 " stroke="#000000" stroke-width="1.5" stroke-opacity="1" stroke-miterlimit="4"/><path stroke-linecap="round" transform="matrix(0.515081, 0, 0, 0.515081, 0.499471, 0.423991)" fill-opacity="1" fill="#ffffff" fill-rule="nonzero" stroke-linejoin="round" d="M 163.241356 195.838785 L 181.032845 195.838785 L 181.032845 206.076855 L 163.241356 206.076855 Z M 163.241356 195.838785 " stroke="#000000" stroke-width="1.5" stroke-opacity="1" stroke-miterlimit="4"/><path stroke-linecap="round" transform="matrix(0.515081, 0, 0, 0.515081, 0.499471, 0.423991)" fill-opacity="1" fill="#ffffff" fill-rule="nonzero" stroke-linejoin="round" d="M 163.241356 222.207502 L 181.032845 222.207502 L 181.032845 232.445571 L 163.241356 232.445571 Z M 163.241356 222.207502 " stroke="#000000" stroke-width="1.5" stroke-opacity="1" stroke-miterlimit="4"/><path stroke-linecap="round" transform="matrix(0.515081, 0, 0, 0.515081, 0.499471, 0.423991)" fill-opacity="1" fill="#ffffff" fill-rule="nonzero" stroke-linejoin="round" d="M 163.241356 246.399681 L 181.032845 246.399681 L 181.032845 256.63775 L 163.241356 256.63775 Z M 163.241356 246.399681 " stroke="#000000" stroke-width="1.5" stroke-opacity="1" stroke-miterlimit="4"/><path stroke-linecap="round" transform="matrix(0.515081, 0, 0, 0.515081, 0.499471, 0.423991)" fill-opacity="1" fill="#ffffff" fill-rule="nonzero" stroke-linejoin="round" d="M 163.241356 270.59186 L 181.032845 270.59186 L 181.032845 280.829929 L 163.241356 280.829929 Z M 163.241356 270.59186 " stroke="#000000" stroke-width="1.5" stroke-opacity="1" stroke-miterlimit="4"/><path stroke-linecap="round" transform="matrix(0.515081, 0, 0, 0.515081, 0.499471, 0.423991)" fill-opacity="1" fill="#ffffff" fill-rule="nonzero" stroke-linejoin="round" d="M 163.241356 294.784039 L 181.032845 294.784039 L 181.032845 305.029692 L 163.241356 305.029692 Z M 163.241356 294.784039 " stroke="#000000" stroke-width="1.5" stroke-opacity="1" stroke-miterlimit="4"/><path stroke-linecap="round" transform="matrix(0.515081, 0, 0, 0.515081, 0.499471, 0.423991)" fill-opacity="1" fill="#ffffff" fill-rule="nonzero" stroke-linejoin="round" d="M 163.241356 318.976218 L 181.032845 318.976218 L 181.032845 329.221871 L 163.241356 329.221871 Z M 163.241356 318.976218 " stroke="#000000" stroke-width="1.5" stroke-opacity="1" stroke-miterlimit="4"/><path stroke-linecap="round" transform="matrix(0.515081, 0, 0, 0.515081, 0.499471, 0.423991)" fill-opacity="1" fill="#ffffff" fill-rule="nonzero" stroke-linejoin="round" d="M 163.241356 343.168397 L 181.032845 343.168397 L 181.032845 353.41405 L 163.241356 353.41405 Z M 163.241356 343.168397 " stroke="#000000" stroke-width="1.5" stroke-opacity="1" stroke-miterlimit="4"/><path stroke-linecap="round" transform="matrix(0.515081, 0, 0, 0.515081, 0.499471, 0.423991)" fill-opacity="1" fill="#545454" fill-rule="nonzero" stroke-linejoin="round" d="M 211.762221 50.678128 L 354.071387 50.678128 L 354.071387 60.916197 L 211.762221 60.916197 Z M 211.762221 50.678128 " stroke="#000000" stroke-width="1.5" stroke-opacity="1" stroke-miterlimit="4"/><path stroke-linecap="round" transform="matrix(0.515081, 0, 0, 0.515081, 0.499471, 0.423991)" fill-opacity="1" fill="#ffffff" fill-rule="nonzero" stroke-linejoin="round" d="M 253.80656 74.870307 L 334.664557 74.870307 L 334.664557 85.108376 L 253.80656 85.108376 Z M 253.80656 74.870307 " stroke="#000000" stroke-width="1.5" stroke-opacity="1" stroke-miterlimit="4"/><path stroke-linecap="round" transform="matrix(0.515081, 0, 0, 0.515081, 0.499471, 0.423991)" fill-opacity="1" fill="#545454" fill-rule="nonzero" stroke-linejoin="round" d="M 347.602443 74.870307 L 493.149872 74.870307 L 493.149872 85.108376 L 347.602443 85.108376 Z M 347.602443 74.870307 " stroke="#000000" stroke-width="1.5" stroke-opacity="1" stroke-miterlimit="4"/><path stroke-linecap="round" transform="matrix(0.515081, 0, 0, 0.515081, 0.499471, 0.423991)" fill-opacity="1" fill="#545454" fill-rule="nonzero" stroke-linejoin="round" d="M 253.80656 123.254665 L 302.319841 123.254665 L 302.319841 133.500318 L 253.80656 133.500318 Z M 253.80656 123.254665 " stroke="#000000" stroke-width="1.5" stroke-opacity="1" stroke-miterlimit="4"/><path stroke-linecap="round" transform="matrix(0.515081, 0, 0, 0.515081, 0.499471, 0.423991)" fill-opacity="1" fill="#545454" fill-rule="nonzero" stroke-linejoin="round" d="M 473.743043 123.254665 L 522.263908 123.254665 L 522.263908 133.500318 L 473.743043 133.500318 Z M 473.743043 123.254665 " stroke="#000000" stroke-width="1.5" stroke-opacity="1" stroke-miterlimit="4"/><path stroke-linecap="round" transform="matrix(0.515081, 0, 0, 0.515081, 0.499471, 0.423991)" fill-opacity="1" fill="#ffffff" fill-rule="nonzero" stroke-linejoin="round" d="M 315.257728 123.254665 L 460.805157 123.254665 L 460.805157 133.500318 L 315.257728 133.500318 Z M 315.257728 123.254665 " stroke="#000000" stroke-width="1.5" stroke-opacity="1" stroke-miterlimit="4"/><path stroke-linecap="round" transform="matrix(0.515081, 0, 0, 0.515081, 0.499471, 0.423991)" fill-opacity="1" fill="#ffffff" fill-rule="nonzero" stroke-linejoin="round" d="M 253.80656 99.062486 L 269.98271 99.062486 L 269.98271 109.300555 L 253.80656 109.300555 Z M 253.80656 99.062486 " stroke="#000000" stroke-width="1.5" stroke-opacity="1" stroke-miterlimit="4"/><path stroke-linecap="round" transform="matrix(0.515081, 0, 0, 0.515081, 0.499471, 0.423991)" fill-opacity="1" fill="#545454" fill-rule="nonzero" stroke-linejoin="round" d="M 282.913012 99.062486 L 428.460441 99.062486 L 428.460441 109.300555 L 282.913012 109.300555 Z M 282.913012 99.062486 " stroke="#000000" stroke-width="1.5" stroke-opacity="1" stroke-miterlimit="4"/><path stroke-linecap="round" transform="matrix(0.515081, 0, 0, 0.515081, 0.499471, 0.423991)" fill-opacity="1" fill="#ffffff" fill-rule="nonzero" stroke-linejoin="round" d="M 253.80656 147.446844 L 318.495991 147.446844 L 318.495991 157.692497 L 253.80656 157.692497 Z M 253.80656 147.446844 " stroke="#000000" stroke-width="1.5" stroke-opacity="1" stroke-miterlimit="4"/><path stroke-linecap="round" transform="matrix(0.515081, 0, 0, 0.515081, 0.499471, 0.423991)" fill-opacity="1" fill="#545454" fill-rule="nonzero" stroke-linejoin="round" d="M 331.433878 147.446844 L 493.149872 147.446844 L 493.149872 157.692497 L 331.433878 157.692497 Z M 331.433878 147.446844 " stroke="#000000" stroke-width="1.5" stroke-opacity="1" stroke-miterlimit="4"/><path stroke-linecap="round" transform="matrix(0.515081, 0, 0, 0.515081, 0.499471, 0.423991)" fill-opacity="1" fill="#ffffff" fill-rule="nonzero" stroke-linejoin="round" d="M 253.80656 195.838785 L 302.319841 195.838785 L 302.319841 206.076855 L 253.80656 206.076855 Z M 253.80656 195.838785 " stroke="#000000" stroke-width="1.5" stroke-opacity="1" stroke-miterlimit="4"/><path stroke-linecap="round" transform="matrix(0.515081, 0, 0, 0.515081, 0.499471, 0.423991)" fill-opacity="1" fill="#ffffff" fill-rule="nonzero" stroke-linejoin="round" d="M 457.574477 195.838785 L 522.263908 195.838785 L 522.263908 206.076855 L 457.574477 206.076855 Z M 457.574477 195.838785 " stroke="#000000" stroke-width="1.5" stroke-opacity="1" stroke-miterlimit="4"/><path stroke-linecap="round" transform="matrix(0.515081, 0, 0, 0.515081, 0.499471, 0.423991)" fill-opacity="1" fill="#545454" fill-rule="nonzero" stroke-linejoin="round" d="M 315.257728 195.838785 L 444.636591 195.838785 L 444.636591 206.076855 L 315.257728 206.076855 Z M 315.257728 195.838785 " stroke="#000000" stroke-width="1.5" stroke-opacity="1" stroke-miterlimit="4"/><path stroke-linecap="round" transform="matrix(0.515081, 0, 0, 0.515081, 0.499471, 0.423991)" fill-opacity="1" fill="#ffffff" fill-rule="nonzero" stroke-linejoin="round" d="M 253.80656 171.639022 L 367.009273 171.639022 L 367.009273 181.884676 L 253.80656 181.884676 Z M 253.80656 171.639022 " stroke="#000000" stroke-width="1.5" stroke-opacity="1" stroke-miterlimit="4"/><path stroke-linecap="round" transform="matrix(0.515081, 0, 0, 0.515081, 0.499471, 0.423991)" fill-opacity="1" fill="#ffffff" fill-rule="nonzero" stroke-linejoin="round" d="M 379.947159 171.639022 L 460.805157 171.639022 L 460.805157 181.884676 L 379.947159 181.884676 Z M 379.947159 171.639022 " stroke="#000000" stroke-width="1.5" stroke-opacity="1" stroke-miterlimit="4"/><path stroke-linecap="round" transform="matrix(0.515081, 0, 0, 0.515081, 0.499471, 0.423991)" fill-opacity="1" fill="#000000" fill-rule="nonzero" stroke-linejoin="round" d="M 211.762221 222.207502 L 321.726671 222.207502 L 321.726671 232.445571 L 211.762221 232.445571 Z M 211.762221 222.207502 " stroke="#000000" stroke-width="1.5" stroke-opacity="1" stroke-miterlimit="4"/><path stroke-linecap="round" transform="matrix(0.515081, 0, 0, 0.515081, 0.499471, 0.423991)" fill-opacity="1" fill="#ffffff" fill-rule="nonzero" stroke-linejoin="round" d="M 253.80656 246.399681 L 350.840707 246.399681 L 350.840707 256.63775 L 253.80656 256.63775 Z M 253.80656 246.399681 " stroke="#000000" stroke-width="1.5" stroke-opacity="1" stroke-miterlimit="4"/><path stroke-linecap="round" transform="matrix(0.515081, 0, 0, 0.515081, 0.499471, 0.423991)" fill-opacity="1" fill="#ffffff" fill-rule="nonzero" stroke-linejoin="round" d="M 363.778593 246.399681 L 476.981306 246.399681 L 476.981306 256.63775 L 363.778593 256.63775 Z M 363.778593 246.399681 " stroke="#000000" stroke-width="1.5" stroke-opacity="1" stroke-miterlimit="4"/><path stroke-linecap="round" transform="matrix(0.515081, 0, 0, 0.515081, 0.499471, 0.423991)" fill-opacity="1" fill="#545454" fill-rule="nonzero" stroke-linejoin="round" d="M 253.80656 294.784039 L 302.319841 294.784039 L 302.319841 305.029692 L 253.80656 305.029692 Z M 253.80656 294.784039 " stroke="#000000" stroke-width="1.5" stroke-opacity="1" stroke-miterlimit="4"/><path stroke-linecap="round" transform="matrix(0.515081, 0, 0, 0.515081, 0.499471, 0.423991)" fill-opacity="1" fill="#545454" fill-rule="nonzero" stroke-linejoin="round" d="M 473.743043 294.784039 L 522.263908 294.784039 L 522.263908 305.029692 L 473.743043 305.029692 Z M 473.743043 294.784039 " stroke="#000000" stroke-width="1.5" stroke-opacity="1" stroke-miterlimit="4"/><path stroke-linecap="round" transform="matrix(0.515081, 0, 0, 0.515081, 0.499471, 0.423991)" fill-opacity="1" fill="#ffffff" fill-rule="nonzero" stroke-linejoin="round" d="M 315.257728 294.784039 L 460.805157 294.784039 L 460.805157 305.029692 L 315.257728 305.029692 Z M 315.257728 294.784039 " stroke="#000000" stroke-width="1.5" stroke-opacity="1" stroke-miterlimit="4"/><path stroke-linecap="round" transform="matrix(0.515081, 0, 0, 0.515081, 0.499471, 0.423991)" fill-opacity="1" fill="#ffffff" fill-rule="nonzero" stroke-linejoin="round" d="M 253.80656 270.59186 L 269.98271 270.59186 L 269.98271 280.829929 L 253.80656 280.829929 Z M 253.80656 270.59186 " stroke="#000000" stroke-width="1.5" stroke-opacity="1" stroke-miterlimit="4"/><path stroke-linecap="round" transform="matrix(0.515081, 0, 0, 0.515081, 0.499471, 0.423991)" fill-opacity="1" fill="#545454" fill-rule="nonzero" stroke-linejoin="round" d="M 282.913012 270.59186 L 428.460441 270.59186 L 428.460441 280.829929 L 282.913012 280.829929 Z M 282.913012 270.59186 " stroke="#000000" stroke-width="1.5" stroke-opacity="1" stroke-miterlimit="4"/><path stroke-linecap="round" transform="matrix(0.515081, 0, 0, 0.515081, 0.499471, 0.423991)" fill-opacity="1" fill="#ffffff" fill-rule="nonzero" stroke-linejoin="round" d="M 253.80656 318.976218 L 350.840707 318.976218 L 350.840707 329.221871 L 253.80656 329.221871 Z M 253.80656 318.976218 " stroke="#000000" stroke-width="1.5" stroke-opacity="1" stroke-miterlimit="4"/><path stroke-linecap="round" transform="matrix(0.515081, 0, 0, 0.515081, 0.499471, 0.423991)" fill-opacity="1" fill="#ffffff" fill-rule="nonzero" stroke-linejoin="round" d="M 363.778593 318.976218 L 476.981306 318.976218 L 476.981306 329.221871 L 363.778593 329.221871 Z M 363.778593 318.976218 " stroke="#000000" stroke-width="1.5" stroke-opacity="1" stroke-miterlimit="4"/><path stroke-linecap="round" transform="matrix(0.515081, 0, 0, 0.515081, 0.499471, 0.423991)" fill-opacity="1" fill="#ffffff" fill-rule="nonzero" stroke-linejoin="round" d="M 253.80656 343.168397 L 269.98271 343.168397 L 269.98271 353.41405 L 253.80656 353.41405 Z M 253.80656 343.168397 " stroke="#000000" stroke-width="1.5" stroke-opacity="1" stroke-miterlimit="4"/><path stroke-linecap="round" transform="matrix(0.515081, 0, 0, 0.515081, 0.499471, 0.423991)" fill-opacity="1" fill="#545454" fill-rule="nonzero" stroke-linejoin="round" d="M 282.913012 343.168397 L 428.460441 343.168397 L 428.460441 353.41405 L 282.913012 353.41405 Z M 282.913012 343.168397 " stroke="#000000" stroke-width="1.5" stroke-opacity="1" stroke-miterlimit="4"/><path stroke-linecap="round" transform="matrix(0.515081, 0, 0, 0.515081, 0.499471, 0.423991)" fill-opacity="1" fill="#ffffff" fill-rule="nonzero" stroke-linejoin="round" d="M 563.094846 44.277438 L 570.367667 44.277438 L 570.367667 356.614394 L 563.094846 356.614394 Z M 563.094846 44.277438 " stroke="#000000" stroke-width="1.5" stroke-opacity="1" stroke-miterlimit="4"/><path stroke-linecap="round" transform="matrix(0.515081, 0, 0, 0.515081, 0.499471, 0.423991)" fill-opacity="1" fill="#000000" fill-rule="nonzero" stroke-linejoin="round" d="M 563.094846 227.326537 L 570.367667 227.326537 L 570.367667 356.614394 L 563.094846 356.614394 Z M 563.094846 227.326537 " stroke="#000000" stroke-width="1.5" stroke-opacity="1" stroke-miterlimit="4"/><g clip-path="url(#5de74f0b7c)"><path fill="#545454" d="M 0.5 108.714844 L 41.554688 108.714844 L 41.554688 147.898438 L 0.5 147.898438 Z M 0.5 108.714844 " fill-opacity="1" fill-rule="nonzero"/></g><path stroke-linecap="round" transform="matrix(0.515081, 0, 0, 0.515081, 0.499471, 0.423991)" fill-opacity="1" fill="#ffffff" fill-rule="nonzero" stroke-linejoin="round" d="M 67.640538 256.630166 L 68.778102 250.57833 C 69.096619 248.849234 67.96664 247.188391 66.237544 246.86229 L 62.21057 246.103914 C 61.672123 246.005325 61.247433 245.588219 61.14126 245.057356 L 60.633149 242.660889 C 60.519392 242.122443 60.739321 241.576412 61.194346 241.273062 L 64.576701 238.952433 C 66.025198 237.966545 66.396802 235.987185 65.410914 234.538688 L 61.929971 229.449988 C 60.936499 228.001491 58.964722 227.629887 57.508641 228.615775 L 54.126287 230.92882 C 53.678845 231.239754 53.087312 231.247338 52.624703 230.943988 L 50.577089 229.609247 C 50.122064 229.31348 49.886967 228.76745 49.99314 228.236587 L 50.751516 224.202029 C 51.070033 222.480517 49.93247 220.812091 48.210958 220.493573 L 42.151537 219.348426 C 40.430025 219.029908 38.769182 220.167472 38.443081 221.888984 L 37.684705 225.915958 C 37.586117 226.454405 37.16901 226.879095 36.638147 226.992851 L 34.241681 227.493379 C 33.703234 227.607136 33.157204 227.387207 32.853853 226.939765 L 30.533224 223.549826 C 29.547336 222.101329 27.567976 221.729725 26.119479 222.723197 L 21.030779 226.196557 C 19.582282 227.190029 19.210678 229.169389 20.196566 230.617886 L 22.509611 234.000241 C 22.820545 234.447683 22.828129 235.046799 22.524779 235.501825 L 21.190038 237.549439 C 20.886688 238.004464 20.348241 238.23956 19.809795 238.133388 L 15.782821 237.382596 C 14.053724 237.056494 12.392882 238.194058 12.066781 239.91557 L 10.929217 245.97499 C 10.6107 247.696503 11.740679 249.357345 13.469775 249.683447 L 17.496749 250.441822 C 18.035196 250.540411 18.452302 250.957518 18.566059 251.48838 L 19.07417 253.892431 C 19.187927 254.423294 18.967998 254.969324 18.512972 255.280258 L 15.130618 257.593303 C 13.68212 258.586775 13.310516 260.558552 14.296405 262.014633 L 17.777348 267.095749 C 18.763236 268.55183 20.742596 268.923434 22.198677 267.929962 L 25.581032 265.616916 C 26.028474 265.305982 26.620007 265.298399 27.082616 265.601749 L 29.13023 266.93649 C 29.585255 267.23984 29.820351 267.778287 29.714179 268.316733 L 28.955803 272.343707 C 28.637286 274.072803 29.767265 275.733646 31.496361 276.059747 L 37.555782 277.19731 C 39.277294 277.523412 40.938136 276.385849 41.264238 274.656752 L 41.999862 270.735951 C 42.113618 270.136834 42.576228 269.666642 43.175344 269.537718 L 45.359466 269.082692 C 45.958582 268.953769 46.572866 269.204033 46.921719 269.70456 L 49.174095 272.99591 C 50.159983 274.451991 52.139343 274.823595 53.58784 273.830123 L 58.67654 270.356763 C 60.125037 269.363291 60.496641 267.383931 59.510753 265.935434 L 57.30388 262.704754 C 56.932276 262.158724 56.924692 261.445851 57.281129 260.892237 L 58.418692 259.155557 C 58.775129 258.601943 59.434915 258.321344 60.079534 258.442684 L 63.924498 259.170724 C 65.653594 259.489242 67.314437 258.359263 67.640538 256.630166 Z M 67.640538 256.630166 " stroke="#000000" stroke-width="1.5" stroke-opacity="1" stroke-miterlimit="4"/><path stroke-linecap="round" transform="matrix(0.515081, 0, 0, 0.515081, 0.499471, 0.423991)" fill-opacity="1" fill="#545454" fill-rule="nonzero" stroke-linejoin="round" d="M 52.882551 248.272868 C 52.882551 249.129833 52.799129 249.979213 52.632287 250.813426 C 52.465444 251.655223 52.21518 252.466685 51.889079 253.262979 C 51.562977 254.05169 51.161038 254.802481 50.690846 255.515354 C 50.213069 256.220644 49.674622 256.88043 49.067922 257.487131 C 48.461222 258.093831 47.801435 258.632278 47.096146 259.110054 C 46.383273 259.580247 45.632481 259.982186 44.836187 260.308288 C 44.047476 260.641973 43.236014 260.884653 42.394217 261.051496 C 41.560004 261.218338 40.710624 261.30176 39.853659 261.30176 C 38.996695 261.30176 38.154898 261.218338 37.313101 261.051496 C 36.471305 260.884653 35.659843 260.641973 34.871132 260.308288 C 34.074838 259.982186 33.324046 259.580247 32.618757 259.110054 C 31.905884 258.632278 31.246097 258.093831 30.639397 257.487131 C 30.032696 256.88043 29.49425 256.220644 29.024057 255.515354 C 28.54628 254.802481 28.144341 254.05169 27.81824 253.262979 C 27.492139 252.466685 27.241875 251.655223 27.075032 250.813426 C 26.908189 249.979213 26.824768 249.129833 26.824768 248.272868 C 26.824768 247.415904 26.908189 246.574107 27.075032 245.73231 C 27.241875 244.890513 27.492139 244.079052 27.81824 243.290341 C 28.144341 242.494047 28.54628 241.743255 29.024057 241.037966 C 29.49425 240.325093 30.032696 239.665306 30.639397 239.058606 C 31.246097 238.459489 31.905884 237.913459 32.618757 237.443266 C 33.324046 236.965489 34.074838 236.56355 34.871132 236.237449 C 35.659843 235.911347 36.471305 235.661083 37.313101 235.494241 C 38.154898 235.327398 38.996695 235.243977 39.853659 235.243977 C 40.710624 235.243977 41.560004 235.327398 42.394217 235.494241 C 43.236014 235.661083 44.047476 235.911347 44.836187 236.237449 C 45.632481 236.56355 46.383273 236.965489 47.096146 237.443266 C 47.801435 237.913459 48.461222 238.459489 49.067922 239.058606 C 49.674622 239.665306 50.213069 240.325093 50.690846 241.037966 C 51.161038 241.743255 51.562977 242.494047 51.889079 243.290341 C 52.21518 244.079052 52.465444 244.890513 52.632287 245.73231 C 52.799129 246.574107 52.882551 247.415904 52.882551 248.272868 Z M 52.882551 248.272868 " stroke="#000000" stroke-width="1.5" stroke-opacity="1" stroke-miterlimit="4"/><path stroke-linecap="round" transform="matrix(0.515081, 0, 0, 0.515081, 0.499471, 0.423991)" fill-opacity="1" fill="#ffffff" fill-rule="nonzero" stroke-linejoin="round" d="M 734.715225 7.390053 L 639.971372 7.390053 L 639.971372 68.590957 L 674.773225 68.590957 L 687.339507 81.15724 L 699.905789 68.590957 L 734.715225 68.590957 Z M 734.715225 7.390053 " stroke="#000000" stroke-width="1.5" stroke-opacity="1" stroke-miterlimit="4"/><path fill="#000000" d="M 352.386719 26.425781 L 358.664062 12.144531 C 358.734375 11.980469 358.890625 11.878906 359.070312 11.878906 L 359.113281 11.878906 C 359.433594 11.878906 359.648438 12.207031 359.519531 12.5 L 353.199219 26.78125 C 353.128906 26.941406 352.96875 27.046875 352.792969 27.046875 C 352.472656 27.046875 352.261719 26.71875 352.386719 26.425781 Z M 352.386719 26.425781 " fill-opacity="1" fill-rule="nonzero"/><path stroke-linecap="round" transform="matrix(0.515081, 0, 0, 0.515081, 0.499471, 0.423991)" fill="none" stroke-linejoin="round" d="M 700.247058 27.479421 L 721.155471 38.377277 L 700.247058 49.282717 " stroke="#000000" stroke-width="1.5" stroke-opacity="1" stroke-miterlimit="4"/><path stroke-linecap="round" transform="matrix(0.515081, 0, 0, 0.515081, 0.499471, 0.423991)" fill="none" stroke-linejoin="round" d="M 674.712554 27.479421 L 653.811725 38.377277 L 674.712554 49.282717 " stroke="#000000" stroke-width="1.5" stroke-opacity="1" stroke-miterlimit="4"/><g clip-path="url(#b2c895889c)"><path stroke-linecap="round" transform="matrix(0.515081, 0, 0, 0.515081, 0.499471, 0.423991)" fill="none" stroke-linejoin="round" d="M 282.913012 579.758806 L 881.900745 579.758806 " stroke="#000000" stroke-width="1.5" stroke-opacity="1" stroke-miterlimit="4"/></g><g clip-path="url(#63ded0855d)"><path stroke-linecap="round" transform="matrix(0.515081, 0, 0, 0.515081, 0.499471, 0.423991)" fill-opacity="1" fill="#ffffff" fill-rule="nonzero" stroke-linejoin="round" d="M 533.821551 580.024237 C 501.454084 580.562684 473.545865 556.105074 474.053977 521.985759 C 474.266322 507.493203 476.116758 490.407003 486.445833 474.192934 C 506.421444 442.849274 555.230492 429.069591 578.459534 398.749738 C 642.966955 314.554888 727.707835 256.387486 801.520524 286.866598 C 905.190457 329.661729 925.24949 435.500615 910.180568 503.784747 C 900.678123 546.852892 868.523001 579.341699 826.592419 580.039405 Z M 533.821551 580.024237 " stroke="#000000" stroke-width="1.5" stroke-opacity="1" stroke-miterlimit="4"/></g><path stroke-linecap="round" transform="matrix(0.515081, 0, 0, 0.515081, 0.499471, 0.423991)" fill-opacity="1" fill="#ffffff" fill-rule="nonzero" stroke-linejoin="round" d="M 729.482434 480.532954 C 729.482434 480.532954 755.236867 446.13304 816.733537 453.178349 " stroke="#000000" stroke-width="1.5" stroke-opacity="1" stroke-miterlimit="4"/><path stroke-linecap="round" transform="matrix(0.515081, 0, 0, 0.515081, 0.499471, 0.423991)" fill-opacity="1" fill="#545454" fill-rule="nonzero" stroke-linejoin="round" d="M 786.269593 191.42504 C 787.930435 199.40315 782.257786 202.542825 781.969604 207.760448 C 781.666253 213.160082 787.012801 217.027797 784.403989 224.475045 C 781.71934 232.142221 775.409655 231.99813 772.48991 236.457378 C 769.570164 240.909042 770.245118 248.583802 766.248479 252.155751 C 762.31251 255.674613 754.781841 254.150279 749.950989 256.584664 C 745.279396 258.935628 742.048716 265.92785 736.687002 267.042662 C 731.325287 268.157474 725.5768 263.030856 720.359177 262.742673 C 714.959543 262.431739 708.657443 266.830317 703.64458 265.169475 C 698.548297 263.485881 696.113911 256.182725 691.662247 253.255395 C 687.210583 250.33565 681.689609 253.369152 675.963874 247.021549 C 671.861063 242.471296 673.961763 235.554911 671.534961 230.724059 C 669.183997 226.052466 662.821226 225.180334 661.076963 217.460071 C 659.863562 212.121107 665.081185 206.342286 665.376952 201.124663 C 665.680302 195.725029 660.409592 191.872481 662.942566 184.410066 C 665.361784 177.311671 671.9369 176.886981 674.856646 172.435317 C 677.776392 167.983652 674.181692 162.273085 681.098076 156.736944 C 686.634218 152.292863 692.564714 154.734832 697.395566 152.300447 C 702.059576 149.957066 700.231891 144.011402 710.659554 141.850032 C 716.021269 140.73522 722.694973 147.674356 727.912597 147.970123 C 733.312231 148.273473 736.436738 141.728692 743.701975 143.715636 C 751.619415 145.877006 751.232644 152.70997 755.684308 155.629715 C 760.135972 158.549461 766.741423 155.993736 771.382681 161.863562 C 776.99466 168.961957 773.089026 174.831783 775.523412 179.662635 C 777.874376 184.334229 784.783177 184.288726 786.269593 191.42504 Z M 786.269593 191.42504 " stroke="#000000" stroke-width="1.5" stroke-opacity="1" stroke-miterlimit="4"/><path stroke-linecap="round" transform="matrix(0.515081, 0, 0, 0.515081, 0.499471, 0.423991)" fill-opacity="1" fill="#fffdfd" fill-rule="nonzero" stroke-linejoin="round" d="M 740.797397 214.555493 C 745.279396 214.487239 748.851345 210.73328 748.767924 206.16786 C 748.692086 201.799617 745.302147 198.280754 741.08558 198.053242 C 737.741144 183.363508 725.607135 172.32156 710.219696 172.564241 C 698.646886 172.738667 694.53649 179.048351 689.068603 188.49771 C 686.171608 193.502989 687.005822 222.821786 690.911455 229.116303 C 693.520267 233.325287 698.19186 236.146444 705.722529 237.382596 L 706.08655 254.468796 C 706.08655 254.468796 705.100661 270.95588 723.021075 270.091332 C 741.199336 269.211616 741.02491 253.240228 741.02491 253.240228 C 741.02491 253.240228 740.494047 216.762366 740.645722 214.555493 C 740.691224 214.555493 740.744311 214.555493 740.797397 214.555493 Z M 740.797397 214.555493 " stroke="#000000" stroke-width="1.5" stroke-opacity="1" stroke-miterlimit="4"/><path stroke-linecap="round" transform="matrix(0.515081, 0, 0, 0.515081, 0.499471, 0.423991)" fill-opacity="1" fill="#000000" fill-rule="nonzero" stroke-linejoin="round" d="M 720.988628 234.28084 L 706.048631 251.253284 L 705.722529 237.382596 C 705.722529 237.382596 710.606468 237.822454 715.103634 236.525632 C 719.600801 235.236393 720.988628 234.28084 720.988628 234.28084 Z M 720.988628 234.28084 " stroke="#000000" stroke-width="1.5" stroke-opacity="1" stroke-miterlimit="4"/><path fill="#545454" d="M 353.589844 100.40625 C 353.589844 100.40625 358.863281 98.636719 361.988281 94.109375 C 361.988281 94.109375 363.328125 97.730469 369.277344 97.144531 C 375.226562 96.558594 375.574219 99.015625 376.832031 101.148438 C 378.085938 103.277344 382.101562 102.464844 382.101562 102.464844 L 388.449219 96.824219 L 379.195312 84.191406 L 355.816406 86.773438 L 354.886719 94.121094 Z M 353.589844 100.40625 " fill-opacity="1" fill-rule="nonzero"/><path stroke-linecap="round" transform="matrix(0.515081, 0, 0, 0.515081, 0.499471, 0.423991)" fill="none" stroke-linejoin="round" d="M 685.504238 194.109689 C 685.504238 194.109689 695.742307 190.674248 701.809312 181.884676 C 701.809312 181.884676 704.41054 188.914817 715.960599 187.777253 C 727.510658 186.63969 728.185612 191.409872 730.627581 195.550602 C 733.061967 199.683749 741.404097 198.075993 741.404097 198.075993 " stroke="#000000" stroke-width="1.5" stroke-opacity="1" stroke-miterlimit="4"/><path fill="#000000" d="M 367.898438 103.707031 L 367.890625 103.632812 C 367.894531 103.527344 367.871094 103.425781 367.824219 103.335938 C 367.792969 103.238281 367.738281 103.15625 367.664062 103.085938 C 367.59375 103.011719 367.511719 102.957031 367.414062 102.925781 C 367.324219 102.878906 367.222656 102.855469 367.117188 102.859375 L 366.910156 102.886719 C 366.78125 102.925781 366.667969 102.992188 366.570312 103.085938 L 366.449219 103.242188 C 366.378906 103.363281 366.34375 103.492188 366.34375 103.632812 L 366.351562 103.707031 C 366.347656 103.8125 366.367188 103.910156 366.417969 104.003906 C 366.449219 104.097656 366.5 104.183594 366.578125 104.253906 C 366.648438 104.328125 366.730469 104.382812 366.824219 104.414062 C 366.917969 104.460938 367.015625 104.484375 367.125 104.480469 L 367.328125 104.449219 C 367.460938 104.414062 367.574219 104.347656 367.671875 104.253906 L 367.792969 104.09375 C 367.859375 103.976562 367.894531 103.84375 367.898438 103.707031 Z M 367.898438 103.707031 " fill-opacity="1" fill-rule="nonzero"/><path fill="#000000" d="M 358.914062 104.335938 L 358.90625 104.265625 C 358.910156 104.160156 358.890625 104.058594 358.839844 103.96875 C 358.8125 103.871094 358.757812 103.789062 358.683594 103.71875 C 358.613281 103.644531 358.527344 103.589844 358.433594 103.558594 C 358.339844 103.511719 358.242188 103.488281 358.136719 103.492188 L 357.929688 103.519531 C 357.800781 103.558594 357.683594 103.625 357.589844 103.71875 L 357.46875 103.875 C 357.398438 103.996094 357.363281 104.125 357.363281 104.265625 L 357.371094 104.339844 C 357.367188 104.445312 357.386719 104.542969 357.4375 104.636719 C 357.464844 104.730469 357.519531 104.816406 357.59375 104.882812 C 357.664062 104.960938 357.75 105.011719 357.84375 105.042969 C 357.9375 105.09375 358.035156 105.113281 358.140625 105.109375 L 358.347656 105.082031 C 358.476562 105.046875 358.59375 104.980469 358.6875 104.882812 L 358.808594 104.726562 C 358.878906 104.605469 358.914062 104.476562 358.914062 104.335938 Z M 358.914062 104.335938 " fill-opacity="1" fill-rule="nonzero"/><path stroke-linecap="round" transform="matrix(0.515081, 0, 0, 0.515081, 0.499471, 0.423991)" fill="none" stroke-linejoin="round" d="M 701.976154 208.981433 L 701.126774 212.970488 C 700.975099 213.706112 701.612134 214.373483 702.355342 214.236975 L 705.859037 213.592356 " stroke="#000000" stroke-width="1.5" stroke-opacity="1" stroke-miterlimit="4"/><path stroke-linecap="round" transform="matrix(0.515081, 0, 0, 0.515081, 0.499471, 0.423991)" fill="none" stroke-linejoin="round" d="M 710.826396 195.891871 C 710.826396 195.891871 715.869594 194.117273 718.463238 197.469293 " stroke="#000000" stroke-width="1.5" stroke-opacity="1" stroke-miterlimit="4"/><path stroke-linecap="round" transform="matrix(0.515081, 0, 0, 0.515081, 0.499471, 0.423991)" fill="none" stroke-linejoin="round" d="M 716.635553 217.323564 C 716.635553 217.323564 715.118802 222.814202 708.217585 221.896568 " stroke="#000000" stroke-width="1.5" stroke-opacity="1" stroke-miterlimit="4"/><path stroke-linecap="round" transform="matrix(0.515081, 0, 0, 0.515081, 0.499471, 0.423991)" fill="none" stroke-linejoin="round" d="M 691.229973 197.924318 C 691.229973 197.924318 695.12044 194.746724 698.874398 196.703333 " stroke="#000000" stroke-width="1.5" stroke-opacity="1" stroke-miterlimit="4"/><path stroke-linecap="round" transform="matrix(0.515081, 0, 0, 0.515081, 0.499471, 0.423991)" fill-opacity="1" fill="#fdfdff" fill-rule="nonzero" stroke-linejoin="round" d="M 800.170616 381.079589 C 795.597612 382.550837 790.918435 382.626675 786.580527 381.564949 C 786.542608 391.840937 786.497105 398.742154 786.497105 398.742154 L 666.097409 398.49189 L 667.083297 375.945386 L 662.388952 387.055588 C 657.808364 395.852744 648.290752 400.433332 638.993068 399.212347 L 541.693489 384.962471 L 548.518869 349.053391 L 625.228552 349.500832 L 656.382618 273.981798 C 658.051044 269.924489 660.439927 266.17053 663.602353 263.129445 C 668.129855 258.79912 673.870758 255.864207 679.763335 255.212004 C 679.763335 255.212004 682.463152 255.052745 683.464208 255.113415 L 706.078966 254.825233 C 706.063798 257.244451 706.678082 270.872459 723.021075 270.091332 C 738.249255 269.363291 740.592635 258.033161 740.949072 254.370207 L 767.454296 254.028938 C 776.562386 253.93035 784.79076 256.614999 789.560942 261.324511 C 794.103612 265.798926 796.848931 272.829067 798.873794 279.100833 L 816.028248 348.833462 L 816.278512 349.622172 C 820.517831 362.76482 813.298096 376.840269 800.170616 381.079589 Z M 800.170616 381.079589 " stroke="#000000" stroke-width="1.5" stroke-opacity="1" stroke-miterlimit="4"/><path fill="#fffdfd" d="M 282.609375 182.441406 C 282.609375 182.441406 274.320312 181.042969 272.007812 179.851562 C 270.964844 179.3125 269 176.875 268.140625 175.835938 C 267.277344 174.792969 265.722656 174.324219 265.777344 175.449219 C 265.785156 175.644531 265.953125 176.070312 266.191406 176.585938 C 266.089844 176.460938 265.996094 176.339844 265.921875 176.226562 C 263.898438 173.277344 262.125 173.289062 262.167969 174.496094 C 262.175781 174.710938 262.339844 175.148438 262.59375 175.707031 C 261.441406 174.378906 260.246094 173.472656 259.34375 174.296875 C 258.957031 174.644531 259.546875 175.941406 260.402344 177.472656 C 260.21875 177.3125 260.035156 177.171875 259.851562 177.0625 C 259.277344 176.714844 258.621094 176.863281 258.613281 177.296875 C 258.597656 178.796875 260.957031 183.78125 264.953125 187.3125 C 265.625 187.90625 267.089844 188.847656 268.851562 189.894531 C 267.523438 190.117188 266.167969 190.582031 265.816406 191.53125 C 265.285156 192.964844 266.710938 193.09375 270.125 192.730469 C 271.082031 192.628906 272.734375 192.773438 274.230469 192.957031 C 277.402344 194.703125 279.964844 196.128906 279.964844 196.128906 Z M 282.609375 182.441406 " fill-opacity="1" fill-rule="nonzero"/><path stroke-linecap="round" transform="matrix(0.515081, 0, 0, 0.515081, 0.499471, 0.423991)" fill="none" stroke-linejoin="round" d="M 531.773937 373.54892 C 531.773937 373.54892 527.473948 372.927052 523.462142 373.351742 C 516.83394 374.057031 514.073453 373.806767 515.09726 371.023529 C 516.538173 367.140647 526.594233 367.451581 526.594233 367.451581 " stroke="#000000" stroke-width="1.5" stroke-opacity="1" stroke-miterlimit="4"/><path stroke-linecap="round" transform="matrix(0.515081, 0, 0, 0.515081, 0.499471, 0.423991)" fill-opacity="1" fill="#ffffff" fill-rule="nonzero" stroke-linejoin="round" d="M 542.573205 379.949609 C 542.573205 379.949609 518.145929 367.004139 513.42125 362.833074 C 505.663068 355.977359 500.225516 345.959218 501.120399 343.388325 C 501.461668 342.379686 502.402054 342.258346 503.524449 342.9333 C 503.805048 343.100143 504.085647 343.312488 504.366246 343.540001 " stroke="#000000" stroke-width="1.5" stroke-opacity="1" stroke-miterlimit="4"/><path stroke-linecap="round" transform="matrix(0.515081, 0, 0, 0.515081, 0.499471, 0.423991)" fill="none" stroke-linejoin="round" d="M 519.124234 361.14948 C 519.124234 361.14948 516.985615 359.746485 515.620539 358.8061 C 513.095148 357.077003 510.228489 353.35338 507.930611 349.440162 C 505.0412 344.541056 501.112815 338.97458 502.523394 337.564001 C 504.290409 335.796986 506.466946 337.48058 508.840662 340.301737 " stroke="#000000" stroke-width="1.5" stroke-opacity="1" stroke-miterlimit="4"/><path stroke-linecap="round" transform="matrix(0.515081, 0, 0, 0.515081, 0.499471, 0.423991)" fill="none" stroke-linejoin="round" d="M 522.097066 356.932912 C 522.097066 356.932912 518.274853 354.38477 516.765686 352.898354 C 513.997615 350.160619 508.082286 339.808793 508.014032 337.950773 C 507.930611 335.607393 511.373636 335.584641 515.294437 341.310376 C 515.446113 341.530305 515.620539 341.765402 515.8253 342.008082 " stroke="#000000" stroke-width="1.5" stroke-opacity="1" stroke-miterlimit="4"/><path stroke-linecap="round" transform="matrix(0.515081, 0, 0, 0.515081, 0.499471, 0.423991)" fill="none" stroke-linejoin="round" d="M 525.05473 353.087948 C 525.05473 353.087948 519.981198 349.591837 519.018061 348.006832 C 518.054924 346.421827 515.074509 340.969108 515.021422 339.801209 C 514.91525 337.617088 517.941168 338.527138 519.609594 340.552001 C 521.27802 342.56928 525.092649 347.301543 527.125095 348.348101 C 531.607095 350.661147 547.699823 353.376131 547.699823 353.376131 L 542.573205 379.949609 " stroke="#000000" stroke-width="1.5" stroke-opacity="1" stroke-miterlimit="4"/><path stroke-linecap="round" transform="matrix(0.515081, 0, 0, 0.515081, 0.499471, 0.423991)" fill="none" stroke-linejoin="round" d="M 667.075713 375.937803 L 669.927205 309.883295 " stroke="#000000" stroke-width="1.5" stroke-opacity="1" stroke-miterlimit="4"/><path fill="#fffdfd" d="M 332.316406 157.945312 C 335.128906 157.816406 337.167969 157.820312 339.554688 158.007812 C 339.113281 158.589844 338.621094 159.273438 338.230469 159.886719 C 338.039062 160.1875 337.941406 160.789062 337.890625 161.453125 C 336.816406 161.285156 336.09375 161.414062 335.527344 162.113281 C 334.921875 162.863281 336.117188 163.660156 338.007812 164.558594 C 338.355469 166.203125 339.171875 166.25 339.753906 165.339844 C 340.199219 165.535156 340.65625 165.730469 341.121094 165.933594 C 343.074219 166.777344 354.914062 174.59375 354.914062 174.59375 L 368.320312 162.789062 C 364.980469 161.511719 348.839844 155.375 345.164062 154.890625 C 338.410156 153.996094 333.550781 155.433594 331.84375 156.308594 C 331.039062 156.71875 331.542969 157.980469 332.320312 157.945312 Z M 332.316406 157.945312 " fill-opacity="1" fill-rule="nonzero"/><path stroke-linecap="round" transform="matrix(0.515081, 0, 0, 0.515081, 0.499471, 0.423991)" fill="none" stroke-linejoin="round" d="M 655.131299 318.59703 C 651.529015 316.883101 649.27664 315.351183 650.436954 313.910269 C 651.521431 312.575528 652.901675 312.310097 654.941705 312.613447 " stroke="#000000" stroke-width="1.5" stroke-opacity="1" stroke-miterlimit="4"/><path stroke-linecap="round" transform="matrix(0.515081, 0, 0, 0.515081, 0.499471, 0.423991)" fill="none" stroke-linejoin="round" d="M 658.043461 305.916991 C 653.500791 305.568138 649.587574 305.568138 644.203107 305.818402 C 642.69394 305.886656 641.72322 303.437103 643.285473 302.640809 C 646.599574 300.942048 656.026182 298.151226 669.138494 299.887906 C 676.282392 300.828291 707.618468 312.742371 714.102579 315.222259 L 688.075131 338.140367 C 688.075131 338.140367 665.088769 322.965273 661.296892 321.327182 C 660.42476 320.947994 659.575379 320.583974 658.74875 320.219953 " stroke="#000000" stroke-width="1.5" stroke-opacity="1" stroke-miterlimit="4"/><path stroke-linecap="round" transform="matrix(0.515081, 0, 0, 0.515081, 0.499471, 0.423991)" fill="none" stroke-linejoin="round" d="M 660.318587 303.285428 C 660.318587 303.285428 657.444344 306.819458 655.684913 309.587529 C 654.759695 311.04361 654.91137 316.283984 655.085796 317.664228 C 655.692497 322.411659 657.922121 322.108308 659.127938 319.249233 C 660.257917 316.557 659.878729 314.160533 661.258973 311.794401 " stroke="#000000" stroke-width="1.5" stroke-opacity="1" stroke-miterlimit="4"/><path stroke-linecap="round" transform="matrix(0.515081, 0, 0, 0.515081, 0.499471, 0.423991)" fill="none" stroke-linejoin="round" d="M 665.915398 303.97555 C 665.915398 303.97555 662.904648 308.328625 661.440983 311.324209 C 660.682607 312.878878 661.1528 317.641477 661.638161 318.945883 C 662.381369 320.947994 663.170079 321.751872 664.512404 320.985913 C 666.415926 319.893852 665.240444 315.396685 666.613104 313.030554 C 667.902342 310.823681 671.967235 305.188951 671.967235 305.188951 " stroke="#000000" stroke-width="1.5" stroke-opacity="1" stroke-miterlimit="4"/><path stroke-linecap="round" transform="matrix(0.515081, 0, 0, 0.515081, 0.499471, 0.423991)" fill="none" stroke-linejoin="round" d="M 668.660718 310.065305 C 667.204637 314.554888 668.46354 316.359822 669.024738 317.368461 C 669.987875 319.08239 671.406037 318.862461 671.967235 317.474634 C 672.710443 315.624198 673.180636 312.279762 673.810088 311.362127 C 675.129661 309.451021 677.890148 306.895296 677.890148 306.895296 " stroke="#000000" stroke-width="1.5" stroke-opacity="1" stroke-miterlimit="4"/><path stroke-linecap="round" transform="matrix(0.515081, 0, 0, 0.515081, 0.499471, 0.423991)" fill-opacity="1" fill="#fdfdff" fill-rule="nonzero" stroke-linejoin="round" d="M 786.572943 381.580116 C 785.670476 381.360187 784.79076 381.087172 783.926212 380.776238 L 685.117467 341.932244 L 697.926429 302.716647 L 763.44249 324.209009 L 786.504689 331.565251 " stroke="#000000" stroke-width="1.5" stroke-opacity="1" stroke-miterlimit="4"/><path stroke-linecap="round" transform="matrix(0.515081, 0, 0, 0.515081, 0.499471, 0.423991)" fill="none" stroke-linejoin="round" d="M 764.625556 324.588196 L 758.65714 303.346098 " stroke="#000000" stroke-width="1.5" stroke-opacity="1" stroke-miterlimit="4"/><path fill="#000000" d="M 412.652344 196.710938 C 410.296875 197.46875 405.652344 196.960938 405.652344 196.960938 L 405.898438 205.808594 L 343.59375 205.679688 L 344.101562 194.066406 L 341.683594 199.789062 C 339.324219 204.320312 334.421875 206.679688 329.632812 206.050781 L 279.246094 198.609375 L 282.722656 180.210938 L 322.542969 180.445312 L 338.589844 141.546875 C 339.449219 139.457031 340.679688 137.523438 342.308594 135.957031 C 344.640625 133.726562 347.597656 132.214844 350.632812 131.878906 C 350.632812 131.878906 352.023438 131.796875 352.539062 131.828125 L 364.1875 131.679688 C 364.179688 132.925781 364.496094 139.945312 372.914062 139.542969 C 380.757812 139.167969 381.964844 133.332031 382.148438 131.445312 L 395.800781 131.269531 C 400.492188 131.21875 404.730469 132.601562 407.1875 135.027344 C 409.527344 137.332031 410.941406 140.953125 411.984375 144.183594 L 420.820312 180.101562 L 420.949219 180.507812 C 423.132812 187.277344 419.414062 194.527344 412.652344 196.710938 Z M 412.652344 196.710938 " fill-opacity="1" fill-rule="nonzero"/><path stroke-linecap="round" transform="matrix(0.515081, 0, 0, 0.515081, 0.499471, 0.423991)" fill="none" stroke-linejoin="round" d="M 667.022627 377.257376 L 669.927205 309.883295 " stroke="#feffff" stroke-width="1.5" stroke-opacity="1" stroke-miterlimit="4"/><path fill="#fffdfd" d="M 282.609375 182.441406 C 282.609375 182.441406 274.320312 181.042969 272.007812 179.851562 C 270.964844 179.3125 269 176.875 268.140625 175.835938 C 267.277344 174.792969 265.722656 174.324219 265.777344 175.449219 C 265.785156 175.644531 265.953125 176.070312 266.191406 176.585938 C 266.089844 176.460938 265.996094 176.339844 265.921875 176.226562 C 263.898438 173.277344 262.125 173.289062 262.167969 174.496094 C 262.175781 174.710938 262.339844 175.148438 262.59375 175.707031 C 261.441406 174.378906 260.246094 173.472656 259.34375 174.296875 C 258.957031 174.644531 259.546875 175.941406 260.402344 177.472656 C 260.21875 177.3125 260.035156 177.171875 259.851562 177.0625 C 259.277344 176.714844 258.621094 176.863281 258.613281 177.296875 C 258.597656 178.796875 260.957031 183.78125 264.953125 187.3125 C 265.625 187.90625 267.089844 188.847656 268.851562 189.894531 C 267.523438 190.117188 266.167969 190.582031 265.816406 191.53125 C 265.285156 192.964844 266.710938 193.09375 270.125 192.730469 C 271.082031 192.628906 272.734375 192.773438 274.230469 192.957031 C 277.402344 194.703125 280.128906 196.128906 280.128906 196.128906 Z M 282.609375 182.441406 " fill-opacity="1" fill-rule="nonzero"/><path stroke-linecap="round" transform="matrix(0.515081, 0, 0, 0.515081, 0.499471, 0.423991)" fill="none" stroke-linejoin="round" d="M 531.773937 373.54892 C 531.773937 373.54892 527.473948 372.927052 523.462142 373.351742 C 516.83394 374.057031 514.073453 373.806767 515.09726 371.023529 C 516.538173 367.140647 526.594233 367.451581 526.594233 367.451581 " stroke="#000000" stroke-width="1.5" stroke-opacity="1" stroke-miterlimit="4"/><path stroke-linecap="round" transform="matrix(0.515081, 0, 0, 0.515081, 0.499471, 0.423991)" fill-opacity="1" fill="#ffffff" fill-rule="nonzero" stroke-linejoin="round" d="M 542.573205 379.949609 C 542.573205 379.949609 518.145929 367.004139 513.42125 362.833074 C 505.663068 355.977359 500.225516 345.959218 501.120399 343.388325 C 501.461668 342.379686 502.402054 342.258346 503.524449 342.9333 C 503.805048 343.100143 504.085647 343.312488 504.366246 343.540001 " stroke="#000000" stroke-width="1.5" stroke-opacity="1" stroke-miterlimit="4"/><path stroke-linecap="round" transform="matrix(0.515081, 0, 0, 0.515081, 0.499471, 0.423991)" fill="none" stroke-linejoin="round" d="M 519.124234 361.14948 C 519.124234 361.14948 516.985615 359.746485 515.620539 358.8061 C 513.095148 357.077003 510.228489 353.35338 507.930611 349.440162 C 505.0412 344.541056 501.112815 338.97458 502.523394 337.564001 C 504.290409 335.796986 506.466946 337.48058 508.840662 340.301737 " stroke="#000000" stroke-width="1.5" stroke-opacity="1" stroke-miterlimit="4"/><path stroke-linecap="round" transform="matrix(0.515081, 0, 0, 0.515081, 0.499471, 0.423991)" fill="none" stroke-linejoin="round" d="M 522.097066 356.932912 C 522.097066 356.932912 518.274853 354.38477 516.765686 352.898354 C 513.997615 350.160619 508.082286 339.808793 508.014032 337.950773 C 507.930611 335.607393 511.373636 335.584641 515.294437 341.310376 C 515.446113 341.530305 515.620539 341.765402 515.8253 342.008082 " stroke="#000000" stroke-width="1.5" stroke-opacity="1" stroke-miterlimit="4"/><path stroke-linecap="round" transform="matrix(0.515081, 0, 0, 0.515081, 0.499471, 0.423991)" fill="none" stroke-linejoin="round" d="M 525.05473 353.087948 C 525.05473 353.087948 519.981198 349.591837 519.018061 348.006832 C 518.054924 346.421827 515.074509 340.969108 515.021422 339.801209 C 514.91525 337.617088 517.941168 338.527138 519.609594 340.552001 C 521.27802 342.56928 525.092649 347.301543 527.125095 348.348101 C 531.607095 350.661147 547.699823 353.376131 547.699823 353.376131 L 542.573205 379.949609 " stroke="#000000" stroke-width="1.5" stroke-opacity="1" stroke-miterlimit="4"/><path fill="#fffdfd" d="M 332.316406 157.945312 C 335.128906 157.816406 337.167969 157.820312 339.554688 158.007812 C 339.113281 158.589844 338.621094 159.273438 338.230469 159.886719 C 338.039062 160.1875 337.941406 160.789062 337.890625 161.453125 C 336.816406 161.285156 336.09375 161.414062 335.527344 162.113281 C 334.921875 162.863281 336.117188 163.660156 338.007812 164.558594 C 338.355469 166.203125 339.171875 166.25 339.753906 165.339844 C 340.199219 165.535156 340.65625 165.730469 341.121094 165.933594 C 343.074219 166.777344 354.914062 174.59375 354.914062 174.59375 L 368.320312 162.789062 C 364.980469 161.511719 348.839844 155.375 345.164062 154.890625 C 338.410156 153.996094 333.550781 155.433594 331.84375 156.308594 C 331.039062 156.71875 331.542969 157.980469 332.320312 157.945312 Z M 332.316406 157.945312 " fill-opacity="1" fill-rule="nonzero"/><path stroke-linecap="round" transform="matrix(0.515081, 0, 0, 0.515081, 0.499471, 0.423991)" fill="none" stroke-linejoin="round" d="M 655.131299 318.59703 C 651.529015 316.883101 649.27664 315.351183 650.436954 313.910269 C 651.521431 312.575528 652.901675 312.310097 654.941705 312.613447 " stroke="#000000" stroke-width="1.5" stroke-opacity="1" stroke-miterlimit="4"/><path stroke-linecap="round" transform="matrix(0.515081, 0, 0, 0.515081, 0.499471, 0.423991)" fill="none" stroke-linejoin="round" d="M 658.043461 305.916991 C 653.500791 305.568138 649.587574 305.568138 644.203107 305.818402 C 642.69394 305.886656 641.72322 303.437103 643.285473 302.640809 C 646.599574 300.942048 656.026182 298.151226 669.138494 299.887906 C 676.282392 300.828291 707.618468 312.742371 714.102579 315.222259 L 688.075131 338.140367 C 688.075131 338.140367 665.088769 322.965273 661.296892 321.327182 C 660.42476 320.947994 659.575379 320.583974 658.74875 320.219953 " stroke="#000000" stroke-width="1.5" stroke-opacity="1" stroke-miterlimit="4"/><path stroke-linecap="round" transform="matrix(0.515081, 0, 0, 0.515081, 0.499471, 0.423991)" fill="none" stroke-linejoin="round" d="M 660.318587 303.285428 C 660.318587 303.285428 657.444344 306.819458 655.684913 309.587529 C 654.759695 311.04361 654.91137 316.283984 655.085796 317.664228 C 655.692497 322.411659 657.922121 322.108308 659.127938 319.249233 C 660.257917 316.557 659.878729 314.160533 661.258973 311.794401 " stroke="#000000" stroke-width="1.5" stroke-opacity="1" stroke-miterlimit="4"/><path stroke-linecap="round" transform="matrix(0.515081, 0, 0, 0.515081, 0.499471, 0.423991)" fill="none" stroke-linejoin="round" d="M 665.915398 303.97555 C 665.915398 303.97555 662.904648 308.328625 661.440983 311.324209 C 660.682607 312.878878 661.1528 317.641477 661.638161 318.945883 C 662.381369 320.947994 663.170079 321.751872 664.512404 320.985913 C 666.415926 319.893852 665.240444 315.396685 666.613104 313.030554 C 667.902342 310.823681 671.967235 305.188951 671.967235 305.188951 " stroke="#000000" stroke-width="1.5" stroke-opacity="1" stroke-miterlimit="4"/><path stroke-linecap="round" transform="matrix(0.515081, 0, 0, 0.515081, 0.499471, 0.423991)" fill="none" stroke-linejoin="round" d="M 668.660718 310.065305 C 667.204637 314.554888 668.46354 316.359822 669.024738 317.368461 C 669.987875 319.08239 671.406037 318.862461 671.967235 317.474634 C 672.710443 315.624198 673.180636 312.279762 673.810088 311.362127 C 675.129661 309.451021 677.890148 306.895296 677.890148 306.895296 " stroke="#000000" stroke-width="1.5" stroke-opacity="1" stroke-miterlimit="4"/><path stroke-linecap="round" transform="matrix(0.515081, 0, 0, 0.515081, 0.499471, 0.423991)" fill-opacity="1" fill="#000000" fill-rule="nonzero" stroke-linejoin="round" d="M 786.572943 381.580116 C 785.670476 381.360187 784.79076 381.087172 783.926212 380.776238 L 685.117467 341.932244 L 697.926429 302.716647 L 763.44249 324.209009 L 786.504689 331.565251 " stroke="#feffff" stroke-width="1.5" stroke-opacity="1" stroke-miterlimit="4"/><path stroke-linecap="round" transform="matrix(0.515081, 0, 0, 0.515081, 0.499471, 0.423991)" fill="none" stroke-linejoin="round" d="M 764.625556 324.588196 L 758.65714 303.346098 " stroke="#feffff" stroke-width="1.5" stroke-opacity="1" stroke-miterlimit="4"/><path stroke-linecap="round" transform="matrix(0.515081, 0, 0, 0.515081, 0.499471, 0.423991)" fill-opacity="1" fill="#fdfdff" fill-rule="nonzero" stroke-linejoin="round" d="M 800.170616 381.079589 C 795.597612 382.550837 790.918435 382.626675 786.580527 381.564949 C 786.542608 391.840937 786.497105 398.742154 786.497105 398.742154 L 666.097409 398.49189 L 667.083297 375.945386 L 662.388952 387.055588 C 657.808364 395.852744 648.290752 400.433332 638.993068 399.212347 L 541.693489 384.962471 L 548.518869 349.053391 L 625.228552 349.500832 L 656.382618 273.981798 C 658.051044 269.924489 660.439927 266.17053 663.602353 263.129445 C 668.129855 258.79912 673.870758 255.864207 679.763335 255.212004 C 679.763335 255.212004 682.463152 255.052745 683.464208 255.113415 L 706.078966 254.825233 C 706.063798 257.244451 706.678082 270.872459 723.021075 270.091332 C 738.249255 269.363291 740.592635 258.033161 740.949072 254.370207 L 767.454296 254.028938 C 776.562386 253.93035 784.79076 256.614999 789.560942 261.324511 C 794.103612 265.798926 796.848931 272.829067 798.873794 279.100833 L 816.028248 348.833462 L 816.278512 349.622172 C 820.517831 362.76482 813.298096 376.840269 800.170616 381.079589 Z M 800.170616 381.079589 " stroke="#000000" stroke-width="1.5" stroke-opacity="1" stroke-miterlimit="4"/><path stroke-linecap="round" transform="matrix(0.515081, 0, 0, 0.515081, 0.499471, 0.423991)" fill-opacity="1" fill="#ffffff" fill-rule="nonzero" stroke-linejoin="round" d="M 720.283339 270.083748 L 720.18475 398.605647 " stroke="#000000" stroke-width="1.5" stroke-opacity="1" stroke-miterlimit="4"/><path stroke-linecap="round" transform="matrix(0.515081, 0, 0, 0.515081, 0.499471, 0.423991)" fill-opacity="1" fill="#545454" fill-rule="nonzero" stroke-linejoin="round" d="M 720.321258 270.121667 C 720.321258 270.121667 715.308396 281.815817 706.109301 275.453047 C 695.416206 268.066469 706.078966 254.825233 706.078966 254.825233 C 706.056215 257.100359 706.609829 269.302621 720.283339 270.083748 Z M 720.321258 270.121667 " stroke="#000000" stroke-width="1.5" stroke-opacity="1" stroke-miterlimit="4"/><path stroke-linecap="round" transform="matrix(0.515081, 0, 0, 0.515081, 0.499471, 0.423991)" fill-opacity="1" fill="#545454" fill-rule="nonzero" stroke-linejoin="round" d="M 734.290535 277.986021 C 723.036242 281.542802 720.321258 270.121667 720.321258 270.121667 L 720.36676 270.083748 C 721.200974 270.129251 722.088273 270.129251 723.021075 270.091332 C 737.862484 269.370875 740.471295 258.601943 740.926321 254.673558 L 741.100747 254.544634 C 744.490686 257.972491 745.537244 274.42924 734.290535 277.986021 Z M 734.290535 277.986021 " stroke="#000000" stroke-width="1.5" stroke-opacity="1" stroke-miterlimit="4"/><path fill="#fffdfd" d="M 282.609375 182.441406 C 282.609375 182.441406 274.320312 181.042969 272.007812 179.851562 C 270.964844 179.3125 269 176.875 268.140625 175.835938 C 267.277344 174.792969 265.722656 174.324219 265.777344 175.449219 C 265.785156 175.644531 265.953125 176.070312 266.191406 176.585938 C 266.089844 176.460938 265.996094 176.339844 265.921875 176.226562 C 263.898438 173.277344 262.125 173.289062 262.167969 174.496094 C 262.175781 174.710938 262.339844 175.148438 262.59375 175.707031 C 261.441406 174.378906 260.246094 173.472656 259.34375 174.296875 C 258.957031 174.644531 259.546875 175.941406 260.402344 177.472656 C 260.21875 177.3125 260.035156 177.171875 259.851562 177.0625 C 259.277344 176.714844 258.621094 176.863281 258.613281 177.296875 C 258.597656 178.796875 260.957031 183.78125 264.953125 187.3125 C 265.625 187.90625 267.089844 188.847656 268.851562 189.894531 C 267.523438 190.117188 266.167969 190.582031 265.816406 191.53125 C 265.285156 192.964844 266.710938 193.09375 270.125 192.730469 C 271.082031 192.628906 272.734375 192.773438 274.230469 192.957031 C 277.402344 194.703125 279.964844 196.128906 279.964844 196.128906 Z M 282.609375 182.441406 " fill-opacity="1" fill-rule="nonzero"/><path stroke-linecap="round" transform="matrix(0.515081, 0, 0, 0.515081, 0.499471, 0.423991)" fill="none" stroke-linejoin="round" d="M 531.773937 373.54892 C 531.773937 373.54892 527.473948 372.927052 523.462142 373.351742 C 516.83394 374.057031 514.073453 373.806767 515.09726 371.023529 C 516.538173 367.140647 526.594233 367.451581 526.594233 367.451581 " stroke="#000000" stroke-width="1.5" stroke-opacity="1" stroke-miterlimit="4"/><path stroke-linecap="round" transform="matrix(0.515081, 0, 0, 0.515081, 0.499471, 0.423991)" fill-opacity="1" fill="#ffffff" fill-rule="nonzero" stroke-linejoin="round" d="M 542.573205 379.949609 C 542.573205 379.949609 518.145929 367.004139 513.42125 362.833074 C 505.663068 355.977359 500.225516 345.959218 501.120399 343.388325 C 501.461668 342.379686 502.402054 342.258346 503.524449 342.9333 C 503.805048 343.100143 504.085647 343.312488 504.366246 343.540001 " stroke="#000000" stroke-width="1.5" stroke-opacity="1" stroke-miterlimit="4"/><path stroke-linecap="round" transform="matrix(0.515081, 0, 0, 0.515081, 0.499471, 0.423991)" fill="none" stroke-linejoin="round" d="M 519.124234 361.14948 C 519.124234 361.14948 516.985615 359.746485 515.620539 358.8061 C 513.095148 357.077003 510.228489 353.35338 507.930611 349.440162 C 505.0412 344.541056 501.112815 338.97458 502.523394 337.564001 C 504.290409 335.796986 506.466946 337.48058 508.840662 340.301737 " stroke="#000000" stroke-width="1.5" stroke-opacity="1" stroke-miterlimit="4"/><path stroke-linecap="round" transform="matrix(0.515081, 0, 0, 0.515081, 0.499471, 0.423991)" fill="none" stroke-linejoin="round" d="M 522.097066 356.932912 C 522.097066 356.932912 518.274853 354.38477 516.765686 352.898354 C 513.997615 350.160619 508.082286 339.808793 508.014032 337.950773 C 507.930611 335.607393 511.373636 335.584641 515.294437 341.310376 C 515.446113 341.530305 515.620539 341.765402 515.8253 342.008082 " stroke="#000000" stroke-width="1.5" stroke-opacity="1" stroke-miterlimit="4"/><path stroke-linecap="round" transform="matrix(0.515081, 0, 0, 0.515081, 0.499471, 0.423991)" fill="none" stroke-linejoin="round" d="M 525.05473 353.087948 C 525.05473 353.087948 519.981198 349.591837 519.018061 348.006832 C 518.054924 346.421827 515.074509 340.969108 515.021422 339.801209 C 514.91525 337.617088 517.941168 338.527138 519.609594 340.552001 C 521.27802 342.56928 525.092649 347.301543 527.125095 348.348101 C 531.607095 350.661147 547.699823 353.376131 547.699823 353.376131 L 542.573205 379.949609 " stroke="#000000" stroke-width="1.5" stroke-opacity="1" stroke-miterlimit="4"/><path stroke-linecap="round" transform="matrix(0.515081, 0, 0, 0.515081, 0.499471, 0.423991)" fill="none" stroke-linejoin="round" d="M 667.075713 375.937803 L 669.927205 309.883295 " stroke="#000000" stroke-width="1.5" stroke-opacity="1" stroke-miterlimit="4"/><path fill="#fffdfd" d="M 332.316406 157.945312 C 335.128906 157.816406 337.167969 157.820312 339.554688 158.007812 C 339.113281 158.589844 338.621094 159.273438 338.230469 159.886719 C 338.039062 160.1875 337.941406 160.789062 337.890625 161.453125 C 336.816406 161.285156 336.09375 161.414062 335.527344 162.113281 C 334.921875 162.863281 336.117188 163.660156 338.007812 164.558594 C 338.355469 166.203125 339.171875 166.25 339.753906 165.339844 C 340.199219 165.535156 340.65625 165.730469 341.121094 165.933594 C 343.074219 166.777344 354.914062 174.59375 354.914062 174.59375 L 368.320312 162.789062 C 364.980469 161.511719 348.839844 155.375 345.164062 154.890625 C 338.410156 153.996094 333.550781 155.433594 331.84375 156.308594 C 331.039062 156.71875 331.542969 157.980469 332.320312 157.945312 Z M 332.316406 157.945312 " fill-opacity="1" fill-rule="nonzero"/><path stroke-linecap="round" transform="matrix(0.515081, 0, 0, 0.515081, 0.499471, 0.423991)" fill="none" stroke-linejoin="round" d="M 655.131299 318.59703 C 651.529015 316.883101 649.27664 315.351183 650.436954 313.910269 C 651.521431 312.575528 652.901675 312.310097 654.941705 312.613447 " stroke="#000000" stroke-width="1.5" stroke-opacity="1" stroke-miterlimit="4"/><path stroke-linecap="round" transform="matrix(0.515081, 0, 0, 0.515081, 0.499471, 0.423991)" fill="none" stroke-linejoin="round" d="M 658.043461 305.916991 C 653.500791 305.568138 649.587574 305.568138 644.203107 305.818402 C 642.69394 305.886656 641.72322 303.437103 643.285473 302.640809 C 646.599574 300.942048 656.026182 298.151226 669.138494 299.887906 C 676.282392 300.828291 707.618468 312.742371 714.102579 315.222259 L 688.075131 338.140367 C 688.075131 338.140367 665.088769 322.965273 661.296892 321.327182 C 660.42476 320.947994 659.575379 320.583974 658.74875 320.219953 " stroke="#000000" stroke-width="1.5" stroke-opacity="1" stroke-miterlimit="4"/><path stroke-linecap="round" transform="matrix(0.515081, 0, 0, 0.515081, 0.499471, 0.423991)" fill="none" stroke-linejoin="round" d="M 660.318587 303.285428 C 660.318587 303.285428 657.444344 306.819458 655.684913 309.587529 C 654.759695 311.04361 654.91137 316.283984 655.085796 317.664228 C 655.692497 322.411659 657.922121 322.108308 659.127938 319.249233 C 660.257917 316.557 659.878729 314.160533 661.258973 311.794401 " stroke="#000000" stroke-width="1.5" stroke-opacity="1" stroke-miterlimit="4"/><path stroke-linecap="round" transform="matrix(0.515081, 0, 0, 0.515081, 0.499471, 0.423991)" fill="none" stroke-linejoin="round" d="M 665.915398 303.97555 C 665.915398 303.97555 662.904648 308.328625 661.440983 311.324209 C 660.682607 312.878878 661.1528 317.641477 661.638161 318.945883 C 662.381369 320.947994 663.170079 321.751872 664.512404 320.985913 C 666.415926 319.893852 665.240444 315.396685 666.613104 313.030554 C 667.902342 310.823681 671.967235 305.188951 671.967235 305.188951 " stroke="#000000" stroke-width="1.5" stroke-opacity="1" stroke-miterlimit="4"/><path stroke-linecap="round" transform="matrix(0.515081, 0, 0, 0.515081, 0.499471, 0.423991)" fill="none" stroke-linejoin="round" d="M 668.660718 310.065305 C 667.204637 314.554888 668.46354 316.359822 669.024738 317.368461 C 669.987875 319.08239 671.406037 318.862461 671.967235 317.474634 C 672.710443 315.624198 673.180636 312.279762 673.810088 311.362127 C 675.129661 309.451021 677.890148 306.895296 677.890148 306.895296 " stroke="#000000" stroke-width="1.5" stroke-opacity="1" stroke-miterlimit="4"/><path stroke-linecap="round" transform="matrix(0.515081, 0, 0, 0.515081, 0.499471, 0.423991)" fill-opacity="1" fill="#fdfdff" fill-rule="nonzero" stroke-linejoin="round" d="M 786.572943 381.580116 C 785.670476 381.360187 784.79076 381.087172 783.926212 380.776238 L 685.117467 341.932244 L 697.926429 302.716647 L 763.44249 324.209009 L 786.504689 331.565251 " stroke="#000000" stroke-width="1.5" stroke-opacity="1" stroke-miterlimit="4"/><path stroke-linecap="round" transform="matrix(0.515081, 0, 0, 0.515081, 0.499471, 0.423991)" fill="none" stroke-linejoin="round" d="M 764.625556 324.588196 L 758.65714 303.346098 " stroke="#000000" stroke-width="1.5" stroke-opacity="1" stroke-miterlimit="4"/><path stroke-linecap="round" transform="matrix(0.515081, 0, 0, 0.515081, 0.499471, 0.423991)" fill-opacity="1" fill="#fdfdff" fill-rule="nonzero" stroke-linejoin="round" d="M 816.119253 349.129228 L 816.028248 348.833462 L 798.86621 279.100833 C 796.848931 272.829067 794.096028 265.798926 789.560942 261.316927 C 784.79076 256.607415 776.562386 253.937933 767.454296 254.036522 L 739.720504 254.392959 L 721.724253 264.00916 L 706.078966 254.825233 L 683.456624 255.113415 C 682.463152 255.060329 679.755752 255.219588 679.755752 255.219588 C 673.870758 255.864207 668.129855 258.79912 663.609937 263.129445 C 660.439927 266.17053 658.051044 269.924489 656.382618 273.981798 L 625.228552 349.500832 L 548.526452 349.053391 L 541.693489 384.962471 L 638.993068 399.212347 C 648.290752 400.433332 657.808364 395.852744 662.396536 387.048004 L 667.075713 375.937803 L 666.104992 398.499474 L 786.504689 398.749738 C 786.504689 398.749738 786.535024 391.840937 786.580527 381.557365 C 791.661643 382.801101 797.205368 382.497751 802.476078 380.207457 C 814.352238 375.058087 820.100724 361.45283 816.119253 349.129228 Z M 816.119253 349.129228 " stroke="#000000" stroke-width="1.5" stroke-opacity="1" stroke-miterlimit="4"/><path stroke-linecap="round" transform="matrix(0.515081, 0, 0, 0.515081, 0.499471, 0.423991)" fill-opacity="1" fill="#ffffff" fill-rule="nonzero" stroke-linejoin="round" d="M 721.724253 264.00916 L 721.31473 299.675561 " stroke="#000000" stroke-width="1.5" stroke-opacity="1" stroke-miterlimit="4"/><path stroke-linecap="round" transform="matrix(0.515081, 0, 0, 0.515081, 0.499471, 0.423991)" fill-opacity="1" fill="#fdfdff" fill-rule="nonzero" stroke-linejoin="round" d="M 741.517854 247.021549 L 746.401792 254.05169 L 732.242921 276.984965 L 721.724253 264.00916 Z M 741.517854 247.021549 " stroke="#000000" stroke-width="1.5" stroke-opacity="1" stroke-miterlimit="4"/><path stroke-linecap="round" transform="matrix(0.515081, 0, 0, 0.515081, 0.499471, 0.423991)" fill-opacity="1" fill="#fdfdff" fill-rule="nonzero" stroke-linejoin="round" d="M 721.724253 264.00916 L 710.545798 275.801899 L 700.565576 254.832816 L 705.540519 248.272868 Z M 721.724253 264.00916 " stroke="#000000" stroke-width="1.5" stroke-opacity="1" stroke-miterlimit="4"/><path fill="#fffdfd" d="M 282.609375 182.441406 C 282.609375 182.441406 274.320312 181.042969 272.007812 179.851562 C 270.964844 179.3125 269 176.875 268.140625 175.835938 C 267.277344 174.792969 265.722656 174.324219 265.777344 175.449219 C 265.785156 175.644531 265.953125 176.070312 266.191406 176.585938 C 266.089844 176.460938 265.996094 176.339844 265.921875 176.226562 C 263.898438 173.277344 262.125 173.289062 262.167969 174.496094 C 262.175781 174.710938 262.339844 175.148438 262.59375 175.707031 C 261.441406 174.378906 260.246094 173.472656 259.34375 174.296875 C 258.957031 174.644531 259.546875 175.941406 260.402344 177.472656 C 260.21875 177.3125 260.035156 177.171875 259.851562 177.0625 C 259.277344 176.714844 258.621094 176.863281 258.613281 177.296875 C 258.597656 178.796875 260.957031 183.78125 264.953125 187.3125 C 265.625 187.90625 267.089844 188.847656 268.851562 189.894531 C 267.523438 190.117188 266.167969 190.582031 265.816406 191.53125 C 265.285156 192.964844 266.710938 193.09375 270.125 192.730469 C 271.082031 192.628906 272.734375 192.773438 274.230469 192.957031 C 277.402344 194.703125 279.992188 195.992188 279.992188 195.992188 Z M 282.609375 182.441406 " fill-opacity="1" fill-rule="nonzero"/><path stroke-linecap="round" transform="matrix(0.515081, 0, 0, 0.515081, 0.499471, 0.423991)" fill="none" stroke-linejoin="round" d="M 531.773937 373.54892 C 531.773937 373.54892 527.473948 372.927052 523.462142 373.351742 C 516.83394 374.057031 514.073453 373.806767 515.09726 371.023529 C 516.538173 367.140647 526.594233 367.451581 526.594233 367.451581 " stroke="#000000" stroke-width="1.5" stroke-opacity="1" stroke-miterlimit="4"/><path stroke-linecap="round" transform="matrix(0.515081, 0, 0, 0.515081, 0.499471, 0.423991)" fill-opacity="1" fill="#ffffff" fill-rule="nonzero" stroke-linejoin="round" d="M 542.573205 379.949609 C 542.573205 379.949609 518.145929 367.004139 513.42125 362.833074 C 505.663068 355.977359 500.225516 345.959218 501.120399 343.388325 C 501.461668 342.379686 502.402054 342.258346 503.524449 342.9333 C 503.805048 343.100143 504.085647 343.312488 504.366246 343.540001 " stroke="#000000" stroke-width="1.5" stroke-opacity="1" stroke-miterlimit="4"/><path stroke-linecap="round" transform="matrix(0.515081, 0, 0, 0.515081, 0.499471, 0.423991)" fill="none" stroke-linejoin="round" d="M 519.124234 361.14948 C 519.124234 361.14948 516.985615 359.746485 515.620539 358.8061 C 513.095148 357.077003 510.228489 353.35338 507.930611 349.440162 C 505.0412 344.541056 501.112815 338.97458 502.523394 337.564001 C 504.290409 335.796986 506.466946 337.48058 508.840662 340.301737 " stroke="#000000" stroke-width="1.5" stroke-opacity="1" stroke-miterlimit="4"/><path stroke-linecap="round" transform="matrix(0.515081, 0, 0, 0.515081, 0.499471, 0.423991)" fill="none" stroke-linejoin="round" d="M 522.097066 356.932912 C 522.097066 356.932912 518.274853 354.38477 516.765686 352.898354 C 513.997615 350.160619 508.082286 339.808793 508.014032 337.950773 C 507.930611 335.607393 511.373636 335.584641 515.294437 341.310376 C 515.446113 341.530305 515.620539 341.765402 515.8253 342.008082 " stroke="#000000" stroke-width="1.5" stroke-opacity="1" stroke-miterlimit="4"/><path stroke-linecap="round" transform="matrix(0.515081, 0, 0, 0.515081, 0.499471, 0.423991)" fill="none" stroke-linejoin="round" d="M 525.05473 353.087948 C 525.05473 353.087948 519.981198 349.591837 519.018061 348.006832 C 518.054924 346.421827 515.074509 340.969108 515.021422 339.801209 C 514.91525 337.617088 517.941168 338.527138 519.609594 340.552001 C 521.27802 342.56928 525.092649 347.301543 527.125095 348.348101 C 531.607095 350.661147 547.699823 353.376131 547.699823 353.376131 L 542.573205 379.949609 " stroke="#000000" stroke-width="1.5" stroke-opacity="1" stroke-miterlimit="4"/><path stroke-linecap="round" transform="matrix(0.515081, 0, 0, 0.515081, 0.499471, 0.423991)" fill="none" stroke-linejoin="round" d="M 667.075713 375.937803 L 669.927205 309.883295 " stroke="#000000" stroke-width="1.5" stroke-opacity="1" stroke-miterlimit="4"/><path fill="#fffdfd" d="M 332.316406 157.945312 C 335.128906 157.816406 337.167969 157.820312 339.554688 158.007812 C 339.113281 158.589844 338.621094 159.273438 338.230469 159.886719 C 338.039062 160.1875 337.941406 160.789062 337.890625 161.453125 C 336.816406 161.285156 336.09375 161.414062 335.527344 162.113281 C 334.921875 162.863281 336.117188 163.660156 338.007812 164.558594 C 338.355469 166.203125 339.171875 166.25 339.753906 165.339844 C 340.199219 165.535156 340.65625 165.730469 341.121094 165.933594 C 343.074219 166.777344 354.914062 174.59375 354.914062 174.59375 L 368.320312 162.789062 C 364.980469 161.511719 348.839844 155.375 345.164062 154.890625 C 338.410156 153.996094 333.550781 155.433594 331.84375 156.308594 C 331.039062 156.71875 331.542969 157.980469 332.320312 157.945312 Z M 332.316406 157.945312 " fill-opacity="1" fill-rule="nonzero"/><path stroke-linecap="round" transform="matrix(0.515081, 0, 0, 0.515081, 0.499471, 0.423991)" fill="none" stroke-linejoin="round" d="M 655.131299 318.59703 C 651.529015 316.883101 649.27664 315.351183 650.436954 313.910269 C 651.521431 312.575528 652.901675 312.310097 654.941705 312.613447 " stroke="#000000" stroke-width="1.5" stroke-opacity="1" stroke-miterlimit="4"/><path stroke-linecap="round" transform="matrix(0.515081, 0, 0, 0.515081, 0.499471, 0.423991)" fill="none" stroke-linejoin="round" d="M 658.043461 305.916991 C 653.500791 305.568138 649.587574 305.568138 644.203107 305.818402 C 642.69394 305.886656 641.72322 303.437103 643.285473 302.640809 C 646.599574 300.942048 656.026182 298.151226 669.138494 299.887906 C 676.282392 300.828291 707.618468 312.742371 714.102579 315.222259 L 688.075131 338.140367 C 688.075131 338.140367 665.088769 322.965273 661.296892 321.327182 C 660.42476 320.947994 659.575379 320.583974 658.74875 320.219953 " stroke="#000000" stroke-width="1.5" stroke-opacity="1" stroke-miterlimit="4"/><path stroke-linecap="round" transform="matrix(0.515081, 0, 0, 0.515081, 0.499471, 0.423991)" fill="none" stroke-linejoin="round" d="M 660.318587 303.285428 C 660.318587 303.285428 657.444344 306.819458 655.684913 309.587529 C 654.759695 311.04361 654.91137 316.283984 655.085796 317.664228 C 655.692497 322.411659 657.922121 322.108308 659.127938 319.249233 C 660.257917 316.557 659.878729 314.160533 661.258973 311.794401 " stroke="#000000" stroke-width="1.5" stroke-opacity="1" stroke-miterlimit="4"/><path stroke-linecap="round" transform="matrix(0.515081, 0, 0, 0.515081, 0.499471, 0.423991)" fill="none" stroke-linejoin="round" d="M 665.915398 303.97555 C 665.915398 303.97555 662.904648 308.328625 661.440983 311.324209 C 660.682607 312.878878 661.1528 317.641477 661.638161 318.945883 C 662.381369 320.947994 663.170079 321.751872 664.512404 320.985913 C 666.415926 319.893852 665.240444 315.396685 666.613104 313.030554 C 667.902342 310.823681 671.967235 305.188951 671.967235 305.188951 " stroke="#000000" stroke-width="1.5" stroke-opacity="1" stroke-miterlimit="4"/><path stroke-linecap="round" transform="matrix(0.515081, 0, 0, 0.515081, 0.499471, 0.423991)" fill="none" stroke-linejoin="round" d="M 668.660718 310.065305 C 667.204637 314.554888 668.46354 316.359822 669.024738 317.368461 C 669.987875 319.08239 671.406037 318.862461 671.967235 317.474634 C 672.710443 315.624198 673.180636 312.279762 673.810088 311.362127 C 675.129661 309.451021 677.890148 306.895296 677.890148 306.895296 " stroke="#000000" stroke-width="1.5" stroke-opacity="1" stroke-miterlimit="4"/><path stroke-linecap="round" transform="matrix(0.515081, 0, 0, 0.515081, 0.499471, 0.423991)" fill-opacity="1" fill="#fdfdff" fill-rule="nonzero" stroke-linejoin="round" d="M 786.572943 381.580116 C 785.670476 381.360187 784.79076 381.087172 783.926212 380.776238 L 685.117467 341.932244 L 697.926429 302.716647 L 763.44249 324.209009 L 786.504689 331.565251 " stroke="#000000" stroke-width="1.5" stroke-opacity="1" stroke-miterlimit="4"/><path stroke-linecap="round" transform="matrix(0.515081, 0, 0, 0.515081, 0.499471, 0.423991)" fill="none" stroke-linejoin="round" d="M 764.625556 324.588196 L 758.65714 303.346098 " stroke="#000000" stroke-width="1.5" stroke-opacity="1" stroke-miterlimit="4"/><path fill="#000000" d="M 412.652344 196.710938 C 410.296875 197.46875 405.652344 196.960938 405.652344 196.960938 L 405.90625 205.953125 L 343.59375 205.679688 L 344.101562 194.066406 L 341.683594 199.789062 C 339.324219 204.320312 334.421875 206.679688 329.632812 206.050781 L 279.246094 198.609375 L 282.722656 180.210938 L 322.542969 180.445312 L 338.589844 141.546875 C 339.449219 139.457031 340.679688 137.523438 342.308594 135.957031 C 344.640625 133.726562 347.597656 132.214844 350.632812 131.878906 C 350.632812 131.878906 352.023438 131.796875 352.539062 131.828125 L 364.1875 131.679688 L 372.246094 136.410156 L 382.148438 131.445312 L 395.800781 131.269531 C 400.492188 131.21875 404.730469 132.601562 407.1875 135.027344 C 409.527344 137.332031 410.941406 140.953125 411.984375 144.183594 L 420.820312 180.101562 L 420.949219 180.507812 C 423.132812 187.277344 419.414062 194.527344 412.652344 196.710938 Z M 412.652344 196.710938 " fill-opacity="1" fill-rule="nonzero"/><path stroke-linecap="round" transform="matrix(0.515081, 0, 0, 0.515081, 0.499471, 0.423991)" fill="none" stroke-linejoin="round" d="M 667.022627 377.257376 L 669.927205 309.883295 " stroke="#feffff" stroke-width="1.5" stroke-opacity="1" stroke-miterlimit="4"/><path stroke-linecap="round" transform="matrix(0.515081, 0, 0, 0.515081, 0.499471, 0.423991)" fill-opacity="1" fill="#000000" fill-rule="nonzero" stroke-linejoin="round" d="M 500.255851 351.063086 L 629.225191 351.063086 C 629.225191 351.063086 608.468453 255.272674 608.468453 255.272674 C 608.013428 253.16439 606.147824 251.662807 603.994038 251.662807 L 484.405803 251.662807 C 481.486057 251.662807 479.309519 254.362624 479.923803 257.214116 Z M 500.255851 351.063086 " stroke="#000000" stroke-width="1.5" stroke-opacity="1" stroke-miterlimit="4"/><path stroke-linecap="round" transform="matrix(0.515081, 0, 0, 0.515081, 0.499471, 0.423991)" fill-opacity="1" fill="#545454" fill-rule="nonzero" stroke-linejoin="round" d="M 500.589536 351.063086 L 617.87231 351.063086 C 621.512512 351.063086 624.227496 347.703482 623.453953 344.146701 L 604.198799 255.272674 C 603.743774 253.16439 601.87817 251.662807 599.724384 251.662807 L 479.097174 251.662807 C 476.708291 251.662807 474.926109 253.86968 475.43422 256.197892 L 495.015476 346.558335 C 495.584258 349.189898 497.904887 351.063086 500.589536 351.063086 Z M 500.589536 351.063086 " stroke="#000000" stroke-width="1.5" stroke-opacity="1" stroke-miterlimit="4"/><path stroke-linecap="round" transform="matrix(-0.515081, 0, 0, -0.515081, 605.300669, 358.90613)" fill-opacity="1" fill="#000000" fill-rule="nonzero" stroke-linejoin="round" d="M 496.690242 344.908952 L 677.494548 344.908952 C 677.896487 344.908952 678.290843 344.992373 678.670031 345.144048 C 679.041635 345.303307 679.37532 345.523236 679.663502 345.811419 C 679.951685 346.099602 680.179198 346.433287 680.330873 346.812475 C 680.490132 347.184079 680.565969 347.578434 680.565969 347.987957 C 680.565969 348.389896 680.490132 348.784251 680.330873 349.163439 C 680.179198 349.535043 679.951685 349.868728 679.663502 350.156911 C 679.37532 350.445093 679.041635 350.672606 678.670031 350.824281 C 678.290843 350.98354 677.896487 351.059377 677.494548 351.059377 L 496.690242 351.059377 C 496.288303 351.059377 495.893948 350.98354 495.51476 350.824281 C 495.143156 350.672606 494.809471 350.445093 494.521288 350.156911 C 494.233105 349.868728 494.013176 349.535043 493.853917 349.163439 C 493.694659 348.784251 493.618821 348.389896 493.618821 347.987957 C 493.618821 347.578434 493.694659 347.184079 493.853917 346.812475 C 494.013176 346.433287 494.233105 346.099602 494.521288 345.811419 C 494.809471 345.523236 495.143156 345.303307 495.51476 345.144048 C 495.893948 344.992373 496.288303 344.908952 496.690242 344.908952 Z M 496.690242 344.908952 " stroke="#000000" stroke-width="1.5" stroke-opacity="1" stroke-miterlimit="4"/><path stroke-linecap="round" transform="matrix(-0.515081, 0, 0, -0.515081, 605.300669, 358.90613)" fill="none" stroke-linejoin="round" d="M 496.690242 344.908952 L 677.494548 344.908952 C 677.896487 344.908952 678.290843 344.992373 678.670031 345.144048 C 679.041635 345.303307 679.37532 345.523236 679.663502 345.811419 C 679.951685 346.099602 680.179198 346.433287 680.330873 346.812475 C 680.490132 347.184079 680.565969 347.578434 680.565969 347.987957 C 680.565969 348.389896 680.490132 348.784251 680.330873 349.163439 C 680.179198 349.535043 679.951685 349.868728 679.663502 350.156911 C 679.37532 350.445093 679.041635 350.672606 678.670031 350.824281 C 678.290843 350.98354 677.896487 351.059377 677.494548 351.059377 L 496.690242 351.059377 C 496.288303 351.059377 495.893948 350.98354 495.51476 350.824281 C 495.143156 350.672606 494.809471 350.445093 494.521288 350.156911 C 494.233105 349.868728 494.013176 349.535043 493.853917 349.163439 C 493.694659 348.784251 493.618821 348.389896 493.618821 347.987957 C 493.618821 347.578434 493.694659 347.184079 493.853917 346.812475 C 494.013176 346.433287 494.233105 346.099602 494.521288 345.811419 C 494.809471 345.523236 495.143156 345.303307 495.51476 345.144048 C 495.893948 344.992373 496.288303 344.908952 496.690242 344.908952 Z M 496.690242 344.908952 " stroke="#feffff" stroke-width="1.5" stroke-opacity="1" stroke-miterlimit="4"/><path stroke-linecap="round" transform="matrix(-0.515081, 0, 0, -0.515081, 576.700279, 358.90613)" fill-opacity="1" fill="#545454" fill-rule="nonzero" stroke-linejoin="round" d="M 496.692519 344.908952 L 621.96857 344.908952 C 622.370509 344.908952 622.764864 344.992373 623.144052 345.144048 C 623.515656 345.303307 623.849341 345.523236 624.137524 345.811419 C 624.425707 346.099602 624.653219 346.433287 624.804894 346.812475 C 624.964153 347.184079 625.039991 347.578434 625.039991 347.987957 C 625.039991 348.389896 624.964153 348.784251 624.804894 349.163439 C 624.653219 349.535043 624.425707 349.868728 624.137524 350.156911 C 623.849341 350.445093 623.515656 350.672606 623.144052 350.824281 C 622.764864 350.98354 622.370509 351.059377 621.96857 351.059377 L 496.692519 351.059377 C 496.282996 351.059377 495.896224 350.98354 495.517036 350.824281 C 495.137849 350.672606 494.811747 350.445093 494.523565 350.156911 C 494.235382 349.868728 494.007869 349.535043 493.856194 349.163439 C 493.696935 348.784251 493.621098 348.389896 493.621098 347.987957 C 493.621098 347.578434 493.696935 347.184079 493.856194 346.812475 C 494.007869 346.433287 494.235382 346.099602 494.523565 345.811419 C 494.811747 345.523236 495.137849 345.303307 495.517036 345.144048 C 495.896224 344.992373 496.282996 344.908952 496.692519 344.908952 Z M 496.692519 344.908952 " stroke="#000000" stroke-width="1.5" stroke-opacity="1" stroke-miterlimit="4"/><path stroke-linecap="round" transform="matrix(0.515081, 0, 0, 0.515081, 0.499471, 0.423991)" fill-opacity="1" fill="#ffffff" fill-rule="nonzero" stroke-linejoin="round" d="M 556.125375 301.510829 C 556.125375 302.079611 556.072289 302.648393 555.958533 303.202007 C 555.844776 303.763205 555.677934 304.309235 555.465588 304.840098 C 555.24566 305.363377 554.972644 305.863905 554.66171 306.341681 C 554.343193 306.819458 553.979172 307.251732 553.577233 307.661255 C 553.175294 308.063194 552.735437 308.427214 552.25766 308.738148 C 551.787467 309.056666 551.279356 309.329681 550.756076 309.542026 C 550.225214 309.761955 549.686767 309.928798 549.125569 310.042554 C 548.564371 310.148727 547.99559 310.209397 547.426808 310.209397 C 546.858026 310.209397 546.289245 310.148727 545.728047 310.042554 C 545.166849 309.928798 544.628402 309.761955 544.097539 309.542026 C 543.566677 309.329681 543.066149 309.056666 542.595956 308.738148 C 542.118179 308.427214 541.678322 308.063194 541.276383 307.661255 C 540.874444 307.251732 540.510423 306.819458 540.191906 306.341681 C 539.873388 305.863905 539.607956 305.363377 539.388028 304.840098 C 539.168099 304.309235 539.00884 303.763205 538.895083 303.202007 C 538.781327 302.648393 538.728241 302.079611 538.728241 301.510829 C 538.728241 300.934464 538.781327 300.373266 538.895083 299.812068 C 539.00884 299.25087 539.168099 298.70484 539.388028 298.181561 C 539.607956 297.650698 539.873388 297.15017 540.191906 296.672394 C 540.510423 296.202201 540.874444 295.762343 541.276383 295.360404 C 541.678322 294.950881 542.118179 294.594445 542.595956 294.275927 C 543.066149 293.957409 543.566677 293.691978 544.097539 293.472049 C 544.628402 293.25212 545.166849 293.085277 545.728047 292.979105 C 546.289245 292.865349 546.858026 292.812262 547.426808 292.812262 C 547.99559 292.812262 548.564371 292.865349 549.125569 292.979105 C 549.686767 293.085277 550.225214 293.25212 550.756076 293.472049 C 551.279356 293.691978 551.787467 293.957409 552.25766 294.275927 C 552.735437 294.594445 553.175294 294.950881 553.577233 295.360404 C 553.979172 295.762343 554.343193 296.202201 554.66171 296.672394 C 554.972644 297.15017 555.24566 297.650698 555.465588 298.181561 C 555.677934 298.70484 555.844776 299.25087 555.958533 299.812068 C 556.072289 300.373266 556.125375 300.934464 556.125375 301.510829 Z M 556.125375 301.510829 " stroke="#000000" stroke-width="1.5" stroke-opacity="1" stroke-miterlimit="4"/><path stroke-linecap="round" transform="matrix(0.515081, 0, 0, 0.515081, 0.499471, 0.423991)" fill-opacity="1" fill="#fdfdff" fill-rule="nonzero" stroke-linejoin="round" d="M 741.517854 247.021549 L 746.796147 254.620471 L 732.242921 276.984965 L 721.724253 264.00916 Z M 741.517854 247.021549 " stroke="#000000" stroke-width="1.5" stroke-opacity="1" stroke-miterlimit="4"/><path stroke-linecap="round" transform="matrix(0.515081, 0, 0, 0.515081, 0.499471, 0.423991)" fill-opacity="1" fill="#fdfdff" fill-rule="nonzero" stroke-linejoin="round" d="M 721.724253 264.00916 L 710.545798 275.801899 L 700.201556 255.310593 L 705.540519 248.272868 Z M 721.724253 264.00916 " stroke="#000000" stroke-width="1.5" stroke-opacity="1" stroke-miterlimit="4"/><path fill="#fffdfd" d="M 282.609375 182.441406 C 282.609375 182.441406 274.320312 181.042969 272.007812 179.851562 C 270.964844 179.3125 269 176.875 268.140625 175.835938 C 267.277344 174.792969 265.722656 174.324219 265.777344 175.449219 C 265.785156 175.644531 265.953125 176.070312 266.191406 176.585938 C 266.089844 176.460938 265.996094 176.339844 265.921875 176.226562 C 263.898438 173.277344 262.125 173.289062 262.167969 174.496094 C 262.175781 174.710938 262.339844 175.148438 262.59375 175.707031 C 261.441406 174.378906 260.246094 173.472656 259.34375 174.296875 C 258.957031 174.644531 259.546875 175.941406 260.402344 177.472656 C 260.21875 177.3125 260.035156 177.171875 259.851562 177.0625 C 259.277344 176.714844 258.621094 176.863281 258.613281 177.296875 C 258.597656 178.796875 260.957031 183.78125 264.953125 187.3125 C 265.625 187.90625 267.089844 188.847656 268.851562 189.894531 C 267.523438 190.117188 266.167969 190.582031 265.816406 191.53125 C 265.285156 192.964844 266.710938 193.09375 270.125 192.730469 C 271.082031 192.628906 272.734375 192.773438 274.230469 192.957031 C 277.402344 194.703125 280.128906 196.128906 280.128906 196.128906 Z M 282.609375 182.441406 " fill-opacity="1" fill-rule="nonzero"/><path stroke-linecap="round" transform="matrix(0.515081, 0, 0, 0.515081, 0.499471, 0.423991)" fill="none" stroke-linejoin="round" d="M 531.773937 373.54892 C 531.773937 373.54892 527.473948 372.927052 523.462142 373.351742 C 516.83394 374.057031 514.073453 373.806767 515.09726 371.023529 C 516.538173 367.140647 526.594233 367.451581 526.594233 367.451581 " stroke="#000000" stroke-width="1.5" stroke-opacity="1" stroke-miterlimit="4"/><path stroke-linecap="round" transform="matrix(0.515081, 0, 0, 0.515081, 0.499471, 0.423991)" fill-opacity="1" fill="#ffffff" fill-rule="nonzero" stroke-linejoin="round" d="M 542.573205 379.949609 C 542.573205 379.949609 518.145929 367.004139 513.42125 362.833074 C 505.663068 355.977359 500.225516 345.959218 501.120399 343.388325 C 501.461668 342.379686 502.402054 342.258346 503.524449 342.9333 C 503.805048 343.100143 504.085647 343.312488 504.366246 343.540001 " stroke="#000000" stroke-width="1.5" stroke-opacity="1" stroke-miterlimit="4"/><path stroke-linecap="round" transform="matrix(0.515081, 0, 0, 0.515081, 0.499471, 0.423991)" fill="none" stroke-linejoin="round" d="M 519.124234 361.14948 C 519.124234 361.14948 516.985615 359.746485 515.620539 358.8061 C 513.095148 357.077003 510.228489 353.35338 507.930611 349.440162 C 505.0412 344.541056 501.112815 338.97458 502.523394 337.564001 C 504.290409 335.796986 506.466946 337.48058 508.840662 340.301737 " stroke="#000000" stroke-width="1.5" stroke-opacity="1" stroke-miterlimit="4"/><path stroke-linecap="round" transform="matrix(0.515081, 0, 0, 0.515081, 0.499471, 0.423991)" fill="none" stroke-linejoin="round" d="M 522.097066 356.932912 C 522.097066 356.932912 518.274853 354.38477 516.765686 352.898354 C 513.997615 350.160619 508.082286 339.808793 508.014032 337.950773 C 507.930611 335.607393 511.373636 335.584641 515.294437 341.310376 C 515.446113 341.530305 515.620539 341.765402 515.8253 342.008082 " stroke="#000000" stroke-width="1.5" stroke-opacity="1" stroke-miterlimit="4"/><path stroke-linecap="round" transform="matrix(0.515081, 0, 0, 0.515081, 0.499471, 0.423991)" fill="none" stroke-linejoin="round" d="M 525.05473 353.087948 C 525.05473 353.087948 519.981198 349.591837 519.018061 348.006832 C 518.054924 346.421827 515.074509 340.969108 515.021422 339.801209 C 514.91525 337.617088 517.941168 338.527138 519.609594 340.552001 C 521.27802 342.56928 525.092649 347.301543 527.125095 348.348101 C 531.607095 350.661147 547.699823 353.376131 547.699823 353.376131 L 542.573205 379.949609 " stroke="#000000" stroke-width="1.5" stroke-opacity="1" stroke-miterlimit="4"/><path fill="#fffdfd" d="M 332.316406 157.945312 C 335.128906 157.816406 337.167969 157.820312 339.554688 158.007812 C 339.113281 158.589844 338.621094 159.273438 338.230469 159.886719 C 338.039062 160.1875 337.941406 160.789062 337.890625 161.453125 C 336.816406 161.285156 336.09375 161.414062 335.527344 162.113281 C 334.921875 162.863281 336.117188 163.660156 338.007812 164.558594 C 338.355469 166.203125 339.171875 166.25 339.753906 165.339844 C 340.199219 165.535156 340.65625 165.730469 341.121094 165.933594 C 343.074219 166.777344 354.914062 174.59375 354.914062 174.59375 L 368.320312 162.789062 C 364.980469 161.511719 348.839844 155.375 345.164062 154.890625 C 338.410156 153.996094 333.550781 155.433594 331.84375 156.308594 C 331.039062 156.71875 331.542969 157.980469 332.320312 157.945312 Z M 332.316406 157.945312 " fill-opacity="1" fill-rule="nonzero"/><path stroke-linecap="round" transform="matrix(0.515081, 0, 0, 0.515081, 0.499471, 0.423991)" fill="none" stroke-linejoin="round" d="M 655.131299 318.59703 C 651.529015 316.883101 649.27664 315.351183 650.436954 313.910269 C 651.521431 312.575528 652.901675 312.310097 654.941705 312.613447 " stroke="#000000" stroke-width="1.5" stroke-opacity="1" stroke-miterlimit="4"/><path stroke-linecap="round" transform="matrix(0.515081, 0, 0, 0.515081, 0.499471, 0.423991)" fill="none" stroke-linejoin="round" d="M 658.043461 305.916991 C 653.500791 305.568138 649.587574 305.568138 644.203107 305.818402 C 642.69394 305.886656 641.72322 303.437103 643.285473 302.640809 C 646.599574 300.942048 656.026182 298.151226 669.138494 299.887906 C 676.282392 300.828291 707.618468 312.742371 714.102579 315.222259 L 688.075131 338.140367 C 688.075131 338.140367 665.088769 322.965273 661.296892 321.327182 C 660.42476 320.947994 659.575379 320.583974 658.74875 320.219953 " stroke="#000000" stroke-width="1.5" stroke-opacity="1" stroke-miterlimit="4"/><path stroke-linecap="round" transform="matrix(0.515081, 0, 0, 0.515081, 0.499471, 0.423991)" fill="none" stroke-linejoin="round" d="M 660.318587 303.285428 C 660.318587 303.285428 657.444344 306.819458 655.684913 309.587529 C 654.759695 311.04361 654.91137 316.283984 655.085796 317.664228 C 655.692497 322.411659 657.922121 322.108308 659.127938 319.249233 C 660.257917 316.557 659.878729 314.160533 661.258973 311.794401 " stroke="#000000" stroke-width="1.5" stroke-opacity="1" stroke-miterlimit="4"/><path stroke-linecap="round" transform="matrix(0.515081, 0, 0, 0.515081, 0.499471, 0.423991)" fill="none" stroke-linejoin="round" d="M 665.915398 303.97555 C 665.915398 303.97555 662.904648 308.328625 661.440983 311.324209 C 660.682607 312.878878 661.1528 317.641477 661.638161 318.945883 C 662.381369 320.947994 663.170079 321.751872 664.512404 320.985913 C 666.415926 319.893852 665.240444 315.396685 666.613104 313.030554 C 667.902342 310.823681 671.967235 305.188951 671.967235 305.188951 " stroke="#000000" stroke-width="1.5" stroke-opacity="1" stroke-miterlimit="4"/><path stroke-linecap="round" transform="matrix(0.515081, 0, 0, 0.515081, 0.499471, 0.423991)" fill="none" stroke-linejoin="round" d="M 668.660718 310.065305 C 667.204637 314.554888 668.46354 316.359822 669.024738 317.368461 C 669.987875 319.08239 671.406037 318.862461 671.967235 317.474634 C 672.710443 315.624198 673.180636 312.279762 673.810088 311.362127 C 675.129661 309.451021 677.890148 306.895296 677.890148 306.895296 " stroke="#000000" stroke-width="1.5" stroke-opacity="1" stroke-miterlimit="4"/><path stroke-linecap="round" transform="matrix(0.515081, 0, 0, 0.515081, 0.499471, 0.423991)" fill-opacity="1" fill="#000000" fill-rule="nonzero" stroke-linejoin="round" d="M 786.572943 381.580116 C 785.670476 381.360187 784.79076 381.087172 783.926212 380.776238 L 685.117467 341.932244 L 697.926429 302.716647 L 763.44249 324.209009 L 786.504689 331.565251 " stroke="#feffff" stroke-width="1.5" stroke-opacity="1" stroke-miterlimit="4"/><path stroke-linecap="round" transform="matrix(0.515081, 0, 0, 0.515081, 0.499471, 0.423991)" fill="none" stroke-linejoin="round" d="M 764.625556 324.588196 L 758.65714 303.346098 " stroke="#feffff" stroke-width="1.5" stroke-opacity="1" stroke-miterlimit="4"/><g clip-path="url(#746827e930)"><path fill="#ffffff" d="M 210.394531 299.191406 L 237.597656 299.191406 C 237.597656 299.191406 240.246094 295.878906 240.246094 295.878906 C 240.246094 295.878906 240.929688 297.691406 241.578125 299.191406 L 248.261719 299.191406 C 248.261719 299.191406 248.691406 282.222656 248.691406 282.222656 L 228.296875 281.773438 C 228.296875 281.773438 224.582031 290.417969 217.789062 290.980469 C 207.066406 291.875 210.394531 299.191406 210.394531 299.191406 Z M 210.394531 299.191406 " fill-opacity="1" fill-rule="nonzero"/></g><g clip-path="url(#0a2fe94582)"><path stroke-linecap="round" transform="matrix(0.515081, 0, 0, 0.515081, 0.499471, 0.423991)" fill="none" stroke-linejoin="round" d="M 407.498942 580.039405 L 460.312213 580.039405 C 460.312213 580.039405 465.453999 573.608381 465.453999 573.608381 C 465.453999 573.608381 466.781156 577.127243 468.040059 580.039405 L 481.015864 580.039405 C 481.015864 580.039405 481.850077 547.095573 481.850077 547.095573 L 442.255292 546.223441 C 442.255292 546.223441 435.04314 563.006291 421.85499 564.098352 C 401.037582 565.835032 407.498942 580.039405 407.498942 580.039405 Z M 407.498942 580.039405 " stroke="#000000" stroke-width="1.5" stroke-opacity="1" stroke-miterlimit="4"/></g><g clip-path="url(#8666620ec3)"><path stroke-linecap="round" transform="matrix(0.515081, 0, 0, 0.515081, 0.499471, 0.423991)" fill-opacity="1" fill="#ffffff" fill-rule="nonzero" stroke-linejoin="round" d="M 324.145889 518.209049 L 352.736646 562.619519 L 360.927101 563.461316 C 360.927101 563.461316 358.68231 566.479651 356.915295 569.111214 L 363.937852 580.031821 L 392.088751 562.900118 L 371.392683 529.13724 C 371.392683 529.13724 353.373681 532.155575 345.312149 521.659658 C 332.586608 505.089153 324.145889 518.216633 324.145889 518.216633 Z M 324.145889 518.209049 " stroke="#000000" stroke-width="1.5" stroke-opacity="1" stroke-miterlimit="4"/></g><path stroke-linecap="round" transform="matrix(0.515081, 0, 0, 0.515081, 0.499471, 0.423991)" fill-opacity="1" fill="#545454" fill-rule="nonzero" stroke-linejoin="round" d="M 723.400263 469.210407 C 715.816507 469.081483 623.605628 465.282022 584.033594 465.228936 L 388.084528 572.372228 L 363.763426 524.617322 L 569.442449 387.434775 C 569.442449 387.434775 719.737309 395.458388 717.242253 397.377078 " stroke="#000000" stroke-width="1.5" stroke-opacity="1" stroke-miterlimit="4"/><path stroke-linecap="round" transform="matrix(0.515081, 0, 0, 0.515081, 0.499471, 0.423991)" fill-opacity="1" fill="#545454" fill-rule="nonzero" stroke-linejoin="round" d="M 786.504689 398.749738 L 735.268839 397.733515 C 735.268839 397.733515 580.158295 358.464831 580.158295 358.464831 C 556.102624 350.501888 539.812718 356.614394 528.581176 377.151203 L 437.371353 547.982872 L 485.042838 569.884757 L 575.509453 421.349328 L 703.682499 466.123819 C 709.787422 467.966671 716.10469 469.005646 722.475044 469.187656 C 722.884567 469.19524 723.203085 469.202823 723.400263 469.210407 C 736.292646 469.422752 753.060329 466.669849 767.113027 453.496866 C 782.667309 438.905722 787.566415 419.771907 786.504689 398.749738 Z M 786.504689 398.749738 " stroke="#000000" stroke-width="1.5" stroke-opacity="1" stroke-miterlimit="4"/><path stroke-linecap="round" transform="matrix(0.515081, 0, 0, 0.515081, 0.499471, 0.423991)" fill-opacity="1" fill="#ffffff" fill-rule="nonzero" stroke-linejoin="round" d="M 529.726323 18.89461 C 529.726323 19.728823 529.567065 20.525117 529.248547 21.291077 C 528.930029 22.06462 528.482588 22.739574 527.891055 23.331107 C 527.307106 23.915056 526.624568 24.370081 525.858608 24.688599 C 525.092649 25.007117 524.288771 25.166375 523.462142 25.166375 C 522.627929 25.166375 521.831634 25.007117 521.058091 24.688599 C 520.292132 24.370081 519.617178 23.915056 519.025645 23.331107 C 518.441696 22.739574 517.98667 22.06462 517.668153 21.291077 C 517.349635 20.525117 517.190376 19.728823 517.190376 18.89461 C 517.190376 18.060397 517.349635 17.264103 517.668153 16.498143 C 517.98667 15.7246 518.441696 15.049646 519.025645 14.465697 C 519.617178 13.874164 520.292132 13.419139 521.058091 13.100621 C 521.831634 12.782103 522.627929 12.622844 523.462142 12.622844 C 524.288771 12.622844 525.092649 12.782103 525.858608 13.100621 C 526.624568 13.419139 527.307106 13.874164 527.891055 14.465697 C 528.482588 15.049646 528.930029 15.7246 529.248547 16.498143 C 529.567065 17.264103 529.726323 18.060397 529.726323 18.89461 Z M 529.726323 18.89461 " stroke="#000000" stroke-width="1.5" stroke-opacity="1" stroke-miterlimit="4"/><path stroke-linecap="round" transform="matrix(0.515081, 0, 0, 0.515081, 0.499471, 0.423991)" fill-opacity="1" fill="#ffffff" fill-rule="nonzero" stroke-linejoin="round" d="M 548.230686 18.89461 C 548.230686 19.728823 548.071427 20.525117 547.752909 21.291077 C 547.434392 22.06462 546.979366 22.739574 546.395417 23.331107 C 545.803884 23.915056 545.12893 24.370081 544.362971 24.688599 C 543.589428 25.007117 542.793134 25.166375 541.958921 25.166375 C 541.132291 25.166375 540.328413 25.007117 539.562454 24.688599 C 538.796495 24.370081 538.113957 23.915056 537.530008 23.331107 C 536.938475 22.739574 536.491033 22.06462 536.172515 21.291077 C 535.853998 20.525117 535.694739 19.728823 535.694739 18.89461 C 535.694739 18.060397 535.853998 17.264103 536.172515 16.498143 C 536.491033 15.7246 536.938475 15.049646 537.530008 14.465697 C 538.113957 13.874164 538.796495 13.419139 539.562454 13.100621 C 540.328413 12.782103 541.132291 12.622844 541.958921 12.622844 C 542.793134 12.622844 543.589428 12.782103 544.362971 13.100621 C 545.12893 13.419139 545.803884 13.874164 546.395417 14.465697 C 546.979366 15.049646 547.434392 15.7246 547.752909 16.498143 C 548.071427 17.264103 548.230686 18.060397 548.230686 18.89461 Z M 548.230686 18.89461 " stroke="#000000" stroke-width="1.5" stroke-opacity="1" stroke-miterlimit="4"/><path stroke-linecap="round" transform="matrix(0.515081, 0, 0, 0.515081, 0.499471, 0.423991)" fill-opacity="1" fill="#545454" fill-rule="nonzero" stroke-linejoin="round" d="M 566.735049 18.89461 C 566.735049 19.728823 566.57579 20.525117 566.257272 21.291077 C 565.938754 22.06462 565.483729 22.739574 564.89978 23.331107 C 564.308247 23.915056 563.633293 24.370081 562.85975 24.688599 C 562.09379 25.007117 561.297496 25.166375 560.463283 25.166375 C 559.62907 25.166375 558.832776 25.007117 558.066816 24.688599 C 557.293273 24.370081 556.618319 23.915056 556.03437 23.331107 C 555.442837 22.739574 554.987812 22.06462 554.669294 21.291077 C 554.350776 20.525117 554.191518 19.728823 554.191518 18.89461 C 554.191518 18.060397 554.350776 17.264103 554.669294 16.498143 C 554.987812 15.7246 555.442837 15.049646 556.03437 14.465697 C 556.618319 13.874164 557.293273 13.419139 558.066816 13.100621 C 558.832776 12.782103 559.62907 12.622844 560.463283 12.622844 C 561.297496 12.622844 562.09379 12.782103 562.85975 13.100621 C 563.633293 13.419139 564.308247 13.874164 564.89978 14.465697 C 565.483729 15.049646 565.938754 15.7246 566.257272 16.498143 C 566.57579 17.264103 566.735049 18.060397 566.735049 18.89461 Z M 566.735049 18.89461 " stroke="#000000" stroke-width="1.5" stroke-opacity="1" stroke-miterlimit="4"/></svg>